<svg xmlns="http://www.w3.org/2000/svg" xmlns:xlink="http://www.w3.org/1999/xlink" width="1920" zoomAndPan="magnify" viewBox="0 0 1440 809.999993" height="1080" preserveAspectRatio="xMidYMid meet" version="1.0"><defs><g/></defs><rect x="-144" width="1728" fill="#ffffff" y="-80.999999" height="971.999992" fill-opacity="1"/><rect x="-144" width="1728" fill="#faf5f0" y="-80.999999" height="971.999992" fill-opacity="1"/><g fill="#000000" fill-opacity="1"><g transform="translate(207.361723, 462.749997)"><g><path d="M 35.953125 1.453125 C 28.421875 1.453125 22.578125 0.828125 18.421875 -0.421875 C 14.265625 -1.679688 11.382812 -3.59375 9.78125 -6.15625 C 8.1875 -8.71875 7.390625 -11.882812 7.390625 -15.65625 C 7.390625 -16.914062 7.460938 -18.800781 7.609375 -21.3125 C 7.753906 -23.820312 8.046875 -27.6875 8.484375 -32.90625 C 8.921875 -38.132812 9.476562 -45.390625 10.15625 -54.671875 C 10.832031 -63.265625 11.363281 -70.097656 11.75 -75.171875 C 12.132812 -80.253906 12.421875 -84.125 12.609375 -86.78125 C 12.804688 -89.4375 12.925781 -91.34375 12.96875 -92.5 C 13.019531 -93.664062 13.046875 -94.632812 13.046875 -95.40625 C 13.046875 -98.5 13.164062 -100.503906 13.40625 -101.421875 C 13.65625 -102.347656 14.40625 -102.859375 15.65625 -102.953125 C 21.363281 -103.335938 26.222656 -103.625 30.234375 -103.8125 C 34.242188 -104.007812 37.75 -104.109375 40.75 -104.109375 C 55.539062 -104.109375 66.125 -101.785156 72.5 -97.140625 C 78.875 -92.503906 82.0625 -86.03125 82.0625 -77.71875 C 82.0625 -74.71875 81.601562 -71.550781 80.6875 -68.21875 C 79.769531 -64.882812 78.195312 -61.9375 75.96875 -59.375 C 73.75 -56.8125 70.660156 -55 66.703125 -53.9375 C 72.304688 -52.195312 76.265625 -49.320312 78.578125 -45.3125 C 80.898438 -41.300781 82.0625 -36.539062 82.0625 -31.03125 C 82.0625 -26.582031 81.3125 -22.398438 79.8125 -18.484375 C 78.320312 -14.566406 75.835938 -11.109375 72.359375 -8.109375 C 68.878906 -5.117188 64.164062 -2.773438 58.21875 -1.078125 C 52.269531 0.609375 44.847656 1.453125 35.953125 1.453125 Z M 44.21875 -43.5 C 41.800781 -43.5 38.90625 -43.207031 35.53125 -42.625 L 33.9375 -19 C 37.414062 -17.9375 40.554688 -17.40625 43.359375 -17.40625 C 47.410156 -17.40625 50.425781 -18.128906 52.40625 -19.578125 C 54.394531 -21.023438 55.726562 -22.785156 56.40625 -24.859375 C 57.082031 -26.941406 57.421875 -28.898438 57.421875 -30.734375 C 57.421875 -34.410156 56.425781 -37.457031 54.4375 -39.875 C 52.457031 -42.289062 49.050781 -43.5 44.21875 -43.5 Z M 38.140625 -83.375 C 38.035156 -80.863281 37.882812 -77.914062 37.6875 -74.53125 C 37.5 -71.144531 37.257812 -67.472656 36.96875 -63.515625 C 38.425781 -63.128906 39.851562 -62.835938 41.25 -62.640625 C 42.65625 -62.441406 43.984375 -62.34375 45.234375 -62.34375 C 49.109375 -62.34375 52.007812 -62.921875 53.9375 -64.078125 C 55.875 -65.242188 57.179688 -66.648438 57.859375 -68.296875 C 58.535156 -69.941406 58.875 -71.535156 58.875 -73.078125 C 58.875 -76.078125 57.878906 -78.660156 55.890625 -80.828125 C 53.910156 -83.003906 50.503906 -84.09375 45.671875 -84.09375 C 44.703125 -84.09375 43.539062 -84.019531 42.1875 -83.875 C 40.84375 -83.738281 39.492188 -83.570312 38.140625 -83.375 Z M 38.140625 -83.375 "/></g></g></g><g fill="#000000" fill-opacity="1"><g transform="translate(295.084367, 462.749997)"><g><path d="M 1.59375 -17.828125 C 1.59375 -26.429688 5.53125 -33.222656 13.40625 -38.203125 C 21.289062 -43.179688 32.820312 -45.863281 48 -46.25 C 48.09375 -47.3125 48.160156 -48.226562 48.203125 -49 C 48.253906 -49.78125 48.28125 -50.65625 48.28125 -51.625 C 48.28125 -54.71875 47.703125 -57.179688 46.546875 -59.015625 C 45.390625 -60.847656 42.972656 -61.765625 39.296875 -61.765625 C 35.234375 -61.765625 32.570312 -60.675781 31.3125 -58.5 C 30.0625 -56.332031 29 -53.507812 28.125 -50.03125 C 27.9375 -49.15625 27.503906 -48.597656 26.828125 -48.359375 C 26.148438 -48.117188 25.085938 -48 23.640625 -48 C 13.773438 -48 8.84375 -51.71875 8.84375 -59.15625 C 8.84375 -65.25 11.597656 -70.445312 17.109375 -74.75 C 22.617188 -79.050781 30.929688 -81.203125 42.046875 -81.203125 C 52.773438 -81.203125 60.554688 -78.976562 65.390625 -74.53125 C 70.222656 -70.082031 72.640625 -63.800781 72.640625 -55.6875 C 72.640625 -54.613281 72.519531 -52.75 72.28125 -50.09375 C 72.039062 -47.4375 71.75 -44.515625 71.40625 -41.328125 C 71.070312 -38.140625 70.785156 -35.210938 70.546875 -32.546875 C 70.304688 -29.890625 70.1875 -28.03125 70.1875 -26.96875 C 70.1875 -24.550781 70.617188 -22.8125 71.484375 -21.75 C 72.359375 -20.6875 73.347656 -19.984375 74.453125 -19.640625 C 75.566406 -19.304688 76.554688 -19.039062 77.421875 -18.84375 C 78.296875 -18.65625 78.734375 -18.175781 78.734375 -17.40625 C 78.734375 -14.59375 78.203125 -11.710938 77.140625 -8.765625 C 76.078125 -5.816406 74.285156 -3.375 71.765625 -1.4375 C 69.253906 0.488281 65.773438 1.453125 61.328125 1.453125 C 56.691406 1.453125 53.210938 0.316406 50.890625 -1.953125 C 48.578125 -4.222656 47.03125 -7.296875 46.25 -11.171875 C 43.9375 -7.878906 40.914062 -4.953125 37.1875 -2.390625 C 33.46875 0.171875 28.613281 1.453125 22.625 1.453125 C 18.75 1.453125 15.21875 0.828125 12.03125 -0.421875 C 8.84375 -1.679688 6.304688 -3.738281 4.421875 -6.59375 C 2.535156 -9.445312 1.59375 -13.191406 1.59375 -17.828125 Z M 46.6875 -34.359375 C 43.300781 -34.359375 40.0625 -34.019531 36.96875 -33.34375 C 33.875 -32.664062 31.359375 -31.550781 29.421875 -30 C 27.492188 -28.457031 26.53125 -26.382812 26.53125 -23.78125 C 26.53125 -21.550781 27.253906 -20 28.703125 -19.125 C 30.160156 -18.257812 31.660156 -17.828125 33.203125 -17.828125 C 36.296875 -17.828125 39.21875 -19.203125 41.96875 -21.953125 C 44.726562 -24.710938 46.300781 -28.847656 46.6875 -34.359375 Z M 46.6875 -34.359375 "/></g></g></g><g fill="#000000" fill-opacity="1"><g transform="translate(376.717176, 462.749997)"><g><path d="M 52.78125 -45.09375 C 51.71875 -45.09375 50.363281 -45.238281 48.71875 -45.53125 C 47.070312 -45.820312 46.25 -46.304688 46.25 -46.984375 C 46.25 -48.234375 46.296875 -49.390625 46.390625 -50.453125 C 46.492188 -51.523438 46.546875 -52.640625 46.546875 -53.796875 C 46.546875 -55.921875 46.253906 -57.660156 45.671875 -59.015625 C 45.097656 -60.367188 43.9375 -61.046875 42.1875 -61.046875 C 39.488281 -61.046875 37.242188 -59.28125 35.453125 -55.75 C 33.660156 -52.21875 32.523438 -46.925781 32.046875 -39.875 C 31.847656 -36.78125 31.578125 -33.300781 31.234375 -29.4375 C 30.898438 -25.570312 30.585938 -21.773438 30.296875 -18.046875 C 30.015625 -14.328125 29.773438 -11.085938 29.578125 -8.328125 C 29.390625 -5.578125 29.296875 -3.769531 29.296875 -2.90625 C 29.296875 -1.9375 28.957031 -1.207031 28.28125 -0.71875 C 27.601562 -0.238281 26.875 0 26.09375 0 L 20.875 0 C 14.976562 0 11.039062 -1.179688 9.0625 -3.546875 C 7.082031 -5.921875 6.09375 -9.332031 6.09375 -13.78125 C 6.09375 -15.226562 6.164062 -17.28125 6.3125 -19.9375 C 6.457031 -22.59375 6.722656 -26.238281 7.109375 -30.875 C 7.492188 -35.519531 7.953125 -41.46875 8.484375 -48.71875 C 9.015625 -55.96875 9.664062 -64.910156 10.4375 -75.546875 C 10.632812 -78.347656 11.648438 -79.75 13.484375 -79.75 L 19.140625 -79.75 C 24.648438 -79.75 28.421875 -78.660156 30.453125 -76.484375 C 32.484375 -74.304688 33.691406 -71.722656 34.078125 -68.734375 C 36.296875 -73.273438 39.335938 -76.488281 43.203125 -78.375 C 47.078125 -80.257812 50.5625 -81.203125 53.65625 -81.203125 C 56.164062 -81.203125 58.628906 -80.597656 61.046875 -79.390625 C 63.460938 -78.179688 65.46875 -76.34375 67.0625 -73.875 C 68.65625 -71.414062 69.453125 -68.25 69.453125 -64.375 C 69.453125 -59.15625 67.953125 -54.632812 64.953125 -50.8125 C 61.960938 -47 57.90625 -45.09375 52.78125 -45.09375 Z M 52.78125 -45.09375 "/></g></g></g><g fill="#000000" fill-opacity="1"><g transform="translate(446.170312, 462.749997)"><g><path d="M 52.78125 -45.09375 C 51.71875 -45.09375 50.363281 -45.238281 48.71875 -45.53125 C 47.070312 -45.820312 46.25 -46.304688 46.25 -46.984375 C 46.25 -48.234375 46.296875 -49.390625 46.390625 -50.453125 C 46.492188 -51.523438 46.546875 -52.640625 46.546875 -53.796875 C 46.546875 -55.921875 46.253906 -57.660156 45.671875 -59.015625 C 45.097656 -60.367188 43.9375 -61.046875 42.1875 -61.046875 C 39.488281 -61.046875 37.242188 -59.28125 35.453125 -55.75 C 33.660156 -52.21875 32.523438 -46.925781 32.046875 -39.875 C 31.847656 -36.78125 31.578125 -33.300781 31.234375 -29.4375 C 30.898438 -25.570312 30.585938 -21.773438 30.296875 -18.046875 C 30.015625 -14.328125 29.773438 -11.085938 29.578125 -8.328125 C 29.390625 -5.578125 29.296875 -3.769531 29.296875 -2.90625 C 29.296875 -1.9375 28.957031 -1.207031 28.28125 -0.71875 C 27.601562 -0.238281 26.875 0 26.09375 0 L 20.875 0 C 14.976562 0 11.039062 -1.179688 9.0625 -3.546875 C 7.082031 -5.921875 6.09375 -9.332031 6.09375 -13.78125 C 6.09375 -15.226562 6.164062 -17.28125 6.3125 -19.9375 C 6.457031 -22.59375 6.722656 -26.238281 7.109375 -30.875 C 7.492188 -35.519531 7.953125 -41.46875 8.484375 -48.71875 C 9.015625 -55.96875 9.664062 -64.910156 10.4375 -75.546875 C 10.632812 -78.347656 11.648438 -79.75 13.484375 -79.75 L 19.140625 -79.75 C 24.648438 -79.75 28.421875 -78.660156 30.453125 -76.484375 C 32.484375 -74.304688 33.691406 -71.722656 34.078125 -68.734375 C 36.296875 -73.273438 39.335938 -76.488281 43.203125 -78.375 C 47.078125 -80.257812 50.5625 -81.203125 53.65625 -81.203125 C 56.164062 -81.203125 58.628906 -80.597656 61.046875 -79.390625 C 63.460938 -78.179688 65.46875 -76.34375 67.0625 -73.875 C 68.65625 -71.414062 69.453125 -68.25 69.453125 -64.375 C 69.453125 -59.15625 67.953125 -54.632812 64.953125 -50.8125 C 61.960938 -47 57.90625 -45.09375 52.78125 -45.09375 Z M 52.78125 -45.09375 "/></g></g></g><g fill="#000000" fill-opacity="1"><g transform="translate(515.623449, 462.749997)"><g><path d="M 33.640625 -66.40625 C 33.640625 -64.1875 33.492188 -61.578125 33.203125 -58.578125 C 32.910156 -55.578125 32.59375 -52.53125 32.25 -49.4375 C 31.914062 -46.351562 31.601562 -43.476562 31.3125 -40.8125 C 31.03125 -38.15625 30.890625 -36.101562 30.890625 -34.65625 C 30.890625 -31.082031 31.78125 -28.375 33.5625 -26.53125 C 35.351562 -24.695312 37.554688 -23.78125 40.171875 -23.78125 C 44.710938 -23.78125 48.332031 -26.144531 51.03125 -30.875 C 53.738281 -35.613281 55.429688 -41.898438 56.109375 -49.734375 L 58.4375 -76.84375 C 58.53125 -77.90625 58.890625 -78.65625 59.515625 -79.09375 C 60.148438 -79.53125 60.851562 -79.75 61.625 -79.75 L 66.84375 -79.75 C 70.8125 -79.75 74.269531 -78.953125 77.21875 -77.359375 C 80.164062 -75.765625 81.640625 -72.550781 81.640625 -67.71875 C 81.640625 -66.457031 81.492188 -63.601562 81.203125 -59.15625 C 80.910156 -54.707031 80.445312 -48.082031 79.8125 -39.28125 C 79.1875 -30.488281 78.34375 -18.796875 77.28125 -4.203125 C 76.800781 2.171875 75.398438 7.460938 73.078125 11.671875 C 70.753906 15.878906 67.78125 19.191406 64.15625 21.609375 C 60.53125 24.023438 56.492188 25.738281 52.046875 26.75 C 47.609375 27.769531 43.066406 28.28125 38.421875 28.28125 C 31.941406 28.28125 26.140625 27.53125 21.015625 26.03125 C 15.898438 24.53125 11.890625 22.5 8.984375 19.9375 C 6.085938 17.375 4.640625 14.546875 4.640625 11.453125 C 4.640625 7.773438 6.132812 5.066406 9.125 3.328125 C 12.125 1.585938 15.5625 0.71875 19.4375 0.71875 C 20.394531 0.71875 21.113281 1.203125 21.59375 2.171875 C 22.082031 3.140625 22.757812 4.226562 23.625 5.4375 C 24.5 6.644531 25.953125 7.734375 27.984375 8.703125 C 30.015625 9.671875 33.0625 10.15625 37.125 10.15625 C 40.789062 10.15625 43.710938 9.285156 45.890625 7.546875 C 48.066406 5.804688 49.757812 3.582031 50.96875 0.875 C 52.175781 -1.832031 52.972656 -4.78125 53.359375 -7.96875 C 53.742188 -11.164062 53.9375 -14.210938 53.9375 -17.109375 C 51.90625 -13.535156 49.5625 -10.828125 46.90625 -8.984375 C 44.25 -7.148438 41.539062 -5.914062 38.78125 -5.28125 C 36.03125 -4.65625 33.445312 -4.34375 31.03125 -4.34375 C 23.96875 -4.34375 18.1875 -6.394531 13.6875 -10.5 C 9.195312 -14.613281 6.953125 -21.648438 6.953125 -31.609375 C 6.953125 -34.117188 7.097656 -37.597656 7.390625 -42.046875 C 7.679688 -46.492188 8.066406 -51.59375 8.546875 -57.34375 C 9.035156 -63.09375 9.519531 -69.0625 10 -75.25 C 10.195312 -78.25 11.550781 -79.75 14.0625 -79.75 L 18.703125 -79.75 C 24.890625 -79.75 28.925781 -78.613281 30.8125 -76.34375 C 32.695312 -74.070312 33.640625 -70.757812 33.640625 -66.40625 Z M 33.640625 -66.40625 "/></g></g></g><g fill="#000000" fill-opacity="1"><g transform="translate(604.071053, 462.749997)"><g><path d="M 17.40625 -25.8125 C 21.457031 -25.8125 24.351562 -24.816406 26.09375 -22.828125 C 27.832031 -20.847656 28.703125 -18.070312 28.703125 -14.5 C 28.703125 -12.5625 28.335938 -10.335938 27.609375 -7.828125 C 26.890625 -5.316406 25.515625 -3.140625 23.484375 -1.296875 C 21.453125 0.535156 18.457031 1.453125 14.5 1.453125 C 10.050781 1.453125 7.050781 0.289062 5.5 -2.03125 C 3.957031 -4.351562 3.1875 -7.15625 3.1875 -10.4375 C 3.1875 -13.050781 3.617188 -15.515625 4.484375 -17.828125 C 5.359375 -20.148438 6.832031 -22.0625 8.90625 -23.5625 C 10.988281 -25.0625 13.820312 -25.8125 17.40625 -25.8125 Z M 17.40625 -25.8125 "/></g></g></g><g fill="#000000" fill-opacity="1"><g transform="translate(640.465095, 462.749997)"><g><path d="M 84.25 0 L 72.359375 0 C 68.492188 0 65.566406 -0.578125 63.578125 -1.734375 C 61.597656 -2.898438 60.175781 -4.351562 59.3125 -6.09375 C 54.28125 -16.4375 49.5625 -26.367188 45.15625 -35.890625 C 40.757812 -45.410156 36.289062 -54.957031 31.75 -64.53125 C 31.851562 -54.1875 32.023438 -43.789062 32.265625 -33.34375 C 32.503906 -22.90625 32.671875 -12.515625 32.765625 -2.171875 C 32.765625 -0.722656 31.992188 0 30.453125 0 L 22.46875 0 C 17.0625 0 13.195312 -1.109375 10.875 -3.328125 C 8.550781 -5.554688 7.390625 -8.75 7.390625 -12.90625 C 7.390625 -14.550781 7.535156 -17.472656 7.828125 -21.671875 C 8.117188 -25.878906 8.476562 -30.882812 8.90625 -36.6875 C 9.34375 -42.488281 9.804688 -48.484375 10.296875 -54.671875 C 10.878906 -62.015625 11.363281 -68.125 11.75 -73 C 12.132812 -77.882812 12.445312 -81.96875 12.6875 -85.25 C 12.925781 -88.539062 13.09375 -91.367188 13.1875 -93.734375 C 13.289062 -96.109375 13.390625 -98.457031 13.484375 -100.78125 C 13.484375 -102.226562 14.257812 -102.953125 15.8125 -102.953125 L 27.40625 -102.953125 C 31.757812 -102.953125 35.070312 -102.320312 37.34375 -101.0625 C 39.613281 -99.8125 41.328125 -98.171875 42.484375 -96.140625 C 43.640625 -94.109375 44.65625 -91.929688 45.53125 -89.609375 C 48.332031 -82.453125 50.75 -76.410156 52.78125 -71.484375 C 54.8125 -66.554688 56.523438 -62.375 57.921875 -58.9375 C 59.328125 -55.507812 60.582031 -52.535156 61.6875 -50.015625 C 62.800781 -47.503906 63.863281 -45.113281 64.875 -42.84375 C 65.894531 -40.570312 66.988281 -38.082031 68.15625 -35.375 C 68.15625 -43.007812 68.128906 -50.835938 68.078125 -58.859375 C 68.023438 -66.890625 67.953125 -74.601562 67.859375 -82 C 67.765625 -89.394531 67.71875 -95.941406 67.71875 -101.640625 C 67.71875 -102.515625 68.539062 -102.953125 70.1875 -102.953125 L 78.15625 -102.953125 C 82.40625 -102.953125 85.566406 -102.394531 87.640625 -101.28125 C 89.722656 -100.164062 91.101562 -98.566406 91.78125 -96.484375 C 92.457031 -94.410156 92.796875 -91.878906 92.796875 -88.890625 C 92.796875 -86.566406 92.675781 -82.9375 92.4375 -78 C 92.195312 -73.070312 91.859375 -67.441406 91.421875 -61.109375 C 90.984375 -54.785156 90.519531 -48.359375 90.03125 -41.828125 C 89.550781 -35.304688 89.09375 -29.171875 88.65625 -23.421875 C 88.226562 -17.671875 87.84375 -12.882812 87.5 -9.0625 C 87.164062 -5.238281 86.953125 -2.988281 86.859375 -2.3125 C 86.859375 -1.539062 86.59375 -0.960938 86.0625 -0.578125 C 85.53125 -0.191406 84.925781 0 84.25 0 Z M 84.25 0 "/></g></g></g><g fill="#000000" fill-opacity="1"><g transform="translate(740.222414, 462.749997)"><g><path d="M 1.59375 -17.828125 C 1.59375 -26.429688 5.53125 -33.222656 13.40625 -38.203125 C 21.289062 -43.179688 32.820312 -45.863281 48 -46.25 C 48.09375 -47.3125 48.160156 -48.226562 48.203125 -49 C 48.253906 -49.78125 48.28125 -50.65625 48.28125 -51.625 C 48.28125 -54.71875 47.703125 -57.179688 46.546875 -59.015625 C 45.390625 -60.847656 42.972656 -61.765625 39.296875 -61.765625 C 35.234375 -61.765625 32.570312 -60.675781 31.3125 -58.5 C 30.0625 -56.332031 29 -53.507812 28.125 -50.03125 C 27.9375 -49.15625 27.503906 -48.597656 26.828125 -48.359375 C 26.148438 -48.117188 25.085938 -48 23.640625 -48 C 13.773438 -48 8.84375 -51.71875 8.84375 -59.15625 C 8.84375 -65.25 11.597656 -70.445312 17.109375 -74.75 C 22.617188 -79.050781 30.929688 -81.203125 42.046875 -81.203125 C 52.773438 -81.203125 60.554688 -78.976562 65.390625 -74.53125 C 70.222656 -70.082031 72.640625 -63.800781 72.640625 -55.6875 C 72.640625 -54.613281 72.519531 -52.75 72.28125 -50.09375 C 72.039062 -47.4375 71.75 -44.515625 71.40625 -41.328125 C 71.070312 -38.140625 70.785156 -35.210938 70.546875 -32.546875 C 70.304688 -29.890625 70.1875 -28.03125 70.1875 -26.96875 C 70.1875 -24.550781 70.617188 -22.8125 71.484375 -21.75 C 72.359375 -20.6875 73.347656 -19.984375 74.453125 -19.640625 C 75.566406 -19.304688 76.554688 -19.039062 77.421875 -18.84375 C 78.296875 -18.65625 78.734375 -18.175781 78.734375 -17.40625 C 78.734375 -14.59375 78.203125 -11.710938 77.140625 -8.765625 C 76.078125 -5.816406 74.285156 -3.375 71.765625 -1.4375 C 69.253906 0.488281 65.773438 1.453125 61.328125 1.453125 C 56.691406 1.453125 53.210938 0.316406 50.890625 -1.953125 C 48.578125 -4.222656 47.03125 -7.296875 46.25 -11.171875 C 43.9375 -7.878906 40.914062 -4.953125 37.1875 -2.390625 C 33.46875 0.171875 28.613281 1.453125 22.625 1.453125 C 18.75 1.453125 15.21875 0.828125 12.03125 -0.421875 C 8.84375 -1.679688 6.304688 -3.738281 4.421875 -6.59375 C 2.535156 -9.445312 1.59375 -13.191406 1.59375 -17.828125 Z M 46.6875 -34.359375 C 43.300781 -34.359375 40.0625 -34.019531 36.96875 -33.34375 C 33.875 -32.664062 31.359375 -31.550781 29.421875 -30 C 27.492188 -28.457031 26.53125 -26.382812 26.53125 -23.78125 C 26.53125 -21.550781 27.253906 -20 28.703125 -19.125 C 30.160156 -18.257812 31.660156 -17.828125 33.203125 -17.828125 C 36.296875 -17.828125 39.21875 -19.203125 41.96875 -21.953125 C 44.726562 -24.710938 46.300781 -28.847656 46.6875 -34.359375 Z M 46.6875 -34.359375 "/></g></g></g><g fill="#000000" fill-opacity="1"><g transform="translate(821.855223, 462.749997)"><g><path d="M 31.03125 -26.09375 C 30.738281 -21.65625 30.398438 -17.425781 30.015625 -13.40625 C 29.628906 -9.394531 29.335938 -5.894531 29.140625 -2.90625 C 29.046875 -1.738281 28.804688 -0.960938 28.421875 -0.578125 C 28.035156 -0.191406 27.210938 0 25.953125 0 L 20.734375 0 C 14.835938 0 10.894531 -1.179688 8.90625 -3.546875 C 6.925781 -5.921875 5.9375 -9.332031 5.9375 -13.78125 C 5.9375 -15.226562 6.007812 -17.28125 6.15625 -19.9375 C 6.300781 -22.59375 6.566406 -26.238281 6.953125 -30.875 C 7.347656 -35.519531 7.8125 -41.46875 8.34375 -48.71875 C 8.875 -55.96875 9.523438 -64.910156 10.296875 -75.546875 C 10.390625 -77.671875 10.628906 -78.925781 11.015625 -79.3125 C 11.304688 -79.601562 12.082031 -79.75 13.34375 -79.75 L 19 -79.75 C 24.695312 -79.75 28.5625 -78.539062 30.59375 -76.125 C 32.625 -73.707031 33.738281 -70.953125 33.9375 -67.859375 C 36.738281 -73.078125 39.953125 -76.601562 43.578125 -78.4375 C 47.203125 -80.28125 51.378906 -81.203125 56.109375 -81.203125 C 61.328125 -81.203125 66.015625 -80.132812 70.171875 -78 C 74.335938 -75.875 76.953125 -71.960938 78.015625 -66.265625 C 81.109375 -71.960938 84.414062 -75.875 87.9375 -78 C 91.46875 -80.132812 95.941406 -81.203125 101.359375 -81.203125 C 105.410156 -81.203125 109.128906 -80.597656 112.515625 -79.390625 C 115.898438 -78.179688 118.628906 -76.101562 120.703125 -73.15625 C 122.785156 -70.207031 123.828125 -66.070312 123.828125 -60.75 C 123.828125 -56.789062 123.582031 -51.644531 123.09375 -45.3125 C 122.613281 -38.976562 122.082031 -32.234375 121.5 -25.078125 C 120.925781 -17.929688 120.398438 -11.070312 119.921875 -4.5 C 119.816406 -2.375 119.546875 -1.09375 119.109375 -0.65625 C 118.679688 -0.21875 117.644531 0 116 0 L 111.359375 0 C 105.265625 0 101.25 -1.109375 99.3125 -3.328125 C 97.382812 -5.554688 96.421875 -8.703125 96.421875 -12.765625 C 96.421875 -14.304688 96.515625 -16.523438 96.703125 -19.421875 C 96.898438 -22.328125 97.164062 -25.492188 97.5 -28.921875 C 97.84375 -32.359375 98.160156 -35.71875 98.453125 -39 C 98.742188 -42.289062 98.984375 -45.144531 99.171875 -47.5625 C 99.367188 -49.976562 99.46875 -51.523438 99.46875 -52.203125 C 99.46875 -54.710938 98.957031 -56.929688 97.9375 -58.859375 C 96.925781 -60.796875 94.972656 -61.765625 92.078125 -61.765625 C 88.785156 -61.765625 86.050781 -60.335938 83.875 -57.484375 C 81.707031 -54.640625 80.019531 -50.773438 78.8125 -45.890625 C 77.601562 -41.003906 76.753906 -35.472656 76.265625 -29.296875 C 76.078125 -26.296875 75.835938 -22.835938 75.546875 -18.921875 C 75.253906 -15.003906 74.914062 -10.195312 74.53125 -4.5 C 74.4375 -2.375 74.171875 -1.09375 73.734375 -0.65625 C 73.296875 -0.21875 72.253906 0 70.609375 0 L 65.96875 0 C 59.882812 0 55.875 -1.109375 53.9375 -3.328125 C 52.007812 -5.554688 51.046875 -8.703125 51.046875 -12.765625 C 51.046875 -14.691406 51.1875 -17.492188 51.46875 -21.171875 C 51.757812 -24.847656 52.125 -28.765625 52.5625 -32.921875 C 53 -37.078125 53.359375 -40.914062 53.640625 -44.4375 C 53.929688 -47.96875 54.078125 -50.554688 54.078125 -52.203125 C 54.078125 -54.710938 53.570312 -56.929688 52.5625 -58.859375 C 51.550781 -60.796875 49.59375 -61.765625 46.6875 -61.765625 C 43.300781 -61.765625 40.519531 -60.117188 38.34375 -56.828125 C 36.175781 -53.546875 34.535156 -49.195312 33.421875 -43.78125 C 32.304688 -38.375 31.507812 -32.476562 31.03125 -26.09375 Z M 31.03125 -26.09375 "/></g></g></g><g fill="#000000" fill-opacity="1"><g transform="translate(952.641686, 462.749997)"><g><path d="M 32.484375 1.453125 C 27.453125 1.453125 22.785156 0.222656 18.484375 -2.234375 C 14.179688 -4.703125 10.75 -8.546875 8.1875 -13.765625 C 5.625 -18.992188 4.34375 -25.765625 4.34375 -34.078125 C 4.34375 -37.460938 4.632812 -41.234375 5.21875 -45.390625 C 5.800781 -49.546875 6.835938 -53.722656 8.328125 -57.921875 C 9.828125 -62.128906 11.929688 -65.992188 14.640625 -69.515625 C 17.347656 -73.046875 20.800781 -75.875 25 -78 C 29.207031 -80.132812 34.3125 -81.203125 40.3125 -81.203125 C 45.144531 -81.203125 49.035156 -80.351562 51.984375 -78.65625 C 54.929688 -76.96875 56.789062 -74.046875 57.5625 -69.890625 C 57.851562 -74.921875 58.117188 -79.148438 58.359375 -82.578125 C 58.597656 -86.003906 58.835938 -89.265625 59.078125 -92.359375 C 59.328125 -95.453125 59.546875 -99.03125 59.734375 -103.09375 C 59.835938 -105.21875 60.082031 -106.472656 60.46875 -106.859375 C 60.757812 -107.148438 61.53125 -107.296875 62.78125 -107.296875 L 68.4375 -107.296875 C 74.238281 -107.296875 78.203125 -106.039062 80.328125 -103.53125 C 82.453125 -101.019531 83.515625 -98.117188 83.515625 -94.828125 C 83.515625 -94.828125 83.394531 -93.300781 83.15625 -90.25 C 82.914062 -87.207031 82.625 -83.148438 82.28125 -78.078125 C 81.945312 -73.003906 81.535156 -67.398438 81.046875 -61.265625 C 80.566406 -55.128906 80.109375 -48.914062 79.671875 -42.625 C 79.242188 -36.34375 78.8125 -30.421875 78.375 -24.859375 C 77.9375 -19.304688 77.546875 -14.570312 77.203125 -10.65625 C 76.867188 -6.738281 76.65625 -4.15625 76.5625 -2.90625 C 76.46875 -1.738281 76.25 -0.960938 75.90625 -0.578125 C 75.570312 -0.191406 74.726562 0 73.375 0 L 68.15625 0 C 64 0 60.539062 -0.722656 57.78125 -2.171875 C 55.03125 -3.617188 53.65625 -6.566406 53.65625 -11.015625 C 51.914062 -7.347656 49.28125 -4.351562 45.75 -2.03125 C 42.21875 0.289062 37.796875 1.453125 32.484375 1.453125 Z M 45.09375 -61.921875 C 40.164062 -61.921875 36.515625 -59.769531 34.140625 -55.46875 C 31.773438 -51.164062 30.59375 -45.390625 30.59375 -38.140625 C 30.59375 -34.847656 30.90625 -31.628906 31.53125 -28.484375 C 32.164062 -25.347656 33.328125 -22.785156 35.015625 -20.796875 C 36.710938 -18.816406 39.101562 -17.828125 42.1875 -17.828125 C 46.351562 -17.828125 49.835938 -19.878906 52.640625 -23.984375 C 55.441406 -28.097656 56.84375 -34.457031 56.84375 -43.0625 C 56.84375 -46.351562 56.523438 -49.421875 55.890625 -52.265625 C 55.265625 -55.117188 54.128906 -57.441406 52.484375 -59.234375 C 50.847656 -61.023438 48.382812 -61.921875 45.09375 -61.921875 Z M 45.09375 -61.921875 "/></g></g></g><g fill="#000000" fill-opacity="1"><g transform="translate(1040.799366, 462.749997)"><g><path d="M 1.59375 -17.828125 C 1.59375 -26.429688 5.53125 -33.222656 13.40625 -38.203125 C 21.289062 -43.179688 32.820312 -45.863281 48 -46.25 C 48.09375 -47.3125 48.160156 -48.226562 48.203125 -49 C 48.253906 -49.78125 48.28125 -50.65625 48.28125 -51.625 C 48.28125 -54.71875 47.703125 -57.179688 46.546875 -59.015625 C 45.390625 -60.847656 42.972656 -61.765625 39.296875 -61.765625 C 35.234375 -61.765625 32.570312 -60.675781 31.3125 -58.5 C 30.0625 -56.332031 29 -53.507812 28.125 -50.03125 C 27.9375 -49.15625 27.503906 -48.597656 26.828125 -48.359375 C 26.148438 -48.117188 25.085938 -48 23.640625 -48 C 13.773438 -48 8.84375 -51.71875 8.84375 -59.15625 C 8.84375 -65.25 11.597656 -70.445312 17.109375 -74.75 C 22.617188 -79.050781 30.929688 -81.203125 42.046875 -81.203125 C 52.773438 -81.203125 60.554688 -78.976562 65.390625 -74.53125 C 70.222656 -70.082031 72.640625 -63.800781 72.640625 -55.6875 C 72.640625 -54.613281 72.519531 -52.75 72.28125 -50.09375 C 72.039062 -47.4375 71.75 -44.515625 71.40625 -41.328125 C 71.070312 -38.140625 70.785156 -35.210938 70.546875 -32.546875 C 70.304688 -29.890625 70.1875 -28.03125 70.1875 -26.96875 C 70.1875 -24.550781 70.617188 -22.8125 71.484375 -21.75 C 72.359375 -20.6875 73.347656 -19.984375 74.453125 -19.640625 C 75.566406 -19.304688 76.554688 -19.039062 77.421875 -18.84375 C 78.296875 -18.65625 78.734375 -18.175781 78.734375 -17.40625 C 78.734375 -14.59375 78.203125 -11.710938 77.140625 -8.765625 C 76.078125 -5.816406 74.285156 -3.375 71.765625 -1.4375 C 69.253906 0.488281 65.773438 1.453125 61.328125 1.453125 C 56.691406 1.453125 53.210938 0.316406 50.890625 -1.953125 C 48.578125 -4.222656 47.03125 -7.296875 46.25 -11.171875 C 43.9375 -7.878906 40.914062 -4.953125 37.1875 -2.390625 C 33.46875 0.171875 28.613281 1.453125 22.625 1.453125 C 18.75 1.453125 15.21875 0.828125 12.03125 -0.421875 C 8.84375 -1.679688 6.304688 -3.738281 4.421875 -6.59375 C 2.535156 -9.445312 1.59375 -13.191406 1.59375 -17.828125 Z M 46.6875 -34.359375 C 43.300781 -34.359375 40.0625 -34.019531 36.96875 -33.34375 C 33.875 -32.664062 31.359375 -31.550781 29.421875 -30 C 27.492188 -28.457031 26.53125 -26.382812 26.53125 -23.78125 C 26.53125 -21.550781 27.253906 -20 28.703125 -19.125 C 30.160156 -18.257812 31.660156 -17.828125 33.203125 -17.828125 C 36.296875 -17.828125 39.21875 -19.203125 41.96875 -21.953125 C 44.726562 -24.710938 46.300781 -28.847656 46.6875 -34.359375 Z M 46.6875 -34.359375 "/></g></g></g><g fill="#000000" fill-opacity="1"><g transform="translate(1122.432174, 462.749997)"><g><path d="M 52.78125 -45.09375 C 51.71875 -45.09375 50.363281 -45.238281 48.71875 -45.53125 C 47.070312 -45.820312 46.25 -46.304688 46.25 -46.984375 C 46.25 -48.234375 46.296875 -49.390625 46.390625 -50.453125 C 46.492188 -51.523438 46.546875 -52.640625 46.546875 -53.796875 C 46.546875 -55.921875 46.253906 -57.660156 45.671875 -59.015625 C 45.097656 -60.367188 43.9375 -61.046875 42.1875 -61.046875 C 39.488281 -61.046875 37.242188 -59.28125 35.453125 -55.75 C 33.660156 -52.21875 32.523438 -46.925781 32.046875 -39.875 C 31.847656 -36.78125 31.578125 -33.300781 31.234375 -29.4375 C 30.898438 -25.570312 30.585938 -21.773438 30.296875 -18.046875 C 30.015625 -14.328125 29.773438 -11.085938 29.578125 -8.328125 C 29.390625 -5.578125 29.296875 -3.769531 29.296875 -2.90625 C 29.296875 -1.9375 28.957031 -1.207031 28.28125 -0.71875 C 27.601562 -0.238281 26.875 0 26.09375 0 L 20.875 0 C 14.976562 0 11.039062 -1.179688 9.0625 -3.546875 C 7.082031 -5.921875 6.09375 -9.332031 6.09375 -13.78125 C 6.09375 -15.226562 6.164062 -17.28125 6.3125 -19.9375 C 6.457031 -22.59375 6.722656 -26.238281 7.109375 -30.875 C 7.492188 -35.519531 7.953125 -41.46875 8.484375 -48.71875 C 9.015625 -55.96875 9.664062 -64.910156 10.4375 -75.546875 C 10.632812 -78.347656 11.648438 -79.75 13.484375 -79.75 L 19.140625 -79.75 C 24.648438 -79.75 28.421875 -78.660156 30.453125 -76.484375 C 32.484375 -74.304688 33.691406 -71.722656 34.078125 -68.734375 C 36.296875 -73.273438 39.335938 -76.488281 43.203125 -78.375 C 47.078125 -80.257812 50.5625 -81.203125 53.65625 -81.203125 C 56.164062 -81.203125 58.628906 -80.597656 61.046875 -79.390625 C 63.460938 -78.179688 65.46875 -76.34375 67.0625 -73.875 C 68.65625 -71.414062 69.453125 -68.25 69.453125 -64.375 C 69.453125 -59.15625 67.953125 -54.632812 64.953125 -50.8125 C 61.960938 -47 57.90625 -45.09375 52.78125 -45.09375 Z M 52.78125 -45.09375 "/></g></g></g><g fill="#000000" fill-opacity="1"><g transform="translate(1191.885357, 462.749997)"><g><path d="M 26.09375 0 L 20.875 0 C 14.976562 0 11.039062 -1.179688 9.0625 -3.546875 C 7.082031 -5.921875 6.09375 -9.332031 6.09375 -13.78125 C 6.09375 -15.226562 6.164062 -17.28125 6.3125 -19.9375 C 6.457031 -22.59375 6.722656 -26.238281 7.109375 -30.875 C 7.492188 -35.519531 7.953125 -41.46875 8.484375 -48.71875 C 9.015625 -55.96875 9.664062 -64.910156 10.4375 -75.546875 C 10.53125 -77.671875 10.773438 -78.925781 11.171875 -79.3125 C 11.453125 -79.601562 12.222656 -79.75 13.484375 -79.75 L 19.140625 -79.75 C 25.128906 -79.75 29.09375 -78.585938 31.03125 -76.265625 C 32.96875 -73.953125 33.9375 -70.71875 33.9375 -66.5625 C 33.9375 -64.71875 33.789062 -61.453125 33.5 -56.765625 C 33.207031 -52.078125 32.722656 -45.40625 32.046875 -36.75 C 31.367188 -28.101562 30.453125 -16.820312 29.296875 -2.90625 C 29.191406 -1.738281 28.945312 -0.960938 28.5625 -0.578125 C 28.175781 -0.191406 27.351562 0 26.09375 0 Z M 10.578125 -96.859375 C 10.578125 -100.722656 11.976562 -103.765625 14.78125 -105.984375 C 17.59375 -108.210938 21.363281 -109.328125 26.09375 -109.328125 C 30.25 -109.328125 33.269531 -108.476562 35.15625 -106.78125 C 37.039062 -105.09375 37.984375 -102.847656 37.984375 -100.046875 C 37.984375 -96.472656 36.65625 -93.5 34 -91.125 C 31.34375 -88.757812 27.453125 -87.578125 22.328125 -87.578125 C 14.492188 -87.578125 10.578125 -90.671875 10.578125 -96.859375 Z M 10.578125 -96.859375 "/></g></g></g></svg>