<svg xmlns="http://www.w3.org/2000/svg" xmlns:xlink="http://www.w3.org/1999/xlink" width="1920" zoomAndPan="magnify" viewBox="0 0 1440 809.999993" height="1080" preserveAspectRatio="xMidYMid meet" version="1.0"><defs><g/></defs><rect x="-144" width="1728" fill="#ffffff" y="-80.999999" height="971.999992" fill-opacity="1"/><rect x="-144" width="1728" fill="#f5f5f5" y="-80.999999" height="971.999992" fill-opacity="1"/><g fill="#000000" fill-opacity="1"><g transform="translate(258.404642, 456.374997)"><g><path d="M 27.015625 0 L 27.015625 -23.796875 L 50.25 -23.796875 C 55.476562 -23.796875 60.003906 -24.75 63.828125 -26.65625 C 67.660156 -28.570312 70.601562 -31.488281 72.65625 -35.40625 C 74.707031 -39.332031 75.734375 -44.1875 75.734375 -49.96875 C 75.734375 -55.757812 74.679688 -60.566406 72.578125 -64.390625 C 70.484375 -68.210938 67.546875 -71.082031 63.765625 -73 C 59.984375 -74.914062 55.476562 -75.875 50.25 -75.875 L 25.609375 -75.875 L 25.609375 -99.671875 L 50.25 -99.671875 C 58.09375 -99.671875 65.300781 -98.503906 71.875 -96.171875 C 78.457031 -93.835938 84.175781 -90.476562 89.03125 -86.09375 C 93.882812 -81.707031 97.640625 -76.457031 100.296875 -70.34375 C 102.953125 -64.226562 104.28125 -57.390625 104.28125 -49.828125 C 104.28125 -42.273438 102.953125 -35.441406 100.296875 -29.328125 C 97.640625 -23.210938 93.882812 -17.960938 89.03125 -13.578125 C 84.175781 -9.191406 78.484375 -5.832031 71.953125 -3.5 C 65.421875 -1.164062 58.28125 0 50.53125 0 Z M 8.265625 0 L 8.265625 -99.671875 L 36.25 -99.671875 L 36.25 0 Z M 8.265625 0 "/></g></g></g><g fill="#000000" fill-opacity="1"><g transform="translate(365.909703, 456.374997)"><g><path d="M 42.421875 1.6875 C 34.390625 1.6875 27.335938 0.171875 21.265625 -2.859375 C 15.203125 -5.898438 10.46875 -10.148438 7.0625 -15.609375 C 3.65625 -21.066406 1.953125 -27.34375 1.953125 -34.4375 C 1.953125 -41.4375 3.609375 -47.640625 6.921875 -53.046875 C 10.242188 -58.460938 14.796875 -62.734375 20.578125 -65.859375 C 26.359375 -68.984375 32.890625 -70.546875 40.171875 -70.546875 C 47.359375 -70.546875 53.703125 -69.078125 59.203125 -66.140625 C 64.710938 -63.203125 69.03125 -59.117188 72.15625 -53.890625 C 75.28125 -48.671875 76.84375 -42.695312 76.84375 -35.96875 C 76.84375 -34.570312 76.773438 -33.101562 76.640625 -31.5625 C 76.503906 -30.019531 76.203125 -28.222656 75.734375 -26.171875 L 13.578125 -25.75 L 13.578125 -42.5625 L 65.515625 -42.96875 L 52.78125 -35.5625 C 52.78125 -39.289062 52.332031 -42.34375 51.4375 -44.71875 C 50.550781 -47.101562 49.222656 -48.898438 47.453125 -50.109375 C 45.679688 -51.328125 43.441406 -51.9375 40.734375 -51.9375 C 37.929688 -51.9375 35.503906 -51.234375 33.453125 -49.828125 C 31.398438 -48.429688 29.835938 -46.425781 28.765625 -43.8125 C 27.691406 -41.195312 27.15625 -38.023438 27.15625 -34.296875 C 27.15625 -30.472656 27.738281 -27.273438 28.90625 -24.703125 C 30.070312 -22.140625 31.773438 -20.203125 34.015625 -18.890625 C 36.253906 -17.585938 39.054688 -16.9375 42.421875 -16.9375 C 45.679688 -16.9375 48.546875 -17.472656 51.015625 -18.546875 C 53.492188 -19.617188 55.757812 -21.320312 57.8125 -23.65625 L 71.53125 -10.078125 C 68.082031 -6.160156 63.929688 -3.21875 59.078125 -1.25 C 54.222656 0.707031 48.671875 1.6875 42.421875 1.6875 Z M 42.421875 1.6875 "/></g></g></g><g fill="#000000" fill-opacity="1"><g transform="translate(444.438794, 456.374997)"><g><path d="M 26.59375 0 L -0.421875 -68.875 L 28.703125 -68.875 L 44.515625 -10.21875 L 34.578125 -10.21875 L 50.25 -68.875 L 79.234375 -68.875 L 52.21875 0 Z M 26.59375 0 "/></g></g></g><g fill="#000000" fill-opacity="1"><g transform="translate(523.24783, 456.374997)"><g><path d="M 57.53125 1.953125 C 49.695312 1.953125 42.488281 0.648438 35.90625 -1.953125 C 29.320312 -4.566406 23.582031 -8.207031 18.6875 -12.875 C 13.789062 -17.539062 9.988281 -23.046875 7.28125 -29.390625 C 4.570312 -35.742188 3.21875 -42.601562 3.21875 -49.96875 C 3.21875 -57.4375 4.546875 -64.296875 7.203125 -70.546875 C 9.867188 -76.804688 13.625 -82.265625 18.46875 -86.921875 C 23.320312 -91.585938 29.039062 -95.203125 35.625 -97.765625 C 42.207031 -100.335938 49.414062 -101.625 57.25 -101.625 C 65.09375 -101.625 72.300781 -100.335938 78.875 -97.765625 C 85.457031 -95.203125 91.175781 -91.585938 96.03125 -86.921875 C 100.882812 -82.265625 104.640625 -76.785156 107.296875 -70.484375 C 109.953125 -64.179688 111.28125 -57.296875 111.28125 -49.828125 C 111.28125 -42.460938 109.953125 -35.628906 107.296875 -29.328125 C 104.640625 -23.023438 100.882812 -17.515625 96.03125 -12.796875 C 91.175781 -8.085938 85.484375 -4.453125 78.953125 -1.890625 C 72.421875 0.671875 65.28125 1.953125 57.53125 1.953125 Z M 57.25 -22.671875 C 62.476562 -22.671875 67.003906 -23.789062 70.828125 -26.03125 C 74.660156 -28.269531 77.601562 -31.441406 79.65625 -35.546875 C 81.707031 -39.660156 82.734375 -44.46875 82.734375 -49.96875 C 82.734375 -54.082031 82.148438 -57.796875 80.984375 -61.109375 C 79.816406 -64.421875 78.113281 -67.265625 75.875 -69.640625 C 73.632812 -72.023438 70.953125 -73.84375 67.828125 -75.09375 C 64.703125 -76.351562 61.175781 -76.984375 57.25 -76.984375 C 52.03125 -76.984375 47.503906 -75.882812 43.671875 -73.6875 C 39.847656 -71.5 36.910156 -68.375 34.859375 -64.3125 C 32.804688 -60.257812 31.78125 -55.476562 31.78125 -49.96875 C 31.78125 -45.769531 32.363281 -41.988281 33.53125 -38.625 C 34.695312 -35.269531 36.398438 -32.398438 38.640625 -30.015625 C 40.878906 -27.640625 43.5625 -25.820312 46.6875 -24.5625 C 49.8125 -23.300781 53.332031 -22.671875 57.25 -22.671875 Z M 57.25 -22.671875 "/></g></g></g><g fill="#000000" fill-opacity="1"><g transform="translate(637.751913, 456.374997)"><g><path d="M 49 1.40625 C 44.882812 1.40625 41.007812 0.726562 37.375 -0.625 C 33.738281 -1.976562 30.660156 -3.867188 28.140625 -6.296875 C 25.617188 -8.722656 23.984375 -11.523438 23.234375 -14.703125 L 23.234375 -52.78125 C 23.984375 -55.945312 25.617188 -58.859375 28.140625 -61.515625 C 30.660156 -64.179688 33.738281 -66.304688 37.375 -67.890625 C 41.007812 -69.472656 44.882812 -70.265625 49 -70.265625 C 55.8125 -70.265625 61.757812 -68.75 66.84375 -65.71875 C 71.925781 -62.6875 75.890625 -58.460938 78.734375 -53.046875 C 81.585938 -47.640625 83.015625 -41.4375 83.015625 -34.4375 C 83.015625 -27.4375 81.585938 -21.253906 78.734375 -15.890625 C 75.890625 -10.523438 71.925781 -6.300781 66.84375 -3.21875 C 61.757812 -0.132812 55.8125 1.40625 49 1.40625 Z M 6.578125 29.390625 L 6.578125 -68.875 L 34.015625 -68.875 L 34.015625 -51.9375 L 29.53125 -35.28125 L 33.3125 -18.484375 L 33.3125 29.390625 Z M 43.8125 -22.671875 C 46.050781 -22.671875 48.054688 -23.179688 49.828125 -24.203125 C 51.609375 -25.234375 52.988281 -26.632812 53.96875 -28.40625 C 54.945312 -30.1875 55.4375 -32.195312 55.4375 -34.4375 C 55.4375 -36.769531 54.945312 -38.796875 53.96875 -40.515625 C 52.988281 -42.242188 51.632812 -43.617188 49.90625 -44.640625 C 48.175781 -45.671875 46.191406 -46.1875 43.953125 -46.1875 C 41.710938 -46.1875 39.726562 -45.695312 38 -44.71875 C 36.28125 -43.738281 34.925781 -42.363281 33.9375 -40.59375 C 32.957031 -38.820312 32.46875 -36.769531 32.46875 -34.4375 C 32.46875 -32.195312 32.9375 -30.1875 33.875 -28.40625 C 34.8125 -26.632812 36.140625 -25.234375 37.859375 -24.203125 C 39.585938 -23.179688 41.570312 -22.671875 43.8125 -22.671875 Z M 43.8125 -22.671875 "/></g></g></g><g fill="#000000" fill-opacity="1"><g transform="translate(723.140031, 456.374997)"><g><path d="M 34.015625 2.09375 C 29.722656 2.09375 25.429688 1.53125 21.140625 0.40625 C 16.847656 -0.707031 12.859375 -2.242188 9.171875 -4.203125 C 5.484375 -6.160156 2.378906 -8.398438 -0.140625 -10.921875 L 14.28125 -25.75 C 16.519531 -23.507812 19.203125 -21.738281 22.328125 -20.4375 C 25.453125 -19.132812 28.742188 -18.484375 32.203125 -18.484375 C 33.785156 -18.484375 35.019531 -18.691406 35.90625 -19.109375 C 36.789062 -19.523438 37.234375 -20.109375 37.234375 -20.859375 C 37.234375 -22.160156 36.460938 -23.140625 34.921875 -23.796875 C 33.378906 -24.453125 31.421875 -25.054688 29.046875 -25.609375 C 26.671875 -26.171875 24.148438 -26.894531 21.484375 -27.78125 C 18.828125 -28.664062 16.285156 -29.878906 13.859375 -31.421875 C 11.429688 -32.960938 9.46875 -35.109375 7.96875 -37.859375 C 6.476562 -40.617188 5.734375 -44.144531 5.734375 -48.4375 C 5.734375 -52.820312 6.96875 -56.71875 9.4375 -60.125 C 11.914062 -63.53125 15.414062 -66.234375 19.9375 -68.234375 C 24.46875 -70.242188 29.722656 -71.25 35.703125 -71.25 C 41.765625 -71.25 47.640625 -70.222656 53.328125 -68.171875 C 59.023438 -66.117188 63.550781 -63.039062 66.90625 -58.9375 L 52.359375 -44.09375 C 50.023438 -46.707031 47.457031 -48.457031 44.65625 -49.34375 C 41.851562 -50.226562 39.519531 -50.671875 37.65625 -50.671875 C 35.882812 -50.671875 34.644531 -50.414062 33.9375 -49.90625 C 33.238281 -49.394531 32.890625 -48.765625 32.890625 -48.015625 C 32.890625 -46.984375 33.632812 -46.140625 35.125 -45.484375 C 36.625 -44.835938 38.5625 -44.234375 40.9375 -43.671875 C 43.320312 -43.109375 45.820312 -42.359375 48.4375 -41.421875 C 51.050781 -40.492188 53.546875 -39.191406 55.921875 -37.515625 C 58.304688 -35.835938 60.242188 -33.617188 61.734375 -30.859375 C 63.222656 -28.109375 63.96875 -24.539062 63.96875 -20.15625 C 63.96875 -13.34375 61.257812 -7.929688 55.84375 -3.921875 C 50.4375 0.0859375 43.160156 2.09375 34.015625 2.09375 Z M 34.015625 2.09375 "/></g></g></g><g fill="#000000" fill-opacity="1"><g transform="translate(791.030592, 456.374997)"><g/></g></g><g fill="#3d3bf3" fill-opacity="1"><g transform="translate(816.228836, 456.374997)"><g><path d="M 32.0625 0 L 32.0625 -99.671875 L 60.046875 -99.671875 L 60.046875 0 Z M 2.234375 -75.875 L 2.234375 -99.671875 L 90.015625 -99.671875 L 90.015625 -75.875 Z M 2.234375 -75.875 "/></g></g></g><g fill="#3d3bf3" fill-opacity="1"><g transform="translate(908.476016, 456.374997)"><g><path d="M 41.296875 1.6875 C 33.734375 1.6875 26.988281 0.125 21.0625 -3 C 15.132812 -6.132812 10.46875 -10.453125 7.0625 -15.953125 C 3.65625 -21.460938 1.953125 -27.671875 1.953125 -34.578125 C 1.953125 -41.484375 3.628906 -47.640625 6.984375 -53.046875 C 10.347656 -58.460938 14.992188 -62.734375 20.921875 -65.859375 C 26.847656 -68.984375 33.59375 -70.546875 41.15625 -70.546875 C 48.71875 -70.546875 55.4375 -68.984375 61.3125 -65.859375 C 67.1875 -62.734375 71.828125 -58.460938 75.234375 -53.046875 C 78.640625 -47.640625 80.34375 -41.484375 80.34375 -34.578125 C 80.34375 -27.671875 78.660156 -21.460938 75.296875 -15.953125 C 71.941406 -10.453125 67.328125 -6.132812 61.453125 -3 C 55.578125 0.125 48.859375 1.6875 41.296875 1.6875 Z M 41.15625 -22.390625 C 43.488281 -22.390625 45.515625 -22.878906 47.234375 -23.859375 C 48.960938 -24.847656 50.296875 -26.25 51.234375 -28.0625 C 52.171875 -29.882812 52.640625 -32.007812 52.640625 -34.4375 C 52.640625 -36.863281 52.144531 -38.984375 51.15625 -40.796875 C 50.175781 -42.617188 48.847656 -44.019531 47.171875 -45 C 45.492188 -45.976562 43.488281 -46.46875 41.15625 -46.46875 C 38.914062 -46.46875 36.929688 -45.953125 35.203125 -44.921875 C 33.472656 -43.898438 32.117188 -42.476562 31.140625 -40.65625 C 30.160156 -38.84375 29.671875 -36.722656 29.671875 -34.296875 C 29.671875 -31.960938 30.160156 -29.882812 31.140625 -28.0625 C 32.117188 -26.25 33.472656 -24.847656 35.203125 -23.859375 C 36.929688 -22.878906 38.914062 -22.390625 41.15625 -22.390625 Z M 41.15625 -22.390625 "/></g></g></g><g fill="#3d3bf3" fill-opacity="1"><g transform="translate(990.784575, 456.374997)"><g><path d="M 41.296875 1.6875 C 33.734375 1.6875 26.988281 0.125 21.0625 -3 C 15.132812 -6.132812 10.46875 -10.453125 7.0625 -15.953125 C 3.65625 -21.460938 1.953125 -27.671875 1.953125 -34.578125 C 1.953125 -41.484375 3.628906 -47.640625 6.984375 -53.046875 C 10.347656 -58.460938 14.992188 -62.734375 20.921875 -65.859375 C 26.847656 -68.984375 33.59375 -70.546875 41.15625 -70.546875 C 48.71875 -70.546875 55.4375 -68.984375 61.3125 -65.859375 C 67.1875 -62.734375 71.828125 -58.460938 75.234375 -53.046875 C 78.640625 -47.640625 80.34375 -41.484375 80.34375 -34.578125 C 80.34375 -27.671875 78.660156 -21.460938 75.296875 -15.953125 C 71.941406 -10.453125 67.328125 -6.132812 61.453125 -3 C 55.578125 0.125 48.859375 1.6875 41.296875 1.6875 Z M 41.15625 -22.390625 C 43.488281 -22.390625 45.515625 -22.878906 47.234375 -23.859375 C 48.960938 -24.847656 50.296875 -26.25 51.234375 -28.0625 C 52.171875 -29.882812 52.640625 -32.007812 52.640625 -34.4375 C 52.640625 -36.863281 52.144531 -38.984375 51.15625 -40.796875 C 50.175781 -42.617188 48.847656 -44.019531 47.171875 -45 C 45.492188 -45.976562 43.488281 -46.46875 41.15625 -46.46875 C 38.914062 -46.46875 36.929688 -45.953125 35.203125 -44.921875 C 33.472656 -43.898438 32.117188 -42.476562 31.140625 -40.65625 C 30.160156 -38.84375 29.671875 -36.722656 29.671875 -34.296875 C 29.671875 -31.960938 30.160156 -29.882812 31.140625 -28.0625 C 32.117188 -26.25 33.472656 -24.847656 35.203125 -23.859375 C 36.929688 -22.878906 38.914062 -22.390625 41.15625 -22.390625 Z M 41.15625 -22.390625 "/></g></g></g><g fill="#3d3bf3" fill-opacity="1"><g transform="translate(1073.093134, 456.374997)"><g><path d="M 6.578125 0 L 6.578125 -102.46875 L 34.015625 -102.46875 L 34.015625 0 Z M 6.578125 0 "/></g></g></g><g fill="#3d3bf3" fill-opacity="1"><g transform="translate(1113.6875, 456.374997)"><g><path d="M 34.015625 2.09375 C 29.722656 2.09375 25.429688 1.53125 21.140625 0.40625 C 16.847656 -0.707031 12.859375 -2.242188 9.171875 -4.203125 C 5.484375 -6.160156 2.378906 -8.398438 -0.140625 -10.921875 L 14.28125 -25.75 C 16.519531 -23.507812 19.203125 -21.738281 22.328125 -20.4375 C 25.453125 -19.132812 28.742188 -18.484375 32.203125 -18.484375 C 33.785156 -18.484375 35.019531 -18.691406 35.90625 -19.109375 C 36.789062 -19.523438 37.234375 -20.109375 37.234375 -20.859375 C 37.234375 -22.160156 36.460938 -23.140625 34.921875 -23.796875 C 33.378906 -24.453125 31.421875 -25.054688 29.046875 -25.609375 C 26.671875 -26.171875 24.148438 -26.894531 21.484375 -27.78125 C 18.828125 -28.664062 16.285156 -29.878906 13.859375 -31.421875 C 11.429688 -32.960938 9.46875 -35.109375 7.96875 -37.859375 C 6.476562 -40.617188 5.734375 -44.144531 5.734375 -48.4375 C 5.734375 -52.820312 6.96875 -56.71875 9.4375 -60.125 C 11.914062 -63.53125 15.414062 -66.234375 19.9375 -68.234375 C 24.46875 -70.242188 29.722656 -71.25 35.703125 -71.25 C 41.765625 -71.25 47.640625 -70.222656 53.328125 -68.171875 C 59.023438 -66.117188 63.550781 -63.039062 66.90625 -58.9375 L 52.359375 -44.09375 C 50.023438 -46.707031 47.457031 -48.457031 44.65625 -49.34375 C 41.851562 -50.226562 39.519531 -50.671875 37.65625 -50.671875 C 35.882812 -50.671875 34.644531 -50.414062 33.9375 -49.90625 C 33.238281 -49.394531 32.890625 -48.765625 32.890625 -48.015625 C 32.890625 -46.984375 33.632812 -46.140625 35.125 -45.484375 C 36.625 -44.835938 38.5625 -44.234375 40.9375 -43.671875 C 43.320312 -43.109375 45.820312 -42.359375 48.4375 -41.421875 C 51.050781 -40.492188 53.546875 -39.191406 55.921875 -37.515625 C 58.304688 -35.835938 60.242188 -33.617188 61.734375 -30.859375 C 63.222656 -28.109375 63.96875 -24.539062 63.96875 -20.15625 C 63.96875 -13.34375 61.257812 -7.929688 55.84375 -3.921875 C 50.4375 0.0859375 43.160156 2.09375 34.015625 2.09375 Z M 34.015625 2.09375 "/></g></g></g></svg>