<svg xmlns="http://www.w3.org/2000/svg" xmlns:xlink="http://www.w3.org/1999/xlink" width="1920" zoomAndPan="magnify" viewBox="0 0 1440 809.999993" height="1080" preserveAspectRatio="xMidYMid meet" version="1.0"><defs><g/><clipPath id="b14399130f"><path d="M 471 278 L 556 278 L 556 362.9375 L 471 362.9375 Z M 471 278 " clip-rule="nonzero"/></clipPath><clipPath id="105a843b5f"><path d="M 471 299 L 514 299 L 514 362.9375 L 471 362.9375 Z M 471 299 " clip-rule="nonzero"/></clipPath><clipPath id="4d2a5f5819"><path d="M 513 299 L 556 299 L 556 362.9375 L 513 362.9375 Z M 513 299 " clip-rule="nonzero"/></clipPath><clipPath id="a508c3ea76"><path d="M 457.492188 299 L 514 299 L 514 335 L 457.492188 335 Z M 457.492188 299 " clip-rule="nonzero"/></clipPath><clipPath id="4da3178435"><path d="M 513 299 L 569.242188 299 L 569.242188 335 L 513 335 Z M 513 299 " clip-rule="nonzero"/></clipPath><clipPath id="6ff5321e63"><path d="M 513 265 L 569.242188 265 L 569.242188 300 L 513 300 Z M 513 265 " clip-rule="nonzero"/></clipPath><clipPath id="743e32b247"><path d="M 457.492188 262.4375 L 514 262.4375 L 514 300 L 457.492188 300 Z M 457.492188 262.4375 " clip-rule="nonzero"/></clipPath><clipPath id="cd7ace7911"><path d="M 471 522 L 556 522 L 556 607.269531 L 471 607.269531 Z M 471 522 " clip-rule="nonzero"/></clipPath><clipPath id="0033d42d2e"><path d="M 471 543 L 514 543 L 514 607.269531 L 471 607.269531 Z M 471 543 " clip-rule="nonzero"/></clipPath><clipPath id="78b783e520"><path d="M 513 543 L 556 543 L 556 607.269531 L 513 607.269531 Z M 513 543 " clip-rule="nonzero"/></clipPath><clipPath id="cb66e3c2e5"><path d="M 457.492188 543 L 514 543 L 514 579 L 457.492188 579 Z M 457.492188 543 " clip-rule="nonzero"/></clipPath><clipPath id="2c4f650ca5"><path d="M 513 543 L 569.242188 543 L 569.242188 579 L 513 579 Z M 513 543 " clip-rule="nonzero"/></clipPath><clipPath id="50c3d8a7ee"><path d="M 513 509 L 569.242188 509 L 569.242188 544 L 513 544 Z M 513 509 " clip-rule="nonzero"/></clipPath><clipPath id="a74c76ef08"><path d="M 457.492188 506.769531 L 514 506.769531 L 514 544 L 457.492188 544 Z M 457.492188 506.769531 " clip-rule="nonzero"/></clipPath><clipPath id="112c80b9ea"><path d="M 471 400 L 556 400 L 556 485.101562 L 471 485.101562 Z M 471 400 " clip-rule="nonzero"/></clipPath><clipPath id="698d2f653d"><path d="M 471 421 L 514 421 L 514 485.101562 L 471 485.101562 Z M 471 421 " clip-rule="nonzero"/></clipPath><clipPath id="82791335c1"><path d="M 513 421 L 556 421 L 556 485.101562 L 513 485.101562 Z M 513 421 " clip-rule="nonzero"/></clipPath><clipPath id="c24503759f"><path d="M 457.492188 421 L 514 421 L 514 457 L 457.492188 457 Z M 457.492188 421 " clip-rule="nonzero"/></clipPath><clipPath id="9328f73c12"><path d="M 513 421 L 569.242188 421 L 569.242188 457 L 513 457 Z M 513 421 " clip-rule="nonzero"/></clipPath><clipPath id="cc54b7d0f6"><path d="M 513 387 L 569.242188 387 L 569.242188 422 L 513 422 Z M 513 387 " clip-rule="nonzero"/></clipPath><clipPath id="bfbf2834b8"><path d="M 457.492188 384.605469 L 514 384.605469 L 514 422 L 457.492188 422 Z M 457.492188 384.605469 " clip-rule="nonzero"/></clipPath><clipPath id="e01460e769"><path d="M 634.550781 251.523438 L 707.242188 251.523438 L 707.242188 603.972656 L 634.550781 603.972656 Z M 634.550781 251.523438 " clip-rule="nonzero"/></clipPath><clipPath id="1d0f6932c2"><path d="M 778.132812 351.960938 L 907.882812 351.960938 L 907.882812 485.261719 L 778.132812 485.261719 Z M 778.132812 351.960938 " clip-rule="nonzero"/></clipPath></defs><rect x="-144" width="1728" fill="#ffffff" y="-80.999999" height="971.999992" fill-opacity="1"/><rect x="-144" width="1728" fill="#1d63ed" y="-80.999999" height="971.999992" fill-opacity="1"/><g clip-path="url(#b14399130f)"><path fill="#d29a4c" d="M 471.484375 299.253906 L 471.484375 341.707031 L 513.367188 362.933594 L 555.25 341.707031 L 555.25 299.253906 L 513.367188 278.027344 L 471.484375 299.253906 " fill-opacity="1" fill-rule="nonzero"/></g><g clip-path="url(#105a843b5f)"><path fill="#b06e36" d="M 471.484375 299.253906 L 471.484375 341.707031 L 513.367188 362.933594 L 513.367188 320.480469 L 471.484375 299.253906 " fill-opacity="1" fill-rule="nonzero"/></g><path fill="#d29a4c" d="M 471.484375 299.253906 L 513.367188 278.027344 L 555.25 299.253906 L 513.367188 320.480469 L 471.484375 299.253906 " fill-opacity="1" fill-rule="nonzero"/><g clip-path="url(#4d2a5f5819)"><path fill="#d69b4b" d="M 555.25 299.253906 L 555.25 341.707031 L 513.367188 362.933594 L 513.367188 320.480469 L 555.25 299.253906 " fill-opacity="1" fill-rule="nonzero"/></g><g clip-path="url(#a508c3ea76)"><path fill="#e6bb7c" d="M 471.484375 299.253906 L 457.527344 313.40625 L 499.40625 334.632812 L 513.367188 320.480469 L 471.484375 299.253906 " fill-opacity="1" fill-rule="nonzero"/></g><g clip-path="url(#4da3178435)"><path fill="#e6bb7c" d="M 513.367188 320.480469 L 527.328125 334.632812 L 569.210938 313.40625 L 555.25 299.253906 L 513.367188 320.480469 " fill-opacity="1" fill-rule="nonzero"/></g><g clip-path="url(#6ff5321e63)"><path fill="#e4b771" d="M 513.367188 278.027344 L 527.328125 265.308594 L 569.210938 286.535156 L 555.25 299.253906 L 513.367188 278.027344 " fill-opacity="1" fill-rule="nonzero"/></g><g clip-path="url(#743e32b247)"><path fill="#e4b771" d="M 471.484375 299.253906 L 457.527344 283.667969 L 499.40625 262.441406 L 513.367188 278.027344 L 471.484375 299.253906 " fill-opacity="1" fill-rule="nonzero"/></g><path fill="#9f592c" d="M 513.367188 278.027344 L 513.367188 320.480469 L 555.25 299.253906 L 513.367188 278.027344 " fill-opacity="1" fill-rule="nonzero"/><g clip-path="url(#cd7ace7911)"><path fill="#d29a4c" d="M 471.484375 543.585938 L 471.484375 586.039062 L 513.367188 607.265625 L 555.25 586.039062 L 555.25 543.585938 L 513.367188 522.359375 L 471.484375 543.585938 " fill-opacity="1" fill-rule="nonzero"/></g><g clip-path="url(#0033d42d2e)"><path fill="#b06e36" d="M 471.484375 543.585938 L 471.484375 586.039062 L 513.367188 607.265625 L 513.367188 564.8125 L 471.484375 543.585938 " fill-opacity="1" fill-rule="nonzero"/></g><path fill="#d29a4c" d="M 471.484375 543.585938 L 513.367188 522.359375 L 555.25 543.585938 L 513.367188 564.8125 L 471.484375 543.585938 " fill-opacity="1" fill-rule="nonzero"/><g clip-path="url(#78b783e520)"><path fill="#d69b4b" d="M 555.25 543.585938 L 555.25 586.039062 L 513.367188 607.265625 L 513.367188 564.8125 L 555.25 543.585938 " fill-opacity="1" fill-rule="nonzero"/></g><g clip-path="url(#cb66e3c2e5)"><path fill="#e6bb7c" d="M 471.484375 543.585938 L 457.527344 557.734375 L 499.40625 578.960938 L 513.367188 564.8125 L 471.484375 543.585938 " fill-opacity="1" fill-rule="nonzero"/></g><g clip-path="url(#2c4f650ca5)"><path fill="#e6bb7c" d="M 513.367188 564.8125 L 527.328125 578.960938 L 569.210938 557.734375 L 555.25 543.585938 L 513.367188 564.8125 " fill-opacity="1" fill-rule="nonzero"/></g><g clip-path="url(#50c3d8a7ee)"><path fill="#e4b771" d="M 513.367188 522.359375 L 527.328125 509.640625 L 569.210938 530.867188 L 555.25 543.585938 L 513.367188 522.359375 " fill-opacity="1" fill-rule="nonzero"/></g><g clip-path="url(#a74c76ef08)"><path fill="#e4b771" d="M 471.484375 543.585938 L 457.527344 528 L 499.40625 506.773438 L 513.367188 522.359375 L 471.484375 543.585938 " fill-opacity="1" fill-rule="nonzero"/></g><path fill="#9f592c" d="M 513.367188 522.359375 L 513.367188 564.8125 L 555.25 543.585938 L 513.367188 522.359375 " fill-opacity="1" fill-rule="nonzero"/><g clip-path="url(#112c80b9ea)"><path fill="#d29a4c" d="M 471.484375 421.417969 L 471.484375 463.875 L 513.367188 485.101562 L 555.25 463.875 L 555.25 421.417969 L 513.367188 400.191406 L 471.484375 421.417969 " fill-opacity="1" fill-rule="nonzero"/></g><g clip-path="url(#698d2f653d)"><path fill="#b06e36" d="M 471.484375 421.417969 L 471.484375 463.875 L 513.367188 485.101562 L 513.367188 442.644531 L 471.484375 421.417969 " fill-opacity="1" fill-rule="nonzero"/></g><path fill="#d29a4c" d="M 471.484375 421.417969 L 513.367188 400.191406 L 555.25 421.417969 L 513.367188 442.644531 L 471.484375 421.417969 " fill-opacity="1" fill-rule="nonzero"/><g clip-path="url(#82791335c1)"><path fill="#d69b4b" d="M 555.25 421.417969 L 555.25 463.875 L 513.367188 485.101562 L 513.367188 442.644531 L 555.25 421.417969 " fill-opacity="1" fill-rule="nonzero"/></g><g clip-path="url(#c24503759f)"><path fill="#e6bb7c" d="M 471.484375 421.417969 L 457.527344 435.570312 L 499.40625 456.796875 L 513.367188 442.644531 L 471.484375 421.417969 " fill-opacity="1" fill-rule="nonzero"/></g><g clip-path="url(#9328f73c12)"><path fill="#e6bb7c" d="M 513.367188 442.644531 L 527.328125 456.796875 L 569.210938 435.570312 L 555.25 421.417969 L 513.367188 442.644531 " fill-opacity="1" fill-rule="nonzero"/></g><g clip-path="url(#cc54b7d0f6)"><path fill="#e4b771" d="M 513.367188 400.191406 L 527.328125 387.476562 L 569.210938 408.703125 L 555.25 421.417969 L 513.367188 400.191406 " fill-opacity="1" fill-rule="nonzero"/></g><g clip-path="url(#bfbf2834b8)"><path fill="#e4b771" d="M 471.484375 421.417969 L 457.527344 405.832031 L 499.40625 384.605469 L 513.367188 400.191406 L 471.484375 421.417969 " fill-opacity="1" fill-rule="nonzero"/></g><path fill="#9f592c" d="M 513.367188 400.191406 L 513.367188 442.644531 L 555.25 421.417969 L 513.367188 400.191406 " fill-opacity="1" fill-rule="nonzero"/><g clip-path="url(#e01460e769)"><path fill="#000000" d="M 707.300781 423.652344 L 703.402344 423.652344 C 680 423.652344 676.527344 411.078125 676.527344 386.359375 C 676.527344 358.183594 677.824219 333.910156 677.824219 304.433594 C 677.824219 257.1875 657.878906 251.542969 636.203125 251.542969 L 634.472656 251.542969 L 634.472656 258.914062 L 635.328125 258.914062 C 654.402344 258.914062 670.453125 261.515625 670.453125 303.5625 C 670.453125 331.308594 669.152344 358.183594 669.152344 385.058594 C 669.152344 413.679688 673.480469 424.078125 688.652344 427.550781 C 676.097656 432.753906 669.152344 437.953125 669.152344 470.453125 C 669.152344 492.574219 670.453125 532.875 670.453125 561.070312 C 670.453125 595.742188 650.949219 596.597656 636.203125 596.597656 L 634.472656 596.597656 L 634.472656 603.972656 L 636.203125 603.972656 C 657.003906 603.972656 677.824219 600.945312 677.824219 558.46875 C 677.824219 529.421875 676.527344 491.273438 676.527344 468.726562 C 676.527344 447.054688 680.425781 431.453125 703.402344 431.453125 L 707.300781 431.453125 L 707.300781 423.652344 " fill-opacity="1" fill-rule="nonzero"/></g><path fill="#080405" d="M 892.847656 333.039062 C 892.027344 333.816406 892.507812 335.101562 894.179688 336.796875 C 895 337.578125 896.703125 339.773438 897.988281 341.589844 C 900.488281 345.179688 902.746094 347.550781 903.3125 347.242188 C 904 346.945312 904 344.148438 903.367188 342.359375 C 903.015625 341.417969 901.90625 339.453125 900.863281 338.027344 C 897.746094 333.675781 894.355469 331.554688 892.847656 333.039062 " fill-opacity="1" fill-rule="evenodd"/><path fill="#080405" d="M 873.652344 333.335938 C 872.511719 333.628906 871.972656 334.886719 872.425781 336.042969 C 872.621094 336.558594 874.101562 337.699219 875.644531 338.640625 C 880.980469 341.785156 886.015625 346.625 892.863281 355.355469 C 898.265625 362.207031 899.121094 362.625 897.933594 357.898438 C 896.855469 353.675781 894.75 349.46875 892.144531 346.484375 C 885.699219 339.035156 876.605469 332.578125 873.652344 333.335938 " fill-opacity="1" fill-rule="evenodd"/><path fill="#fce095" d="M 855.457031 424.097656 C 853.4375 427.339844 848.960938 430.941406 845.332031 432.285156 C 842.769531 433.25 842.398438 433.253906 839.375 432.734375 C 834.253906 431.871094 829.855469 428.78125 827.820312 424.664062 C 826.5625 422.191406 825.734375 417.914062 825.988281 415.472656 C 826.226562 413.199219 827.503906 409.59375 828.820312 407.59375 C 830.964844 404.324219 834.996094 401.5 838.953125 400.515625 C 841.015625 400.03125 842.558594 400.191406 845.808594 401.3125 C 849.414062 402.550781 851.765625 403.621094 853.246094 404.761719 C 858.410156 408.75 859.4375 417.816406 855.457031 424.097656 Z M 861.519531 406.898438 C 858.828125 401.605469 855.503906 398.460938 850.40625 396.574219 C 842.511719 393.570312 834.210938 394.84375 828.011719 399.988281 C 823.65625 403.601562 820.472656 409.308594 819.925781 414.59375 C 819.667969 417.074219 820.335938 421.292969 821.414062 423.953125 C 825.4375 433.785156 836.152344 439.628906 846.386719 437.535156 C 852.542969 436.328125 856.691406 433.554688 859.835938 428.582031 C 862.382812 424.617188 863.171875 422.152344 863.40625 417.53125 C 863.679688 412.917969 863.214844 410.320312 861.519531 406.898438 " fill-opacity="1" fill-rule="nonzero"/><path fill="#ccbfb9" d="M 862.746094 430.570312 C 859.492188 435.039062 852.363281 439.636719 847.203125 440.699219 C 830.527344 444.015625 816.234375 430.726562 817.984375 413.527344 C 818.339844 410.113281 820.039062 405.238281 821.820312 402.710938 C 825.789062 396.878906 832.621094 392.785156 839.554688 391.988281 C 845.074219 391.414062 850.207031 392.566406 855.34375 395.652344 C 857.660156 397.042969 858.898438 398.160156 861.257812 401.117188 C 864.597656 405.289062 866.355469 409.292969 866.992188 414.25 C 867.644531 419.414062 865.851562 426.375 862.746094 430.570312 Z M 861.71875 476.691406 C 863.058594 476.832031 874.65625 472.25 874.734375 471.515625 C 874.75 471.355469 874.066406 470.050781 873.179688 468.683594 C 868.683594 461.433594 867.960938 453.386719 871.25 447.8125 C 872.601562 445.488281 875.136719 443.988281 878.652344 443.328125 C 882.421875 442.609375 883.617188 442.941406 894.953125 447.578125 C 895.816406 447.953125 897.878906 444.71875 900.191406 439.453125 C 901.964844 435.445312 901.976562 434.914062 900.277344 434.695312 C 899.425781 434.605469 894.496094 432.285156 892.878906 431.253906 C 890.996094 430.027344 887.390625 425.625 886.574219 423.609375 C 885.5625 421.121094 886.089844 416.449219 887.617188 414.019531 C 890.03125 410.121094 894.976562 406.773438 903.027344 403.546875 C 903.539062 403.355469 899.613281 392.21875 897.605469 388.230469 L 896.382812 385.800781 L 894.097656 387.246094 C 889.527344 390.140625 884.8125 391.289062 879.652344 390.792969 C 875.753906 390.386719 874.710938 389.785156 872.375 386.582031 C 869.644531 382.84375 869.699219 378.371094 872.507812 370.734375 C 873.46875 368.203125 874.183594 366.058594 874.148438 366.015625 C 873.292969 365.144531 863.429688 360.171875 862.292969 360.054688 C 862.210938 360.042969 862.09375 360.402344 862.046875 360.847656 C 861.890625 362.351562 859.511719 366.664062 857.5 369.042969 C 851.730469 375.960938 847.6875 377.347656 840.945312 374.710938 C 837.355469 373.308594 837.015625 373.027344 834.714844 369.910156 C 833.207031 367.824219 832.371094 366.007812 831.074219 361.929688 L 829.367188 356.613281 L 825.140625 358.1875 C 821.898438 359.371094 811.800781 363.738281 810.871094 364.382812 C 810.785156 364.414062 811.144531 365.722656 811.71875 367.304688 C 814.070312 373.878906 814.871094 380.371094 813.742188 383.335938 C 812.890625 385.589844 809.820312 387.898438 805.894531 389.339844 C 801.714844 390.832031 796.71875 390.722656 792.429688 388.960938 C 790.421875 388.175781 789.578125 387.964844 789.339844 388.308594 C 788.816406 388.992188 785.390625 396.277344 784.21875 399.238281 L 783.160156 401.921875 L 785.167969 402.746094 C 786.269531 403.191406 787.378906 403.59375 787.660156 403.625 C 789 403.765625 794.566406 407.878906 796.195312 409.9375 C 798.773438 413.167969 799.519531 415.464844 799.144531 419.082031 C 798.839844 421.597656 798.558594 422.347656 796.988281 424.816406 C 795.964844 426.351562 794.4375 428.410156 793.601562 429.351562 C 792.121094 430.964844 786.644531 435.074219 783.765625 436.707031 L 782.539062 437.441406 L 783.164062 439.316406 C 783.785156 441.230469 789.203125 450.710938 789.824219 451.023438 C 790.019531 451.125 791.390625 450.570312 792.863281 449.820312 C 797.070312 447.671875 803.972656 445.226562 806.582031 444.964844 C 808.617188 444.765625 809.261719 444.875 811.1875 445.691406 C 814.128906 446.984375 816.660156 449.878906 818.039062 453.597656 C 818.992188 456.246094 819.035156 456.621094 818.570312 461.09375 C 818.113281 465.480469 817.976562 466 816.097656 469.875 C 815 472.144531 813.957031 474.253906 813.839844 474.609375 C 813.625 475.082031 814.316406 475.523438 816.949219 476.660156 C 821.070312 478.445312 826.910156 480.332031 827.269531 480 C 827.445312 479.894531 828.214844 477.632812 829.019531 475.042969 C 831.3125 467.597656 833.40625 464.039062 837.089844 461.382812 C 840.238281 459.121094 841.539062 458.847656 845.820312 459.5 C 849.777344 460.117188 851.8125 461.070312 854.863281 463.691406 C 856.863281 465.378906 859.511719 470.296875 860.546875 474.144531 C 860.894531 475.539062 861.433594 476.660156 861.71875 476.691406 " fill-opacity="1" fill-rule="nonzero"/><g clip-path="url(#1d0f6932c2)"><path fill="#120f06" d="M 854.863281 463.691406 C 851.8125 461.070312 849.777344 460.117188 845.820312 459.5 C 841.539062 458.847656 840.238281 459.121094 837.089844 461.382812 C 833.40625 464.039062 831.3125 467.597656 829.019531 475.042969 C 828.214844 477.632812 827.445312 479.894531 827.269531 480 C 826.910156 480.332031 821.070312 478.445312 816.949219 476.660156 C 814.316406 475.523438 813.625 475.082031 813.839844 474.609375 C 813.957031 474.253906 815 472.144531 816.097656 469.875 C 817.976562 466 818.113281 465.480469 818.570312 461.09375 C 819.035156 456.621094 818.992188 456.246094 818.039062 453.597656 C 816.660156 449.878906 814.128906 446.984375 811.1875 445.691406 C 809.261719 444.875 808.617188 444.765625 806.582031 444.964844 C 803.972656 445.226562 797.070312 447.671875 792.863281 449.820312 C 791.390625 450.570312 790.019531 451.125 789.824219 451.023438 C 789.203125 450.710938 783.785156 441.230469 783.164062 439.316406 L 782.539062 437.441406 L 783.765625 436.707031 C 786.644531 435.074219 792.121094 430.964844 793.601562 429.351562 C 794.4375 428.410156 795.964844 426.351562 796.988281 424.816406 C 798.558594 422.347656 798.839844 421.597656 799.144531 419.082031 C 799.519531 415.464844 798.773438 413.167969 796.195312 409.9375 C 794.566406 407.878906 789 403.765625 787.660156 403.625 C 787.378906 403.59375 786.269531 403.191406 785.167969 402.746094 L 783.160156 401.921875 L 784.21875 399.238281 C 785.390625 396.277344 788.816406 388.992188 789.339844 388.308594 C 789.578125 387.964844 790.421875 388.175781 792.429688 388.960938 C 796.71875 390.722656 801.714844 390.832031 805.894531 389.339844 C 809.820312 387.898438 812.890625 385.589844 813.742188 383.335938 C 814.871094 380.371094 814.070312 373.878906 811.71875 367.304688 C 811.144531 365.722656 810.785156 364.414062 810.871094 364.382812 C 811.800781 363.738281 821.898438 359.371094 825.140625 358.1875 L 829.367188 356.613281 L 831.074219 361.929688 C 832.371094 366.007812 833.207031 367.824219 834.714844 369.910156 C 837.015625 373.027344 837.355469 373.308594 840.945312 374.710938 C 847.6875 377.347656 851.730469 375.960938 857.5 369.042969 C 859.511719 366.664062 861.890625 362.351562 862.046875 360.847656 C 862.09375 360.402344 862.210938 360.042969 862.292969 360.054688 C 863.429688 360.171875 873.292969 365.144531 874.148438 366.015625 C 874.183594 366.058594 873.46875 368.203125 872.507812 370.734375 C 869.699219 378.371094 869.644531 382.84375 872.375 386.582031 C 874.710938 389.785156 875.753906 390.386719 879.652344 390.792969 C 884.8125 391.289062 889.527344 390.140625 894.097656 387.246094 L 896.382812 385.800781 L 897.605469 388.230469 C 899.613281 392.21875 903.539062 403.355469 903.027344 403.546875 C 894.976562 406.773438 890.03125 410.121094 887.617188 414.019531 C 886.089844 416.449219 885.5625 421.121094 886.574219 423.609375 C 887.390625 425.625 890.996094 430.027344 892.878906 431.253906 C 894.496094 432.285156 899.425781 434.605469 900.277344 434.695312 C 901.976562 434.914062 901.964844 435.445312 900.191406 439.453125 C 897.878906 444.71875 895.816406 447.953125 894.953125 447.578125 C 883.617188 442.941406 882.421875 442.609375 878.652344 443.328125 C 875.136719 443.988281 872.601562 445.488281 871.25 447.8125 C 867.960938 453.386719 868.683594 461.433594 873.179688 468.683594 C 874.066406 470.050781 874.75 471.355469 874.734375 471.515625 C 874.65625 472.25 863.058594 476.832031 861.71875 476.691406 C 861.433594 476.660156 860.894531 475.539062 860.546875 474.144531 C 859.511719 470.296875 856.863281 465.378906 854.863281 463.691406 Z M 863.234375 481.042969 C 868.230469 479.960938 876.449219 476.710938 878.214844 475.128906 C 880.527344 473.027344 880.761719 471.160156 878.953125 468.425781 C 875.523438 463.136719 874.007812 458.375 874.441406 454.226562 C 874.761719 451.136719 875.527344 450.109375 878.359375 448.925781 C 880.117188 448.203125 880.53125 448.167969 884.6875 448.847656 C 887.1875 449.269531 890.429688 450.0625 892.082031 450.726562 C 896.890625 452.628906 897.132812 452.652344 898.421875 451.71875 C 900.382812 450.238281 903.34375 445.042969 905.1875 439.976562 C 907.667969 433.082031 907.410156 432.398438 901.9375 430.183594 C 896.742188 428.039062 894.589844 426.664062 892.714844 424.167969 C 888.535156 418.59375 891.160156 414.675781 903.625 407.679688 C 907.675781 405.429688 908.097656 404.898438 907.8125 402.527344 C 907.335938 398.449219 904.398438 390.007812 901.785156 385.132812 C 898.96875 379.867188 897.257812 379.359375 892.738281 382.542969 C 889.332031 384.941406 883.914062 386.511719 880.175781 386.164062 C 878.914062 386.03125 878.378906 385.6875 877.25 384.296875 C 876.085938 382.859375 875.867188 382.21875 875.679688 379.652344 C 875.484375 376.429688 875.542969 376.269531 877.835938 369.605469 C 879.585938 364.609375 879.570312 363.992188 877.34375 362.117188 C 873.875 359.164062 864.007812 355.011719 860.953125 355.1875 C 859.011719 355.3125 858.558594 355.71875 857.847656 358.191406 C 856.535156 362.535156 854.242188 366.03125 850.769531 369.039062 C 849.054688 370.546875 847.421875 371.238281 845.917969 371.082031 C 843.765625 370.855469 840.519531 369.324219 839.460938 368.0625 C 838.398438 366.84375 835.070312 358.238281 834.378906 355 C 834.015625 353.359375 832.886719 352.011719 831.78125 351.976562 C 831.457031 351.941406 829.875 352.148438 828.285156 352.433594 C 824.773438 353.054688 814.410156 356.820312 810.585938 358.84375 C 807.285156 360.597656 806 361.898438 805.867188 363.570312 C 805.796875 364.261719 806.402344 366.707031 807.152344 368.964844 C 810.480469 378.804688 809.996094 381.875 804.753906 384.125 C 802.089844 385.285156 798.585938 385.410156 794.335938 384.472656 C 792.691406 384.097656 790.433594 383.695312 789.34375 383.542969 C 787.484375 383.265625 787.269531 383.367188 786.289062 384.496094 C 784.277344 386.875 779.316406 397.453125 778.363281 401.503906 C 777.707031 404.230469 778.632812 405.1875 783.386719 406.835938 C 789.921875 409.121094 793.066406 411.625 794 415.257812 C 794.824219 418.382812 794.417969 420.3125 792.253906 423.746094 C 790.675781 426.292969 788.050781 428.648438 780.804688 434.011719 C 778.625 435.636719 778.292969 436.050781 778.148438 437.433594 C 777.949219 439.347656 779.714844 443.679688 782.847656 449.0625 C 785.636719 453.789062 787.722656 456.226562 789.144531 456.375 C 789.753906 456.441406 791.59375 455.726562 793.511719 454.652344 C 801.871094 450.019531 807.28125 448.902344 810.210938 451.136719 C 812.753906 453.089844 814.25 457.269531 813.828125 461.296875 C 813.535156 464.140625 812.019531 468.832031 810.195312 472.542969 C 808.933594 475.207031 808.800781 475.6875 809.132812 476.832031 C 809.351562 477.511719 809.765625 478.253906 810.035156 478.402344 C 820.78125 484.375 828.789062 486.691406 831.125 484.386719 C 831.441406 484.089844 832.25 481.832031 832.917969 479.355469 C 835.214844 471.089844 837.289062 467.359375 840.792969 465.21875 C 842.195312 464.378906 842.78125 464.277344 844.722656 464.519531 C 850.269531 465.265625 853.632812 468.820312 856.851562 477.332031 C 857.589844 479.300781 858.191406 480.226562 859.195312 480.824219 C 860.429688 481.570312 860.632812 481.59375 863.234375 481.042969 " fill-opacity="1" fill-rule="nonzero"/></g><path fill="#120f06" d="M 859.835938 428.582031 C 856.691406 433.554688 852.542969 436.328125 846.386719 437.535156 C 836.152344 439.628906 825.4375 433.785156 821.414062 423.953125 C 820.335938 421.292969 819.667969 417.074219 819.925781 414.59375 C 820.472656 409.308594 823.65625 403.601562 828.011719 399.988281 C 834.210938 394.84375 842.511719 393.570312 850.40625 396.574219 C 855.503906 398.460938 858.828125 401.605469 861.519531 406.898438 C 863.214844 410.320312 863.679688 412.917969 863.40625 417.53125 C 863.171875 422.152344 862.382812 424.617188 859.835938 428.582031 Z M 861.257812 401.117188 C 858.898438 398.160156 857.660156 397.042969 855.34375 395.652344 C 850.207031 392.566406 845.074219 391.414062 839.554688 391.988281 C 832.621094 392.785156 825.789062 396.878906 821.820312 402.710938 C 820.039062 405.238281 818.339844 410.113281 817.984375 413.527344 C 816.234375 430.726562 830.527344 444.015625 847.203125 440.699219 C 852.363281 439.636719 859.492188 435.039062 862.746094 430.570312 C 865.851562 426.375 867.644531 419.414062 866.992188 414.25 C 866.355469 409.292969 864.597656 405.289062 861.257812 401.117188 " fill-opacity="1" fill-rule="nonzero"/><path fill="#120f06" d="M 851.289062 421.199219 C 849.140625 424.878906 844.257812 428.023438 841.253906 427.710938 C 837.394531 427.308594 833.277344 424.289062 831.875 420.8125 C 830.832031 418.238281 831.433594 412.839844 832.992188 410.492188 C 835.277344 407.074219 839.28125 404.492188 841.878906 404.765625 C 842.445312 404.824219 844.261719 405.507812 845.949219 406.257812 C 849.59375 407.914062 851.046875 409.339844 852.019531 412.191406 C 852.96875 414.921875 852.636719 418.871094 851.289062 421.199219 Z M 853.246094 404.761719 C 851.765625 403.621094 849.414062 402.550781 845.808594 401.3125 C 842.558594 400.191406 841.015625 400.03125 838.953125 400.515625 C 834.996094 401.5 830.964844 404.324219 828.820312 407.59375 C 827.503906 409.59375 826.226562 413.199219 825.988281 415.472656 C 825.734375 417.914062 826.5625 422.191406 827.820312 424.664062 C 829.855469 428.78125 834.253906 431.871094 839.375 432.734375 C 842.398438 433.253906 842.769531 433.25 845.332031 432.285156 C 848.960938 430.941406 853.4375 427.339844 855.457031 424.097656 C 859.4375 417.816406 858.410156 408.75 853.246094 404.761719 " fill-opacity="1" fill-rule="nonzero"/><path fill="#080405" d="M 823.148438 409.628906 C 822.613281 410.066406 822.339844 411.105469 822.023438 414.15625 C 821.605469 418.140625 821.9375 421.667969 822.925781 423.621094 C 823.707031 425.179688 824.148438 424.855469 823.726562 423.003906 C 822.820312 419.089844 823.121094 411.886719 824.324219 409.792969 C 824.777344 408.980469 824.09375 408.824219 823.148438 409.628906 " fill-opacity="1" fill-rule="evenodd"/><path fill="#080405" d="M 787.542969 394.53125 C 786.613281 395.953125 785.355469 399.765625 785.652344 400.457031 C 785.855469 400.886719 786.011719 400.945312 786.25 400.640625 C 786.671875 400.109375 789.160156 394.742188 789.210938 394.253906 C 789.28125 393.601562 788.070312 393.804688 787.542969 394.53125 " fill-opacity="1" fill-rule="evenodd"/><path fill="#080405" d="M 788.890625 397.753906 C 788.527344 398.085938 788.363281 398.847656 788.472656 399.765625 C 788.585938 401.460938 789.050781 401.714844 789.554688 400.410156 C 790.351562 398.277344 789.941406 396.710938 788.890625 397.753906 " fill-opacity="1" fill-rule="evenodd"/><path fill="#080405" d="M 791.835938 399.417969 C 791.386719 399.78125 791.285156 401.535156 791.691406 401.578125 C 792.015625 401.613281 792.636719 400.363281 792.769531 399.515625 C 792.804688 399.148438 792.238281 399.089844 791.835938 399.417969 " fill-opacity="1" fill-rule="evenodd"/><path fill="#080405" d="M 786.601562 439.015625 C 786.546875 439.542969 789.074219 444.824219 789.839844 445.765625 C 791.109375 447.375 791.015625 446.296875 789.609375 443.644531 C 788.964844 442.34375 788.4375 441.097656 788.46875 440.8125 C 788.527344 440.242188 787.554688 438.953125 786.984375 438.890625 C 786.78125 438.871094 786.609375 438.933594 786.601562 439.015625 " fill-opacity="1" fill-rule="evenodd"/><path fill="#080405" d="M 794.171875 441.203125 C 794.113281 441.773438 795.5625 443.238281 795.914062 442.988281 C 796.054688 442.839844 795.902344 442.328125 795.542969 441.839844 C 794.859375 440.90625 794.230469 440.636719 794.171875 441.203125 " fill-opacity="1" fill-rule="evenodd"/><path fill="#080405" d="M 790.457031 441.390625 C 790.390625 442.042969 793.214844 446.074219 793.316406 445.46875 C 793.363281 445.023438 791.039062 440.957031 790.710938 440.925781 C 790.589844 440.914062 790.484375 441.148438 790.457031 441.390625 " fill-opacity="1" fill-rule="evenodd"/><path fill="#080405" d="M 865.867188 466.03125 C 865.84375 466.234375 866.109375 466.464844 866.433594 466.5 C 866.757812 466.535156 867.0625 466.359375 867.082031 466.15625 C 867.109375 465.914062 866.839844 465.722656 866.515625 465.6875 C 866.191406 465.652344 865.890625 465.785156 865.867188 466.03125 " fill-opacity="1" fill-rule="evenodd"/><path fill="#080405" d="M 867.367188 468.570312 C 866.597656 468.859375 865.933594 469.324219 865.902344 469.609375 C 865.824219 470.382812 866.28125 470.304688 867.777344 469.351562 C 869.40625 468.289062 869.199219 467.898438 867.367188 468.570312 " fill-opacity="1" fill-rule="evenodd"/><path fill="#080405" d="M 866 471.835938 C 862.285156 473.21875 860.875 474.136719 862.175781 474.273438 C 862.90625 474.351562 871.085938 471.054688 871.128906 470.648438 C 871.199219 469.996094 870.230469 470.226562 866 471.835938 " fill-opacity="1" fill-rule="evenodd"/><path fill="#080405" d="M 824.546875 470.304688 C 824.820312 470.824219 826.695312 471.351562 826.976562 471.007812 C 827.113281 470.859375 826.816406 470.582031 826.304688 470.363281 C 825.039062 469.902344 824.34375 469.871094 824.546875 470.304688 " fill-opacity="1" fill-rule="evenodd"/><path fill="#080405" d="M 822.824219 473.453125 C 822.800781 473.65625 823.347656 473.917969 824 473.984375 C 824.6875 474.058594 825.238281 473.910156 825.257812 473.707031 C 825.285156 473.460938 824.773438 473.246094 824.082031 473.171875 C 823.433594 473.105469 822.847656 473.207031 822.824219 473.453125 " fill-opacity="1" fill-rule="evenodd"/><path fill="#080405" d="M 817.175781 474.464844 C 817.34375 474.851562 820.785156 476.074219 824.417969 477.070312 C 825.730469 477.453125 826.28125 476.894531 825.101562 476.402344 C 823.769531 475.8125 818.554688 474.238281 817.785156 474.160156 C 817.335938 474.113281 817.035156 474.246094 817.175781 474.464844 " fill-opacity="1" fill-rule="evenodd"/><g fill="#ffffff" fill-opacity="1"><g transform="translate(412.383345, 101.205484)"><g><path d="M 6.4375 -48.65625 C 6.488281 -49.019531 6.640625 -49.285156 6.890625 -49.453125 C 7.148438 -49.617188 7.394531 -49.703125 7.625 -49.703125 C 10.800781 -49.703125 13.773438 -49.804688 16.546875 -50.015625 C 19.328125 -50.222656 21.507812 -50.328125 23.09375 -50.328125 C 27.0625 -50.328125 30.382812 -49.929688 33.0625 -49.140625 C 35.75 -48.347656 37.921875 -47.109375 39.578125 -45.421875 C 41.234375 -43.742188 42.410156 -41.578125 43.109375 -38.921875 C 43.816406 -36.265625 44.171875 -33.066406 44.171875 -29.328125 C 44.171875 -25.546875 43.785156 -21.847656 43.015625 -18.234375 C 42.242188 -14.617188 40.898438 -11.410156 38.984375 -8.609375 C 37.078125 -5.804688 34.5 -3.550781 31.25 -1.84375 C 28.007812 -0.144531 23.914062 0.703125 18.96875 0.703125 C 16.6875 0.703125 14.597656 0.65625 12.703125 0.5625 C 10.816406 0.46875 9.195312 0.1875 7.84375 -0.28125 C 6.488281 -0.75 5.4375 -1.445312 4.6875 -2.375 C 3.9375 -3.3125 3.5625 -4.597656 3.5625 -6.234375 C 3.5625 -6.835938 3.597656 -7.742188 3.671875 -8.953125 C 3.742188 -10.171875 3.835938 -11.617188 3.953125 -13.296875 C 4.066406 -14.972656 4.207031 -16.828125 4.375 -18.859375 C 4.539062 -20.890625 4.71875 -23.023438 4.90625 -25.265625 C 5.269531 -29.890625 5.554688 -33.578125 5.765625 -36.328125 C 5.984375 -39.078125 6.125 -41.234375 6.1875 -42.796875 C 6.257812 -44.367188 6.304688 -45.550781 6.328125 -46.34375 C 6.359375 -47.132812 6.394531 -47.90625 6.4375 -48.65625 Z M 19.453125 -10.359375 C 22.066406 -10.359375 24.15625 -10.914062 25.71875 -12.03125 C 27.28125 -13.15625 28.484375 -14.582031 29.328125 -16.3125 C 30.171875 -18.039062 30.734375 -19.929688 31.015625 -21.984375 C 31.296875 -24.035156 31.4375 -25.972656 31.4375 -27.796875 C 31.4375 -29.753906 31.304688 -31.46875 31.046875 -32.9375 C 30.785156 -34.40625 30.335938 -35.628906 29.703125 -36.609375 C 29.078125 -37.585938 28.203125 -38.320312 27.078125 -38.8125 C 25.960938 -39.300781 24.566406 -39.546875 22.890625 -39.546875 C 22.378906 -39.546875 21.722656 -39.519531 20.921875 -39.46875 C 20.128906 -39.425781 19.175781 -39.359375 18.0625 -39.265625 C 17.96875 -37.546875 17.847656 -35.503906 17.703125 -33.140625 C 17.566406 -30.785156 17.414062 -28.3125 17.25 -25.71875 C 17.09375 -23.132812 16.921875 -20.523438 16.734375 -17.890625 C 16.546875 -15.253906 16.359375 -12.8125 16.171875 -10.5625 C 16.867188 -10.476562 17.5 -10.421875 18.0625 -10.390625 C 18.625 -10.367188 19.085938 -10.359375 19.453125 -10.359375 Z M 19.453125 -10.359375 "/></g></g></g><g fill="#ffffff" fill-opacity="1"><g transform="translate(459.000794, 101.205484)"><g><path d="M 18.546875 0.703125 C 15.328125 0.703125 12.65625 0.25 10.53125 -0.65625 C 8.40625 -1.570312 6.710938 -2.820312 5.453125 -4.40625 C 4.191406 -6 3.304688 -7.851562 2.796875 -9.96875 C 2.285156 -12.09375 2.03125 -14.367188 2.03125 -16.796875 C 2.03125 -19.597656 2.367188 -22.335938 3.046875 -25.015625 C 3.722656 -27.703125 4.875 -30.09375 6.5 -32.1875 C 8.132812 -34.289062 10.296875 -35.984375 12.984375 -37.265625 C 15.671875 -38.554688 19.019531 -39.203125 23.03125 -39.203125 C 28.90625 -39.203125 33.113281 -37.765625 35.65625 -34.890625 C 38.207031 -32.023438 39.484375 -28 39.484375 -22.8125 C 39.484375 -21.375 39.375 -19.78125 39.15625 -18.03125 C 38.945312 -16.28125 38.550781 -14.539062 37.96875 -12.8125 C 37.382812 -11.082031 36.59375 -9.398438 35.59375 -7.765625 C 34.59375 -6.128906 33.320312 -4.679688 31.78125 -3.421875 C 30.238281 -2.171875 28.378906 -1.171875 26.203125 -0.421875 C 24.035156 0.328125 21.484375 0.703125 18.546875 0.703125 Z M 21.84375 -29.890625 C 20.070312 -29.890625 18.660156 -29.429688 17.609375 -28.515625 C 16.554688 -27.609375 15.757812 -26.515625 15.21875 -25.234375 C 14.6875 -23.953125 14.335938 -22.597656 14.171875 -21.171875 C 14.015625 -19.753906 13.9375 -18.550781 13.9375 -17.5625 C 13.9375 -14.488281 14.425781 -12.226562 15.40625 -10.78125 C 16.382812 -9.332031 17.78125 -8.609375 19.59375 -8.609375 C 21.226562 -8.609375 22.570312 -9.117188 23.625 -10.140625 C 24.675781 -11.171875 25.492188 -12.410156 26.078125 -13.859375 C 26.660156 -15.304688 27.054688 -16.820312 27.265625 -18.40625 C 27.472656 -20 27.578125 -21.332031 27.578125 -22.40625 C 27.578125 -24.738281 27.144531 -26.566406 26.28125 -27.890625 C 25.414062 -29.222656 23.9375 -29.890625 21.84375 -29.890625 Z M 21.84375 -29.890625 "/></g></g></g><g fill="#ffffff" fill-opacity="1"><g transform="translate(500.858507, 101.205484)"><g><path d="M 20.515625 -8.609375 C 21.867188 -8.609375 23.046875 -8.796875 24.046875 -9.171875 C 25.046875 -9.546875 25.921875 -9.960938 26.671875 -10.421875 C 27.421875 -10.890625 28.050781 -11.3125 28.5625 -11.6875 C 29.070312 -12.0625 29.535156 -12.25 29.953125 -12.25 C 31.023438 -12.25 31.5625 -11.550781 31.5625 -10.15625 C 31.5625 -9.820312 31.492188 -9.363281 31.359375 -8.78125 C 31.222656 -8.195312 31.035156 -7.585938 30.796875 -6.953125 C 30.566406 -6.328125 30.320312 -5.734375 30.0625 -5.171875 C 29.8125 -4.617188 29.566406 -4.203125 29.328125 -3.921875 C 29.097656 -3.679688 28.691406 -3.304688 28.109375 -2.796875 C 27.523438 -2.285156 26.742188 -1.769531 25.765625 -1.25 C 24.785156 -0.738281 23.640625 -0.285156 22.328125 0.109375 C 21.023438 0.503906 19.578125 0.703125 17.984375 0.703125 C 16.210938 0.703125 14.378906 0.4375 12.484375 -0.09375 C 10.597656 -0.632812 8.882812 -1.570312 7.34375 -2.90625 C 5.8125 -4.238281 4.539062 -6.035156 3.53125 -8.296875 C 2.53125 -10.554688 2.03125 -13.390625 2.03125 -16.796875 C 2.03125 -18.015625 2.109375 -19.40625 2.265625 -20.96875 C 2.429688 -22.53125 2.769531 -24.140625 3.28125 -25.796875 C 3.800781 -27.453125 4.492188 -29.082031 5.359375 -30.6875 C 6.222656 -32.300781 7.375 -33.738281 8.8125 -35 C 10.257812 -36.257812 12 -37.273438 14.03125 -38.046875 C 16.0625 -38.816406 18.476562 -39.203125 21.28125 -39.203125 C 23.5625 -39.203125 25.53125 -38.929688 27.1875 -38.390625 C 28.851562 -37.859375 30.222656 -37.132812 31.296875 -36.21875 C 32.367188 -35.3125 33.171875 -34.25 33.703125 -33.03125 C 34.242188 -31.820312 34.515625 -30.519531 34.515625 -29.125 C 34.515625 -26.601562 33.71875 -24.742188 32.125 -23.546875 C 30.539062 -22.359375 28.300781 -21.765625 25.40625 -21.765625 C 24.707031 -21.765625 24.226562 -21.820312 23.96875 -21.9375 C 23.71875 -22.0625 23.59375 -22.332031 23.59375 -22.75 C 23.59375 -23.875 23.566406 -24.878906 23.515625 -25.765625 C 23.472656 -26.648438 23.34375 -27.394531 23.125 -28 C 22.914062 -28.601562 22.601562 -29.066406 22.1875 -29.390625 C 21.769531 -29.722656 21.164062 -29.890625 20.375 -29.890625 C 18.925781 -29.890625 17.769531 -29.421875 16.90625 -28.484375 C 16.039062 -27.554688 15.382812 -26.425781 14.9375 -25.09375 C 14.5 -23.757812 14.222656 -22.394531 14.109375 -21 C 13.992188 -19.601562 13.9375 -18.4375 13.9375 -17.5 C 13.9375 -14.1875 14.457031 -11.875 15.5 -10.5625 C 16.550781 -9.257812 18.222656 -8.609375 20.515625 -8.609375 Z M 20.515625 -8.609375 "/></g></g></g><g fill="#ffffff" fill-opacity="1"><g transform="translate(536.416568, 101.205484)"><g><path d="M 36.125 -5.671875 C 36.125 -5.429688 36.003906 -4.960938 35.765625 -4.265625 C 35.535156 -3.566406 35.160156 -2.84375 34.640625 -2.09375 C 34.128906 -1.351562 33.488281 -0.703125 32.71875 -0.140625 C 31.945312 0.421875 31.023438 0.703125 29.953125 0.703125 C 28.691406 0.703125 27.441406 0.285156 26.203125 -0.546875 C 24.972656 -1.390625 23.75 -2.535156 22.53125 -3.984375 C 21.320312 -5.429688 20.097656 -7.144531 18.859375 -9.125 C 17.628906 -11.113281 16.382812 -13.273438 15.125 -15.609375 C 14.9375 -13.140625 14.75 -10.710938 14.5625 -8.328125 C 14.375 -5.953125 14.1875 -3.644531 14 -1.40625 C 13.957031 -0.84375 13.84375 -0.46875 13.65625 -0.28125 C 13.46875 -0.09375 13.066406 0 12.453125 0 L 9.9375 0 C 8.488281 0 7.296875 -0.148438 6.359375 -0.453125 C 5.429688 -0.753906 4.710938 -1.1875 4.203125 -1.75 C 3.691406 -2.3125 3.328125 -3.023438 3.109375 -3.890625 C 2.898438 -4.753906 2.796875 -5.742188 2.796875 -6.859375 C 2.796875 -7.421875 2.816406 -8.003906 2.859375 -8.609375 C 2.910156 -9.210938 2.984375 -10.070312 3.078125 -11.1875 C 3.171875 -12.3125 3.296875 -13.785156 3.453125 -15.609375 C 3.617188 -17.429688 3.816406 -19.832031 4.046875 -22.8125 C 4.285156 -25.800781 4.554688 -29.476562 4.859375 -33.84375 C 5.160156 -38.207031 5.5 -43.515625 5.875 -49.765625 C 5.925781 -50.796875 6.046875 -51.40625 6.234375 -51.59375 C 6.367188 -51.726562 6.738281 -51.796875 7.34375 -51.796875 L 10.078125 -51.796875 C 11.523438 -51.796875 12.710938 -51.628906 13.640625 -51.296875 C 14.578125 -50.972656 15.328125 -50.53125 15.890625 -49.96875 C 16.453125 -49.414062 16.835938 -48.765625 17.046875 -48.015625 C 17.253906 -47.273438 17.359375 -46.503906 17.359375 -45.703125 C 17.359375 -45.242188 17.320312 -44.460938 17.25 -43.359375 C 17.1875 -42.265625 17.109375 -40.9375 17.015625 -39.375 C 16.921875 -37.8125 16.789062 -36.050781 16.625 -34.09375 C 16.457031 -32.132812 16.304688 -30.082031 16.171875 -27.9375 L 27.375 -38.15625 C 27.789062 -38.519531 28.171875 -38.769531 28.515625 -38.90625 C 28.867188 -39.050781 29.140625 -39.125 29.328125 -39.125 C 29.835938 -39.125 30.394531 -38.796875 31 -38.140625 C 31.613281 -37.492188 32.1875 -36.738281 32.71875 -35.875 C 33.257812 -35.007812 33.703125 -34.117188 34.046875 -33.203125 C 34.398438 -32.296875 34.578125 -31.566406 34.578125 -31.015625 C 34.578125 -29.660156 33.488281 -28.234375 31.3125 -26.734375 C 29.144531 -25.242188 25.867188 -23.566406 21.484375 -21.703125 C 23.453125 -19.503906 25.320312 -17.492188 27.09375 -15.671875 C 28.863281 -13.859375 30.410156 -12.25 31.734375 -10.84375 C 33.066406 -9.445312 34.128906 -8.304688 34.921875 -7.421875 C 35.722656 -6.535156 36.125 -5.953125 36.125 -5.671875 Z M 36.125 -5.671875 "/></g></g></g><g fill="#ffffff" fill-opacity="1"><g transform="translate(574.14451, 101.205484)"><g><path d="M 19.046875 0.703125 C 16.984375 0.703125 14.9375 0.445312 12.90625 -0.0625 C 10.882812 -0.582031 9.066406 -1.472656 7.453125 -2.734375 C 5.847656 -3.992188 4.53125 -5.671875 3.5 -7.765625 C 2.46875 -9.867188 1.953125 -12.507812 1.953125 -15.6875 C 1.953125 -16.851562 2.046875 -18.25 2.234375 -19.875 C 2.421875 -21.507812 2.78125 -23.191406 3.3125 -24.921875 C 3.851562 -26.648438 4.601562 -28.363281 5.5625 -30.0625 C 6.519531 -31.769531 7.769531 -33.300781 9.3125 -34.65625 C 10.851562 -36.007812 12.71875 -37.101562 14.90625 -37.9375 C 17.101562 -38.78125 19.71875 -39.203125 22.75 -39.203125 C 25.175781 -39.203125 27.226562 -38.921875 28.90625 -38.359375 C 30.59375 -37.796875 31.945312 -37.035156 32.96875 -36.078125 C 34 -35.128906 34.742188 -34.023438 35.203125 -32.765625 C 35.671875 -31.503906 35.90625 -30.148438 35.90625 -28.703125 C 35.90625 -26.554688 35.472656 -24.734375 34.609375 -23.234375 C 33.742188 -21.742188 32.625 -20.492188 31.25 -19.484375 C 29.875 -18.484375 28.347656 -17.703125 26.671875 -17.140625 C 24.992188 -16.585938 23.335938 -16.160156 21.703125 -15.859375 C 20.066406 -15.554688 18.5625 -15.367188 17.1875 -15.296875 C 15.8125 -15.222656 14.75 -15.1875 14 -15.1875 C 14 -14.300781 14.125 -13.425781 14.375 -12.5625 C 14.632812 -11.695312 15.019531 -10.9375 15.53125 -10.28125 C 16.050781 -9.632812 16.726562 -9.097656 17.5625 -8.671875 C 18.40625 -8.253906 19.4375 -8.046875 20.65625 -8.046875 C 21.863281 -8.046875 22.804688 -8.242188 23.484375 -8.640625 C 24.160156 -9.035156 24.707031 -9.476562 25.125 -9.96875 C 25.550781 -10.457031 25.914062 -10.898438 26.21875 -11.296875 C 26.519531 -11.703125 26.925781 -11.90625 27.4375 -11.90625 C 27.675781 -11.90625 28.085938 -11.84375 28.671875 -11.71875 C 29.253906 -11.601562 29.847656 -11.359375 30.453125 -10.984375 C 31.054688 -10.617188 31.59375 -10.109375 32.0625 -9.453125 C 32.53125 -8.796875 32.765625 -7.957031 32.765625 -6.9375 C 32.765625 -5.582031 32.34375 -4.410156 31.5 -3.421875 C 30.65625 -2.441406 29.566406 -1.648438 28.234375 -1.046875 C 26.910156 -0.441406 25.429688 0 23.796875 0.28125 C 22.160156 0.5625 20.578125 0.703125 19.046875 0.703125 Z M 20.375 -29.890625 C 19.34375 -29.890625 18.460938 -29.597656 17.734375 -29.015625 C 17.015625 -28.429688 16.410156 -27.695312 15.921875 -26.8125 C 15.429688 -25.925781 15.054688 -24.945312 14.796875 -23.875 C 14.546875 -22.800781 14.347656 -21.773438 14.203125 -20.796875 C 17.097656 -20.835938 19.441406 -21.320312 21.234375 -22.25 C 23.035156 -23.1875 23.9375 -24.519531 23.9375 -26.25 C 23.9375 -27.1875 23.644531 -28.023438 23.0625 -28.765625 C 22.476562 -29.515625 21.582031 -29.890625 20.375 -29.890625 Z M 20.375 -29.890625 "/></g></g></g><g fill="#ffffff" fill-opacity="1"><g transform="translate(611.382473, 101.205484)"><g><path d="M 25.484375 -21.765625 C 25.203125 -21.765625 24.882812 -21.773438 24.53125 -21.796875 C 24.1875 -21.828125 23.847656 -21.875 23.515625 -21.9375 C 23.191406 -22.007812 22.910156 -22.101562 22.671875 -22.21875 C 22.441406 -22.34375 22.328125 -22.5 22.328125 -22.6875 C 22.328125 -23.289062 22.347656 -23.847656 22.390625 -24.359375 C 22.441406 -24.867188 22.46875 -25.40625 22.46875 -25.96875 C 22.46875 -27 22.328125 -27.835938 22.046875 -28.484375 C 21.765625 -29.140625 21.207031 -29.46875 20.375 -29.46875 C 19.0625 -29.46875 17.972656 -28.613281 17.109375 -26.90625 C 16.242188 -25.207031 15.695312 -22.65625 15.46875 -19.25 C 15.375 -17.757812 15.242188 -16.066406 15.078125 -14.171875 C 14.921875 -12.285156 14.769531 -10.46875 14.625 -8.71875 C 14.488281 -6.96875 14.375 -5.414062 14.28125 -4.0625 C 14.1875 -2.707031 14.140625 -1.820312 14.140625 -1.40625 C 14.140625 -0.9375 13.972656 -0.582031 13.640625 -0.34375 C 13.316406 -0.113281 12.96875 0 12.59375 0 L 10.078125 0 C 8.628906 0 7.453125 -0.148438 6.546875 -0.453125 C 5.640625 -0.753906 4.914062 -1.1875 4.375 -1.75 C 3.832031 -2.3125 3.457031 -3 3.25 -3.8125 C 3.039062 -4.632812 2.9375 -5.582031 2.9375 -6.65625 C 2.9375 -7.351562 2.972656 -8.34375 3.046875 -9.625 C 3.117188 -10.90625 3.242188 -12.675781 3.421875 -14.9375 C 3.609375 -17.207031 3.832031 -20.078125 4.09375 -23.546875 C 4.351562 -27.023438 4.671875 -31.332031 5.046875 -36.46875 C 5.140625 -37.820312 5.628906 -38.5 6.515625 -38.5 L 9.234375 -38.5 C 10.546875 -38.5 11.644531 -38.359375 12.53125 -38.078125 C 13.414062 -37.796875 14.140625 -37.410156 14.703125 -36.921875 C 15.265625 -36.429688 15.671875 -35.859375 15.921875 -35.203125 C 16.179688 -34.554688 16.359375 -33.882812 16.453125 -33.1875 C 17.015625 -34.257812 17.675781 -35.175781 18.4375 -35.9375 C 19.207031 -36.707031 20.015625 -37.335938 20.859375 -37.828125 C 21.703125 -38.316406 22.566406 -38.664062 23.453125 -38.875 C 24.335938 -39.09375 25.15625 -39.203125 25.90625 -39.203125 C 26.789062 -39.203125 27.6875 -39.035156 28.59375 -38.703125 C 29.5 -38.378906 30.328125 -37.890625 31.078125 -37.234375 C 31.828125 -36.585938 32.421875 -35.75 32.859375 -34.71875 C 33.304688 -33.695312 33.53125 -32.484375 33.53125 -31.078125 C 33.53125 -29.816406 33.34375 -28.625 32.96875 -27.5 C 32.59375 -26.382812 32.054688 -25.394531 31.359375 -24.53125 C 30.660156 -23.664062 29.804688 -22.988281 28.796875 -22.5 C 27.796875 -22.007812 26.691406 -21.765625 25.484375 -21.765625 Z M 25.484375 -21.765625 "/></g></g></g><g fill="#ffffff" fill-opacity="1"><g transform="translate(644.91064, 101.205484)"><g/></g></g><g fill="#ffffff" fill-opacity="1"><g transform="translate(659.959826, 101.205484)"><g><path d="M 24.5625 -10.21875 C 26.476562 -10.21875 28.101562 -10.5 29.4375 -11.0625 C 30.769531 -11.625 31.898438 -12.253906 32.828125 -12.953125 C 33.765625 -13.648438 34.59375 -14.28125 35.3125 -14.84375 C 36.039062 -15.40625 36.773438 -15.6875 37.515625 -15.6875 C 38.453125 -15.6875 38.921875 -14.984375 38.921875 -13.578125 C 38.921875 -12.828125 38.828125 -11.925781 38.640625 -10.875 C 38.453125 -9.832031 38.195312 -8.65625 37.875 -7.34375 C 37.6875 -6.550781 37.226562 -5.6875 36.5 -4.75 C 35.78125 -3.820312 34.789062 -2.945312 33.53125 -2.125 C 32.269531 -1.3125 30.71875 -0.632812 28.875 -0.09375 C 27.03125 0.4375 24.921875 0.703125 22.546875 0.703125 C 20.160156 0.703125 17.773438 0.351562 15.390625 -0.34375 C 13.015625 -1.050781 10.894531 -2.242188 9.03125 -3.921875 C 7.164062 -5.597656 5.648438 -7.859375 4.484375 -10.703125 C 3.316406 -13.554688 2.734375 -17.128906 2.734375 -21.421875 C 2.734375 -22.960938 2.835938 -24.742188 3.046875 -26.765625 C 3.253906 -28.796875 3.660156 -30.882812 4.265625 -33.03125 C 4.878906 -35.1875 5.734375 -37.300781 6.828125 -39.375 C 7.921875 -41.445312 9.332031 -43.300781 11.0625 -44.9375 C 12.789062 -46.570312 14.898438 -47.890625 17.390625 -48.890625 C 19.890625 -49.898438 22.863281 -50.40625 26.3125 -50.40625 C 29.070312 -50.40625 31.46875 -50.078125 33.5 -49.421875 C 35.53125 -48.765625 37.207031 -47.863281 38.53125 -46.71875 C 39.863281 -45.582031 40.84375 -44.242188 41.46875 -42.703125 C 42.101562 -41.160156 42.421875 -39.523438 42.421875 -37.796875 C 42.421875 -34.804688 41.546875 -32.625 39.796875 -31.25 C 38.046875 -29.875 35.5625 -29.1875 32.34375 -29.1875 C 31.3125 -29.1875 30.664062 -29.269531 30.40625 -29.4375 C 30.15625 -29.601562 30.03125 -29.941406 30.03125 -30.453125 C 29.976562 -32.035156 29.925781 -33.410156 29.875 -34.578125 C 29.832031 -35.742188 29.671875 -36.710938 29.390625 -37.484375 C 29.117188 -38.253906 28.691406 -38.8125 28.109375 -39.15625 C 27.523438 -39.507812 26.71875 -39.6875 25.6875 -39.6875 C 24.195312 -39.6875 22.925781 -39.367188 21.875 -38.734375 C 20.820312 -38.109375 19.929688 -37.296875 19.203125 -36.296875 C 18.484375 -35.296875 17.898438 -34.164062 17.453125 -32.90625 C 17.015625 -31.644531 16.664062 -30.359375 16.40625 -29.046875 C 16.15625 -27.742188 15.992188 -26.484375 15.921875 -25.265625 C 15.847656 -24.054688 15.8125 -23.007812 15.8125 -22.125 C 15.8125 -17.832031 16.523438 -14.773438 17.953125 -12.953125 C 19.378906 -11.128906 21.582031 -10.21875 24.5625 -10.21875 Z M 24.5625 -10.21875 "/></g></g></g><g fill="#ffffff" fill-opacity="1"><g transform="translate(703.147469, 101.205484)"><g><path d="M 18.546875 0.703125 C 15.328125 0.703125 12.65625 0.25 10.53125 -0.65625 C 8.40625 -1.570312 6.710938 -2.820312 5.453125 -4.40625 C 4.191406 -6 3.304688 -7.851562 2.796875 -9.96875 C 2.285156 -12.09375 2.03125 -14.367188 2.03125 -16.796875 C 2.03125 -19.597656 2.367188 -22.335938 3.046875 -25.015625 C 3.722656 -27.703125 4.875 -30.09375 6.5 -32.1875 C 8.132812 -34.289062 10.296875 -35.984375 12.984375 -37.265625 C 15.671875 -38.554688 19.019531 -39.203125 23.03125 -39.203125 C 28.90625 -39.203125 33.113281 -37.765625 35.65625 -34.890625 C 38.207031 -32.023438 39.484375 -28 39.484375 -22.8125 C 39.484375 -21.375 39.375 -19.78125 39.15625 -18.03125 C 38.945312 -16.28125 38.550781 -14.539062 37.96875 -12.8125 C 37.382812 -11.082031 36.59375 -9.398438 35.59375 -7.765625 C 34.59375 -6.128906 33.320312 -4.679688 31.78125 -3.421875 C 30.238281 -2.171875 28.378906 -1.171875 26.203125 -0.421875 C 24.035156 0.328125 21.484375 0.703125 18.546875 0.703125 Z M 21.84375 -29.890625 C 20.070312 -29.890625 18.660156 -29.429688 17.609375 -28.515625 C 16.554688 -27.609375 15.757812 -26.515625 15.21875 -25.234375 C 14.6875 -23.953125 14.335938 -22.597656 14.171875 -21.171875 C 14.015625 -19.753906 13.9375 -18.550781 13.9375 -17.5625 C 13.9375 -14.488281 14.425781 -12.226562 15.40625 -10.78125 C 16.382812 -9.332031 17.78125 -8.609375 19.59375 -8.609375 C 21.226562 -8.609375 22.570312 -9.117188 23.625 -10.140625 C 24.675781 -11.171875 25.492188 -12.410156 26.078125 -13.859375 C 26.660156 -15.304688 27.054688 -16.820312 27.265625 -18.40625 C 27.472656 -20 27.578125 -21.332031 27.578125 -22.40625 C 27.578125 -24.738281 27.144531 -26.566406 26.28125 -27.890625 C 25.414062 -29.222656 23.9375 -29.890625 21.84375 -29.890625 Z M 21.84375 -29.890625 "/></g></g></g><g fill="#ffffff" fill-opacity="1"><g transform="translate(745.00517, 101.205484)"><g><path d="M 14.984375 -12.59375 C 14.835938 -10.445312 14.671875 -8.40625 14.484375 -6.46875 C 14.296875 -4.53125 14.15625 -2.84375 14.0625 -1.40625 C 14.019531 -0.84375 13.90625 -0.46875 13.71875 -0.28125 C 13.53125 -0.09375 13.132812 0 12.53125 0 L 10.015625 0 C 8.566406 0 7.382812 -0.148438 6.46875 -0.453125 C 5.5625 -0.753906 4.835938 -1.1875 4.296875 -1.75 C 3.765625 -2.3125 3.394531 -3 3.1875 -3.8125 C 2.976562 -4.632812 2.875 -5.582031 2.875 -6.65625 C 2.875 -7.351562 2.90625 -8.34375 2.96875 -9.625 C 3.039062 -10.90625 3.171875 -12.675781 3.359375 -14.9375 C 3.546875 -17.207031 3.765625 -20.078125 4.015625 -23.546875 C 4.273438 -27.023438 4.59375 -31.332031 4.96875 -36.46875 C 5.019531 -37.5 5.132812 -38.109375 5.3125 -38.296875 C 5.457031 -38.429688 5.832031 -38.5 6.4375 -38.5 L 9.171875 -38.5 C 10.566406 -38.5 11.707031 -38.332031 12.59375 -38 C 13.488281 -37.675781 14.210938 -37.257812 14.765625 -36.75 C 15.328125 -36.238281 15.722656 -35.628906 15.953125 -34.921875 C 16.191406 -34.222656 16.332031 -33.503906 16.375 -32.765625 C 17.726562 -35.285156 19.269531 -36.988281 21 -37.875 C 22.726562 -38.757812 24.757812 -39.203125 27.09375 -39.203125 C 28.351562 -39.203125 29.566406 -39.082031 30.734375 -38.84375 C 31.898438 -38.613281 32.945312 -38.21875 33.875 -37.65625 C 34.8125 -37.09375 35.601562 -36.359375 36.25 -35.453125 C 36.90625 -34.546875 37.375 -33.390625 37.65625 -31.984375 C 39.101562 -34.691406 40.691406 -36.570312 42.421875 -37.625 C 44.148438 -38.675781 46.320312 -39.203125 48.9375 -39.203125 C 50.375 -39.203125 51.757812 -39.050781 53.09375 -38.75 C 54.425781 -38.445312 55.582031 -37.921875 56.5625 -37.171875 C 57.539062 -36.421875 58.320312 -35.40625 58.90625 -34.125 C 59.488281 -32.84375 59.78125 -31.242188 59.78125 -29.328125 C 59.78125 -27.878906 59.707031 -26.101562 59.5625 -24 C 59.425781 -21.90625 59.265625 -19.632812 59.078125 -17.1875 C 58.890625 -14.738281 58.675781 -12.21875 58.4375 -9.625 C 58.207031 -7.03125 58.023438 -4.546875 57.890625 -2.171875 C 57.835938 -1.660156 57.789062 -1.265625 57.75 -0.984375 C 57.707031 -0.703125 57.625 -0.488281 57.5 -0.34375 C 57.382812 -0.207031 57.207031 -0.113281 56.96875 -0.0625 C 56.738281 -0.0195312 56.414062 0 56 0 L 53.765625 0 C 52.265625 0 51.046875 -0.140625 50.109375 -0.421875 C 49.179688 -0.703125 48.460938 -1.097656 47.953125 -1.609375 C 47.441406 -2.117188 47.078125 -2.757812 46.859375 -3.53125 C 46.648438 -4.300781 46.546875 -5.175781 46.546875 -6.15625 C 46.546875 -6.757812 46.582031 -7.625 46.65625 -8.75 C 46.726562 -9.875 46.820312 -11.085938 46.9375 -12.390625 C 47.050781 -13.691406 47.164062 -15.039062 47.28125 -16.4375 C 47.394531 -17.84375 47.507812 -19.140625 47.625 -20.328125 C 47.75 -21.523438 47.84375 -22.566406 47.90625 -23.453125 C 47.976562 -24.335938 48.015625 -24.921875 48.015625 -25.203125 C 48.015625 -26.410156 47.769531 -27.476562 47.28125 -28.40625 C 46.789062 -29.34375 45.847656 -29.8125 44.453125 -29.8125 C 43.234375 -29.8125 42.179688 -29.414062 41.296875 -28.625 C 40.410156 -27.832031 39.664062 -26.734375 39.0625 -25.328125 C 38.457031 -23.929688 37.96875 -22.273438 37.59375 -20.359375 C 37.21875 -18.453125 36.957031 -16.378906 36.8125 -14.140625 C 36.726562 -12.691406 36.613281 -11.035156 36.46875 -9.171875 C 36.332031 -7.304688 36.171875 -4.972656 35.984375 -2.171875 C 35.929688 -1.660156 35.878906 -1.265625 35.828125 -0.984375 C 35.785156 -0.703125 35.707031 -0.488281 35.59375 -0.34375 C 35.476562 -0.207031 35.300781 -0.113281 35.0625 -0.0625 C 34.832031 -0.0195312 34.507812 0 34.09375 0 L 31.84375 0 C 30.351562 0 29.140625 -0.140625 28.203125 -0.421875 C 27.273438 -0.703125 26.550781 -1.097656 26.03125 -1.609375 C 25.519531 -2.117188 25.160156 -2.757812 24.953125 -3.53125 C 24.742188 -4.300781 24.640625 -5.175781 24.640625 -6.15625 C 24.640625 -7.09375 24.71875 -8.457031 24.875 -10.25 C 25.039062 -12.050781 25.207031 -13.921875 25.375 -15.859375 C 25.539062 -17.796875 25.703125 -19.640625 25.859375 -21.390625 C 26.023438 -23.140625 26.109375 -24.410156 26.109375 -25.203125 C 26.109375 -26.410156 25.863281 -27.476562 25.375 -28.40625 C 24.882812 -29.34375 23.941406 -29.8125 22.546875 -29.8125 C 21.285156 -29.8125 20.207031 -29.34375 19.3125 -28.40625 C 18.425781 -27.476562 17.691406 -26.234375 17.109375 -24.671875 C 16.523438 -23.109375 16.054688 -21.273438 15.703125 -19.171875 C 15.359375 -17.078125 15.117188 -14.882812 14.984375 -12.59375 Z M 14.984375 -12.59375 "/></g></g></g><g fill="#ffffff" fill-opacity="1"><g transform="translate(808.141718, 101.205484)"><g><path d="M 27.09375 -39.203125 C 31.476562 -39.203125 34.773438 -37.847656 36.984375 -35.140625 C 39.203125 -32.429688 40.3125 -28.160156 40.3125 -22.328125 C 40.3125 -18.691406 39.890625 -15.445312 39.046875 -12.59375 C 38.210938 -9.75 37.046875 -7.332031 35.546875 -5.34375 C 34.054688 -3.363281 32.304688 -1.859375 30.296875 -0.828125 C 28.296875 0.191406 26.128906 0.703125 23.796875 0.703125 C 21.328125 0.703125 19.390625 0.164062 17.984375 -0.90625 C 16.585938 -1.976562 15.492188 -3.492188 14.703125 -5.453125 C 14.554688 -3.773438 14.4375 -2.492188 14.34375 -1.609375 C 14.25 -0.722656 14.175781 -0.015625 14.125 0.515625 C 14.082031 1.054688 14.050781 1.535156 14.03125 1.953125 C 14.007812 2.378906 13.960938 2.941406 13.890625 3.640625 C 13.828125 4.335938 13.75 5.289062 13.65625 6.5 C 13.5625 7.71875 13.421875 9.398438 13.234375 11.546875 C 13.179688 12.109375 13.0625 12.484375 12.875 12.671875 C 12.6875 12.859375 12.289062 12.953125 11.6875 12.953125 L 9.171875 12.953125 C 7.722656 12.953125 6.539062 12.800781 5.625 12.5 C 4.71875 12.195312 3.992188 11.765625 3.453125 11.203125 C 2.921875 10.640625 2.550781 9.945312 2.34375 9.125 C 2.132812 8.3125 2.03125 7.367188 2.03125 6.296875 C 2.03125 5.828125 2.097656 4.566406 2.234375 2.515625 C 2.378906 0.460938 2.554688 -1.992188 2.765625 -4.859375 C 2.972656 -7.734375 3.203125 -10.828125 3.453125 -14.140625 C 3.710938 -17.453125 3.957031 -20.613281 4.1875 -23.625 C 4.425781 -26.632812 4.628906 -29.304688 4.796875 -31.640625 C 4.960938 -33.972656 5.09375 -35.582031 5.1875 -36.46875 C 5.226562 -37.5 5.34375 -38.109375 5.53125 -38.296875 C 5.664062 -38.429688 6.039062 -38.5 6.65625 -38.5 L 9.375 -38.5 C 11.894531 -38.5 13.726562 -37.972656 14.875 -36.921875 C 16.019531 -35.867188 16.59375 -34.625 16.59375 -33.1875 C 17.664062 -35.332031 19.050781 -36.867188 20.75 -37.796875 C 22.457031 -38.734375 24.570312 -39.203125 27.09375 -39.203125 Z M 21.984375 -29.890625 C 19.597656 -29.890625 17.84375 -28.863281 16.71875 -26.8125 C 15.601562 -24.757812 15.046875 -21.957031 15.046875 -18.40625 C 15.046875 -17.195312 15.128906 -16.007812 15.296875 -14.84375 C 15.460938 -13.675781 15.753906 -12.625 16.171875 -11.6875 C 16.585938 -10.757812 17.15625 -10.015625 17.875 -9.453125 C 18.601562 -8.890625 19.53125 -8.609375 20.65625 -8.609375 C 22.65625 -8.609375 24.332031 -9.585938 25.6875 -11.546875 C 27.039062 -13.503906 27.71875 -16.585938 27.71875 -20.796875 C 27.71875 -21.960938 27.632812 -23.09375 27.46875 -24.1875 C 27.3125 -25.28125 27.019531 -26.242188 26.59375 -27.078125 C 26.175781 -27.921875 25.59375 -28.597656 24.84375 -29.109375 C 24.101562 -29.628906 23.148438 -29.890625 21.984375 -29.890625 Z M 21.984375 -29.890625 "/></g></g></g><g fill="#ffffff" fill-opacity="1"><g transform="translate(850.979378, 101.205484)"><g><path d="M 18.546875 0.703125 C 15.328125 0.703125 12.65625 0.25 10.53125 -0.65625 C 8.40625 -1.570312 6.710938 -2.820312 5.453125 -4.40625 C 4.191406 -6 3.304688 -7.851562 2.796875 -9.96875 C 2.285156 -12.09375 2.03125 -14.367188 2.03125 -16.796875 C 2.03125 -19.597656 2.367188 -22.335938 3.046875 -25.015625 C 3.722656 -27.703125 4.875 -30.09375 6.5 -32.1875 C 8.132812 -34.289062 10.296875 -35.984375 12.984375 -37.265625 C 15.671875 -38.554688 19.019531 -39.203125 23.03125 -39.203125 C 28.90625 -39.203125 33.113281 -37.765625 35.65625 -34.890625 C 38.207031 -32.023438 39.484375 -28 39.484375 -22.8125 C 39.484375 -21.375 39.375 -19.78125 39.15625 -18.03125 C 38.945312 -16.28125 38.550781 -14.539062 37.96875 -12.8125 C 37.382812 -11.082031 36.59375 -9.398438 35.59375 -7.765625 C 34.59375 -6.128906 33.320312 -4.679688 31.78125 -3.421875 C 30.238281 -2.171875 28.378906 -1.171875 26.203125 -0.421875 C 24.035156 0.328125 21.484375 0.703125 18.546875 0.703125 Z M 21.84375 -29.890625 C 20.070312 -29.890625 18.660156 -29.429688 17.609375 -28.515625 C 16.554688 -27.609375 15.757812 -26.515625 15.21875 -25.234375 C 14.6875 -23.953125 14.335938 -22.597656 14.171875 -21.171875 C 14.015625 -19.753906 13.9375 -18.550781 13.9375 -17.5625 C 13.9375 -14.488281 14.425781 -12.226562 15.40625 -10.78125 C 16.382812 -9.332031 17.78125 -8.609375 19.59375 -8.609375 C 21.226562 -8.609375 22.570312 -9.117188 23.625 -10.140625 C 24.675781 -11.171875 25.492188 -12.410156 26.078125 -13.859375 C 26.660156 -15.304688 27.054688 -16.820312 27.265625 -18.40625 C 27.472656 -20 27.578125 -21.332031 27.578125 -22.40625 C 27.578125 -24.738281 27.144531 -26.566406 26.28125 -27.890625 C 25.414062 -29.222656 23.9375 -29.890625 21.84375 -29.890625 Z M 21.84375 -29.890625 "/></g></g></g><g fill="#ffffff" fill-opacity="1"><g transform="translate(892.837103, 101.205484)"><g><path d="M 19.1875 -39.203125 C 23.144531 -39.203125 26.054688 -38.421875 27.921875 -36.859375 C 29.796875 -35.296875 30.734375 -33.300781 30.734375 -30.875 C 30.734375 -28.820312 30.085938 -27.253906 28.796875 -26.171875 C 27.515625 -25.097656 25.660156 -24.5625 23.234375 -24.5625 C 22.585938 -24.5625 22.144531 -24.628906 21.90625 -24.765625 C 21.675781 -24.910156 21.5625 -25.171875 21.5625 -25.546875 C 21.5625 -25.972656 21.523438 -26.453125 21.453125 -26.984375 C 21.378906 -27.523438 21.210938 -28.039062 20.953125 -28.53125 C 20.703125 -29.019531 20.304688 -29.425781 19.765625 -29.75 C 19.234375 -30.070312 18.476562 -30.234375 17.5 -30.234375 C 16.195312 -30.234375 15.144531 -29.914062 14.34375 -29.28125 C 13.550781 -28.65625 13.15625 -27.878906 13.15625 -26.953125 C 13.15625 -25.972656 13.5625 -25.191406 14.375 -24.609375 C 15.195312 -24.023438 16.222656 -23.472656 17.453125 -22.953125 C 18.691406 -22.441406 20.035156 -21.914062 21.484375 -21.375 C 22.929688 -20.84375 24.273438 -20.132812 25.515625 -19.25 C 26.753906 -18.363281 27.78125 -17.253906 28.59375 -15.921875 C 29.40625 -14.597656 29.8125 -12.882812 29.8125 -10.78125 C 29.8125 -7.414062 28.625 -4.660156 26.25 -2.515625 C 23.875 -0.367188 20.304688 0.703125 15.546875 0.703125 C 14.234375 0.703125 12.722656 0.59375 11.015625 0.375 C 9.316406 0.164062 7.695312 -0.15625 6.15625 -0.59375 C 4.613281 -1.039062 3.316406 -1.632812 2.265625 -2.375 C 1.222656 -3.125 0.703125 -4.0625 0.703125 -5.1875 C 0.703125 -5.601562 0.78125 -6.113281 0.9375 -6.71875 C 1.101562 -7.320312 1.359375 -7.90625 1.703125 -8.46875 C 2.054688 -9.03125 2.476562 -9.507812 2.96875 -9.90625 C 3.457031 -10.300781 4.054688 -10.5 4.765625 -10.5 C 5.316406 -10.5 5.828125 -10.359375 6.296875 -10.078125 C 6.765625 -9.796875 7.3125 -9.503906 7.9375 -9.203125 C 8.570312 -8.898438 9.351562 -8.609375 10.28125 -8.328125 C 11.21875 -8.046875 12.457031 -7.90625 14 -7.90625 C 15.164062 -7.90625 16.203125 -8.046875 17.109375 -8.328125 C 18.023438 -8.609375 18.484375 -9.238281 18.484375 -10.21875 C 18.484375 -11.101562 18.109375 -11.8125 17.359375 -12.34375 C 16.609375 -12.882812 15.660156 -13.390625 14.515625 -13.859375 C 13.378906 -14.328125 12.144531 -14.828125 10.8125 -15.359375 C 9.476562 -15.898438 8.238281 -16.613281 7.09375 -17.5 C 5.957031 -18.382812 5.015625 -19.515625 4.265625 -20.890625 C 3.523438 -22.265625 3.15625 -24.050781 3.15625 -26.25 C 3.15625 -28.625 3.628906 -30.640625 4.578125 -32.296875 C 5.535156 -33.960938 6.769531 -35.304688 8.28125 -36.328125 C 9.800781 -37.359375 11.519531 -38.09375 13.4375 -38.53125 C 15.351562 -38.976562 17.269531 -39.203125 19.1875 -39.203125 Z M 19.1875 -39.203125 "/></g></g></g><g fill="#ffffff" fill-opacity="1"><g transform="translate(925.735295, 101.205484)"><g><path d="M 19.046875 0.703125 C 16.984375 0.703125 14.9375 0.445312 12.90625 -0.0625 C 10.882812 -0.582031 9.066406 -1.472656 7.453125 -2.734375 C 5.847656 -3.992188 4.53125 -5.671875 3.5 -7.765625 C 2.46875 -9.867188 1.953125 -12.507812 1.953125 -15.6875 C 1.953125 -16.851562 2.046875 -18.25 2.234375 -19.875 C 2.421875 -21.507812 2.78125 -23.191406 3.3125 -24.921875 C 3.851562 -26.648438 4.601562 -28.363281 5.5625 -30.0625 C 6.519531 -31.769531 7.769531 -33.300781 9.3125 -34.65625 C 10.851562 -36.007812 12.71875 -37.101562 14.90625 -37.9375 C 17.101562 -38.78125 19.71875 -39.203125 22.75 -39.203125 C 25.175781 -39.203125 27.226562 -38.921875 28.90625 -38.359375 C 30.59375 -37.796875 31.945312 -37.035156 32.96875 -36.078125 C 34 -35.128906 34.742188 -34.023438 35.203125 -32.765625 C 35.671875 -31.503906 35.90625 -30.148438 35.90625 -28.703125 C 35.90625 -26.554688 35.472656 -24.734375 34.609375 -23.234375 C 33.742188 -21.742188 32.625 -20.492188 31.25 -19.484375 C 29.875 -18.484375 28.347656 -17.703125 26.671875 -17.140625 C 24.992188 -16.585938 23.335938 -16.160156 21.703125 -15.859375 C 20.066406 -15.554688 18.5625 -15.367188 17.1875 -15.296875 C 15.8125 -15.222656 14.75 -15.1875 14 -15.1875 C 14 -14.300781 14.125 -13.425781 14.375 -12.5625 C 14.632812 -11.695312 15.019531 -10.9375 15.53125 -10.28125 C 16.050781 -9.632812 16.726562 -9.097656 17.5625 -8.671875 C 18.40625 -8.253906 19.4375 -8.046875 20.65625 -8.046875 C 21.863281 -8.046875 22.804688 -8.242188 23.484375 -8.640625 C 24.160156 -9.035156 24.707031 -9.476562 25.125 -9.96875 C 25.550781 -10.457031 25.914062 -10.898438 26.21875 -11.296875 C 26.519531 -11.703125 26.925781 -11.90625 27.4375 -11.90625 C 27.675781 -11.90625 28.085938 -11.84375 28.671875 -11.71875 C 29.253906 -11.601562 29.847656 -11.359375 30.453125 -10.984375 C 31.054688 -10.617188 31.59375 -10.109375 32.0625 -9.453125 C 32.53125 -8.796875 32.765625 -7.957031 32.765625 -6.9375 C 32.765625 -5.582031 32.34375 -4.410156 31.5 -3.421875 C 30.65625 -2.441406 29.566406 -1.648438 28.234375 -1.046875 C 26.910156 -0.441406 25.429688 0 23.796875 0.28125 C 22.160156 0.5625 20.578125 0.703125 19.046875 0.703125 Z M 20.375 -29.890625 C 19.34375 -29.890625 18.460938 -29.597656 17.734375 -29.015625 C 17.015625 -28.429688 16.410156 -27.695312 15.921875 -26.8125 C 15.429688 -25.925781 15.054688 -24.945312 14.796875 -23.875 C 14.546875 -22.800781 14.347656 -21.773438 14.203125 -20.796875 C 17.097656 -20.835938 19.441406 -21.320312 21.234375 -22.25 C 23.035156 -23.1875 23.9375 -24.519531 23.9375 -26.25 C 23.9375 -27.1875 23.644531 -28.023438 23.0625 -28.765625 C 22.476562 -29.515625 21.582031 -29.890625 20.375 -29.890625 Z M 20.375 -29.890625 "/></g></g></g><g fill="#c1ff72" fill-opacity="1"><g transform="translate(14.615199, 795.813028)"><g><path d="M 6.203125 0.25 C 5.210938 0.25 4.398438 0.1875 3.765625 0.0625 C 3.140625 -0.0625 2.640625 -0.242188 2.265625 -0.484375 C 1.890625 -0.722656 1.628906 -1.023438 1.484375 -1.390625 C 1.347656 -1.765625 1.28125 -2.203125 1.28125 -2.703125 C 1.28125 -2.847656 1.285156 -3.054688 1.296875 -3.328125 C 1.316406 -3.609375 1.34375 -4 1.375 -4.5 C 1.40625 -5 1.445312 -5.644531 1.5 -6.4375 C 1.5625 -7.226562 1.644531 -8.222656 1.75 -9.421875 C 1.863281 -10.910156 1.953125 -12.085938 2.015625 -12.953125 C 2.085938 -13.816406 2.140625 -14.484375 2.171875 -14.953125 C 2.203125 -15.429688 2.222656 -15.765625 2.234375 -15.953125 C 2.242188 -16.148438 2.25 -16.316406 2.25 -16.453125 C 2.25 -16.710938 2.253906 -16.925781 2.265625 -17.09375 C 2.273438 -17.257812 2.289062 -17.390625 2.3125 -17.484375 C 2.332031 -17.578125 2.375 -17.644531 2.4375 -17.6875 C 2.5 -17.726562 2.585938 -17.75 2.703125 -17.75 C 3.679688 -17.8125 4.515625 -17.859375 5.203125 -17.890625 C 5.898438 -17.929688 6.507812 -17.953125 7.03125 -17.953125 C 8.289062 -17.953125 9.375 -17.847656 10.28125 -17.640625 C 11.195312 -17.429688 11.9375 -17.132812 12.5 -16.75 C 13.0625 -16.363281 13.476562 -15.882812 13.75 -15.3125 C 14.019531 -14.75 14.15625 -14.113281 14.15625 -13.40625 C 14.15625 -13 14.113281 -12.582031 14.03125 -12.15625 C 13.945312 -11.738281 13.800781 -11.335938 13.59375 -10.953125 C 13.394531 -10.566406 13.125 -10.226562 12.78125 -9.9375 C 12.445312 -9.644531 12.019531 -9.429688 11.5 -9.296875 C 12.46875 -8.992188 13.148438 -8.5 13.546875 -7.8125 C 13.953125 -7.125 14.15625 -6.300781 14.15625 -5.34375 C 14.15625 -4.582031 14.03125 -3.863281 13.78125 -3.1875 C 13.53125 -2.507812 13.09375 -1.914062 12.46875 -1.40625 C 11.851562 -0.90625 11.035156 -0.503906 10.015625 -0.203125 C 9.003906 0.0976562 7.734375 0.25 6.203125 0.25 Z M 7.625 -7.5 C 7.4375 -7.5 7.207031 -7.484375 6.9375 -7.453125 C 6.675781 -7.429688 6.40625 -7.394531 6.125 -7.34375 L 5.84375 -3.28125 C 6.445312 -3.09375 6.988281 -3 7.46875 -3 C 7.988281 -3 8.40625 -3.070312 8.71875 -3.21875 C 9.039062 -3.375 9.285156 -3.5625 9.453125 -3.78125 C 9.628906 -4.007812 9.75 -4.257812 9.8125 -4.53125 C 9.875 -4.8125 9.90625 -5.066406 9.90625 -5.296875 C 9.90625 -5.910156 9.734375 -6.429688 9.390625 -6.859375 C 9.046875 -7.285156 8.457031 -7.5 7.625 -7.5 Z M 6.578125 -14.375 C 6.546875 -13.9375 6.515625 -13.425781 6.484375 -12.84375 C 6.460938 -12.257812 6.425781 -11.628906 6.375 -10.953125 C 6.90625 -10.816406 7.378906 -10.75 7.796875 -10.75 C 8.296875 -10.75 8.695312 -10.804688 9 -10.921875 C 9.300781 -11.035156 9.535156 -11.1875 9.703125 -11.375 C 9.878906 -11.5625 10 -11.757812 10.0625 -11.96875 C 10.125 -12.1875 10.15625 -12.394531 10.15625 -12.59375 C 10.15625 -13.113281 9.984375 -13.5625 9.640625 -13.9375 C 9.296875 -14.3125 8.707031 -14.5 7.875 -14.5 C 7.6875 -14.5 7.476562 -14.484375 7.25 -14.453125 C 7.03125 -14.429688 6.804688 -14.40625 6.578125 -14.375 Z M 6.578125 -14.375 "/></g></g></g><g fill="#c1ff72" fill-opacity="1"><g transform="translate(29.737799, 795.813028)"><g><path d="M 0.28125 -3.078125 C 0.28125 -4.578125 0.953125 -5.75 2.296875 -6.59375 C 3.648438 -7.445312 5.644531 -7.90625 8.28125 -7.96875 C 8.289062 -8.15625 8.300781 -8.3125 8.3125 -8.4375 C 8.320312 -8.5625 8.328125 -8.71875 8.328125 -8.90625 C 8.328125 -9.4375 8.222656 -9.859375 8.015625 -10.171875 C 7.816406 -10.492188 7.40625 -10.65625 6.78125 -10.65625 C 6.425781 -10.65625 6.140625 -10.601562 5.921875 -10.5 C 5.703125 -10.394531 5.523438 -10.253906 5.390625 -10.078125 C 5.265625 -9.910156 5.160156 -9.703125 5.078125 -9.453125 C 4.992188 -9.203125 4.914062 -8.925781 4.84375 -8.625 C 4.8125 -8.476562 4.738281 -8.382812 4.625 -8.34375 C 4.507812 -8.300781 4.328125 -8.28125 4.078125 -8.28125 C 2.378906 -8.28125 1.53125 -8.921875 1.53125 -10.203125 C 1.53125 -10.710938 1.648438 -11.203125 1.890625 -11.671875 C 2.128906 -12.140625 2.484375 -12.546875 2.953125 -12.890625 C 3.429688 -13.234375 4.03125 -13.503906 4.75 -13.703125 C 5.46875 -13.898438 6.300781 -14 7.25 -14 C 9.101562 -14 10.445312 -13.613281 11.28125 -12.84375 C 12.113281 -12.082031 12.53125 -11 12.53125 -9.59375 C 12.53125 -9.414062 12.507812 -9.085938 12.46875 -8.609375 C 12.425781 -8.140625 12.375 -7.640625 12.3125 -7.109375 C 12.25 -6.585938 12.195312 -6.09375 12.15625 -5.625 C 12.113281 -5.15625 12.09375 -4.832031 12.09375 -4.65625 C 12.09375 -4.238281 12.164062 -3.941406 12.3125 -3.765625 C 12.46875 -3.585938 12.640625 -3.460938 12.828125 -3.390625 C 13.023438 -3.328125 13.195312 -3.28125 13.34375 -3.25 C 13.5 -3.21875 13.578125 -3.132812 13.578125 -3 C 13.578125 -2.632812 13.523438 -2.257812 13.421875 -1.875 C 13.328125 -1.488281 13.164062 -1.132812 12.9375 -0.8125 C 12.707031 -0.5 12.394531 -0.242188 12 -0.046875 C 11.613281 0.148438 11.140625 0.25 10.578125 0.25 C 9.773438 0.25 9.171875 0.0546875 8.765625 -0.328125 C 8.367188 -0.710938 8.101562 -1.242188 7.96875 -1.921875 C 7.570312 -1.335938 7.050781 -0.828125 6.40625 -0.390625 C 5.769531 0.0351562 4.9375 0.25 3.90625 0.25 C 3.40625 0.25 2.929688 0.191406 2.484375 0.078125 C 2.046875 -0.0351562 1.660156 -0.226562 1.328125 -0.5 C 1.003906 -0.769531 0.75 -1.113281 0.5625 -1.53125 C 0.375 -1.957031 0.28125 -2.472656 0.28125 -3.078125 Z M 8.046875 -5.921875 C 7.617188 -5.921875 7.195312 -5.882812 6.78125 -5.8125 C 6.363281 -5.75 5.988281 -5.644531 5.65625 -5.5 C 5.332031 -5.363281 5.070312 -5.175781 4.875 -4.9375 C 4.675781 -4.707031 4.578125 -4.425781 4.578125 -4.09375 C 4.578125 -3.71875 4.695312 -3.453125 4.9375 -3.296875 C 5.175781 -3.148438 5.4375 -3.078125 5.71875 -3.078125 C 5.988281 -3.078125 6.253906 -3.132812 6.515625 -3.25 C 6.785156 -3.363281 7.023438 -3.539062 7.234375 -3.78125 C 7.441406 -4.03125 7.617188 -4.328125 7.765625 -4.671875 C 7.921875 -5.023438 8.015625 -5.441406 8.046875 -5.921875 Z M 8.046875 -5.921875 "/></g></g></g><g fill="#c1ff72" fill-opacity="1"><g transform="translate(43.810575, 795.813028)"><g><path d="M 9.09375 -7.78125 C 9 -7.78125 8.890625 -7.78125 8.765625 -7.78125 C 8.640625 -7.789062 8.515625 -7.804688 8.390625 -7.828125 C 8.273438 -7.859375 8.175781 -7.894531 8.09375 -7.9375 C 8.007812 -7.976562 7.96875 -8.03125 7.96875 -8.09375 C 7.96875 -8.3125 7.976562 -8.507812 8 -8.6875 C 8.019531 -8.875 8.03125 -9.070312 8.03125 -9.28125 C 8.03125 -9.644531 7.976562 -9.941406 7.875 -10.171875 C 7.769531 -10.410156 7.570312 -10.53125 7.28125 -10.53125 C 6.8125 -10.53125 6.421875 -10.222656 6.109375 -9.609375 C 5.804688 -9.003906 5.613281 -8.09375 5.53125 -6.875 C 5.488281 -6.34375 5.4375 -5.738281 5.375 -5.0625 C 5.320312 -4.382812 5.269531 -3.734375 5.21875 -3.109375 C 5.175781 -2.484375 5.132812 -1.925781 5.09375 -1.4375 C 5.0625 -0.957031 5.046875 -0.644531 5.046875 -0.5 C 5.046875 -0.332031 4.988281 -0.207031 4.875 -0.125 C 4.757812 -0.0390625 4.632812 0 4.5 0 L 3.59375 0 C 3.082031 0 2.660156 -0.0507812 2.328125 -0.15625 C 2.003906 -0.269531 1.75 -0.425781 1.5625 -0.625 C 1.375 -0.820312 1.238281 -1.066406 1.15625 -1.359375 C 1.082031 -1.648438 1.046875 -1.988281 1.046875 -2.375 C 1.046875 -2.625 1.054688 -2.976562 1.078125 -3.4375 C 1.109375 -3.894531 1.15625 -4.523438 1.21875 -5.328125 C 1.289062 -6.140625 1.367188 -7.164062 1.453125 -8.40625 C 1.546875 -9.65625 1.660156 -11.195312 1.796875 -13.03125 C 1.828125 -13.507812 2.003906 -13.75 2.328125 -13.75 L 3.296875 -13.75 C 3.765625 -13.75 4.15625 -13.695312 4.46875 -13.59375 C 4.789062 -13.5 5.050781 -13.363281 5.25 -13.1875 C 5.445312 -13.007812 5.59375 -12.800781 5.6875 -12.5625 C 5.78125 -12.332031 5.84375 -12.09375 5.875 -11.84375 C 6.070312 -12.226562 6.304688 -12.554688 6.578125 -12.828125 C 6.859375 -13.109375 7.148438 -13.335938 7.453125 -13.515625 C 7.753906 -13.691406 8.0625 -13.816406 8.375 -13.890625 C 8.6875 -13.960938 8.976562 -14 9.25 -14 C 9.5625 -14 9.878906 -13.941406 10.203125 -13.828125 C 10.535156 -13.710938 10.832031 -13.535156 11.09375 -13.296875 C 11.363281 -13.066406 11.578125 -12.765625 11.734375 -12.390625 C 11.890625 -12.023438 11.96875 -11.59375 11.96875 -11.09375 C 11.96875 -10.644531 11.898438 -10.21875 11.765625 -9.8125 C 11.640625 -9.414062 11.453125 -9.0625 11.203125 -8.75 C 10.953125 -8.445312 10.644531 -8.207031 10.28125 -8.03125 C 9.925781 -7.863281 9.53125 -7.78125 9.09375 -7.78125 Z M 9.09375 -7.78125 "/></g></g></g><g fill="#c1ff72" fill-opacity="1"><g transform="translate(55.78368, 795.813028)"><g><path d="M 9.09375 -7.78125 C 9 -7.78125 8.890625 -7.78125 8.765625 -7.78125 C 8.640625 -7.789062 8.515625 -7.804688 8.390625 -7.828125 C 8.273438 -7.859375 8.175781 -7.894531 8.09375 -7.9375 C 8.007812 -7.976562 7.96875 -8.03125 7.96875 -8.09375 C 7.96875 -8.3125 7.976562 -8.507812 8 -8.6875 C 8.019531 -8.875 8.03125 -9.070312 8.03125 -9.28125 C 8.03125 -9.644531 7.976562 -9.941406 7.875 -10.171875 C 7.769531 -10.410156 7.570312 -10.53125 7.28125 -10.53125 C 6.8125 -10.53125 6.421875 -10.222656 6.109375 -9.609375 C 5.804688 -9.003906 5.613281 -8.09375 5.53125 -6.875 C 5.488281 -6.34375 5.4375 -5.738281 5.375 -5.0625 C 5.320312 -4.382812 5.269531 -3.734375 5.21875 -3.109375 C 5.175781 -2.484375 5.132812 -1.925781 5.09375 -1.4375 C 5.0625 -0.957031 5.046875 -0.644531 5.046875 -0.5 C 5.046875 -0.332031 4.988281 -0.207031 4.875 -0.125 C 4.757812 -0.0390625 4.632812 0 4.5 0 L 3.59375 0 C 3.082031 0 2.660156 -0.0507812 2.328125 -0.15625 C 2.003906 -0.269531 1.75 -0.425781 1.5625 -0.625 C 1.375 -0.820312 1.238281 -1.066406 1.15625 -1.359375 C 1.082031 -1.648438 1.046875 -1.988281 1.046875 -2.375 C 1.046875 -2.625 1.054688 -2.976562 1.078125 -3.4375 C 1.109375 -3.894531 1.15625 -4.523438 1.21875 -5.328125 C 1.289062 -6.140625 1.367188 -7.164062 1.453125 -8.40625 C 1.546875 -9.65625 1.660156 -11.195312 1.796875 -13.03125 C 1.828125 -13.507812 2.003906 -13.75 2.328125 -13.75 L 3.296875 -13.75 C 3.765625 -13.75 4.15625 -13.695312 4.46875 -13.59375 C 4.789062 -13.5 5.050781 -13.363281 5.25 -13.1875 C 5.445312 -13.007812 5.59375 -12.800781 5.6875 -12.5625 C 5.78125 -12.332031 5.84375 -12.09375 5.875 -11.84375 C 6.070312 -12.226562 6.304688 -12.554688 6.578125 -12.828125 C 6.859375 -13.109375 7.148438 -13.335938 7.453125 -13.515625 C 7.753906 -13.691406 8.0625 -13.816406 8.375 -13.890625 C 8.6875 -13.960938 8.976562 -14 9.25 -14 C 9.5625 -14 9.878906 -13.941406 10.203125 -13.828125 C 10.535156 -13.710938 10.832031 -13.535156 11.09375 -13.296875 C 11.363281 -13.066406 11.578125 -12.765625 11.734375 -12.390625 C 11.890625 -12.023438 11.96875 -11.59375 11.96875 -11.09375 C 11.96875 -10.644531 11.898438 -10.21875 11.765625 -9.8125 C 11.640625 -9.414062 11.453125 -9.0625 11.203125 -8.75 C 10.953125 -8.445312 10.644531 -8.207031 10.28125 -8.03125 C 9.925781 -7.863281 9.53125 -7.78125 9.09375 -7.78125 Z M 9.09375 -7.78125 "/></g></g></g><g fill="#c1ff72" fill-opacity="1"><g transform="translate(67.756786, 795.813028)"><g><path d="M 5.796875 -11.453125 C 5.796875 -11.066406 5.769531 -10.609375 5.71875 -10.078125 C 5.675781 -9.554688 5.625 -9.03125 5.5625 -8.5 C 5.5 -7.976562 5.441406 -7.488281 5.390625 -7.03125 C 5.347656 -6.570312 5.328125 -6.21875 5.328125 -5.96875 C 5.328125 -5.34375 5.476562 -4.875 5.78125 -4.5625 C 6.09375 -4.25 6.472656 -4.09375 6.921875 -4.09375 C 7.703125 -4.09375 8.328125 -4.5 8.796875 -5.3125 C 9.265625 -6.132812 9.554688 -7.222656 9.671875 -8.578125 L 10.078125 -13.25 C 10.085938 -13.4375 10.144531 -13.566406 10.25 -13.640625 C 10.363281 -13.710938 10.488281 -13.75 10.625 -13.75 L 11.53125 -13.75 C 11.875 -13.75 12.195312 -13.71875 12.5 -13.65625 C 12.8125 -13.601562 13.082031 -13.492188 13.3125 -13.328125 C 13.550781 -13.171875 13.738281 -12.957031 13.875 -12.6875 C 14.007812 -12.425781 14.078125 -12.085938 14.078125 -11.671875 C 14.078125 -11.503906 14.0625 -11.191406 14.03125 -10.734375 C 14.007812 -10.273438 13.96875 -9.613281 13.90625 -8.75 C 13.851562 -7.894531 13.773438 -6.8125 13.671875 -5.5 C 13.578125 -4.195312 13.460938 -2.601562 13.328125 -0.71875 C 13.242188 0.375 12.992188 1.28125 12.578125 2 C 12.171875 2.726562 11.660156 3.304688 11.046875 3.734375 C 10.429688 4.160156 9.738281 4.457031 8.96875 4.625 C 8.207031 4.789062 7.425781 4.875 6.625 4.875 C 5.769531 4.875 4.988281 4.796875 4.28125 4.640625 C 3.570312 4.492188 2.957031 4.285156 2.4375 4.015625 C 1.925781 3.753906 1.523438 3.445312 1.234375 3.09375 C 0.941406 2.75 0.796875 2.375 0.796875 1.96875 C 0.796875 1.65625 0.863281 1.378906 1 1.140625 C 1.144531 0.910156 1.332031 0.71875 1.5625 0.5625 C 1.800781 0.414062 2.070312 0.304688 2.375 0.234375 C 2.6875 0.160156 3.007812 0.125 3.34375 0.125 C 3.507812 0.125 3.628906 0.207031 3.703125 0.375 C 3.785156 0.539062 3.90625 0.726562 4.0625 0.9375 C 4.21875 1.144531 4.46875 1.332031 4.8125 1.5 C 5.164062 1.664062 5.695312 1.75 6.40625 1.75 C 7.019531 1.75 7.515625 1.597656 7.890625 1.296875 C 8.273438 0.992188 8.570312 0.609375 8.78125 0.140625 C 8.988281 -0.316406 9.125 -0.820312 9.1875 -1.375 C 9.257812 -1.925781 9.296875 -2.453125 9.296875 -2.953125 C 9.035156 -2.484375 8.738281 -2.101562 8.40625 -1.8125 C 8.082031 -1.519531 7.742188 -1.296875 7.390625 -1.140625 C 7.046875 -0.984375 6.695312 -0.878906 6.34375 -0.828125 C 6 -0.773438 5.664062 -0.75 5.34375 -0.75 C 4.726562 -0.75 4.164062 -0.832031 3.65625 -1 C 3.15625 -1.164062 2.71875 -1.4375 2.34375 -1.8125 C 1.976562 -2.1875 1.695312 -2.671875 1.5 -3.265625 C 1.300781 -3.867188 1.203125 -4.597656 1.203125 -5.453125 C 1.203125 -5.765625 1.21875 -6.179688 1.25 -6.703125 C 1.28125 -7.234375 1.320312 -7.828125 1.375 -8.484375 C 1.425781 -9.140625 1.476562 -9.851562 1.53125 -10.625 C 1.59375 -11.394531 1.65625 -12.175781 1.71875 -12.96875 C 1.757812 -13.488281 1.992188 -13.75 2.421875 -13.75 L 3.21875 -13.75 C 3.757812 -13.75 4.195312 -13.695312 4.53125 -13.59375 C 4.863281 -13.5 5.125 -13.351562 5.3125 -13.15625 C 5.5 -12.96875 5.625 -12.726562 5.6875 -12.4375 C 5.757812 -12.144531 5.796875 -11.816406 5.796875 -11.453125 Z M 5.796875 -11.453125 "/></g></g></g><g fill="#c1ff72" fill-opacity="1"><g transform="translate(83.004367, 795.813028)"><g/></g></g><g fill="#d9d9d9" fill-opacity="1"><g transform="translate(88.384727, 795.813028)"><g><path d="M 12.46875 0 C 11.789062 0 11.285156 -0.0976562 10.953125 -0.296875 C 10.617188 -0.492188 10.375 -0.742188 10.21875 -1.046875 C 9.351562 -2.828125 8.539062 -4.535156 7.78125 -6.171875 C 7.03125 -7.804688 6.257812 -9.457031 5.46875 -11.125 C 5.488281 -9.320312 5.515625 -7.53125 5.546875 -5.75 C 5.578125 -3.96875 5.613281 -2.175781 5.65625 -0.375 C 5.65625 -0.125 5.519531 0 5.25 0 L 3.875 0 C 2.925781 0 2.253906 -0.1875 1.859375 -0.5625 C 1.472656 -0.9375 1.28125 -1.488281 1.28125 -2.21875 C 1.28125 -2.425781 1.289062 -2.765625 1.3125 -3.234375 C 1.332031 -3.710938 1.367188 -4.273438 1.421875 -4.921875 C 1.472656 -5.578125 1.523438 -6.289062 1.578125 -7.0625 C 1.640625 -7.832031 1.707031 -8.617188 1.78125 -9.421875 C 1.875 -10.691406 1.953125 -11.742188 2.015625 -12.578125 C 2.085938 -13.410156 2.144531 -14.113281 2.1875 -14.6875 C 2.226562 -15.257812 2.253906 -15.75 2.265625 -16.15625 C 2.285156 -16.570312 2.304688 -16.976562 2.328125 -17.375 C 2.328125 -17.625 2.457031 -17.75 2.71875 -17.75 L 4.71875 -17.75 C 5.269531 -17.75 5.71875 -17.6875 6.0625 -17.5625 C 6.414062 -17.4375 6.707031 -17.265625 6.9375 -17.046875 C 7.164062 -16.828125 7.34375 -16.582031 7.46875 -16.3125 C 7.601562 -16.039062 7.726562 -15.753906 7.84375 -15.453125 C 8.25 -14.421875 8.601562 -13.53125 8.90625 -12.78125 C 9.21875 -12.03125 9.488281 -11.367188 9.71875 -10.796875 C 9.957031 -10.234375 10.160156 -9.742188 10.328125 -9.328125 C 10.503906 -8.910156 10.664062 -8.523438 10.8125 -8.171875 C 10.96875 -7.828125 11.117188 -7.488281 11.265625 -7.15625 C 11.421875 -6.832031 11.582031 -6.476562 11.75 -6.09375 C 11.75 -7.082031 11.742188 -8.097656 11.734375 -9.140625 C 11.722656 -10.179688 11.710938 -11.195312 11.703125 -12.1875 C 11.703125 -13.175781 11.695312 -14.128906 11.6875 -15.046875 C 11.675781 -15.960938 11.671875 -16.789062 11.671875 -17.53125 C 11.671875 -17.675781 11.8125 -17.75 12.09375 -17.75 L 13.46875 -17.75 C 14.019531 -17.75 14.457031 -17.691406 14.78125 -17.578125 C 15.113281 -17.472656 15.367188 -17.316406 15.546875 -17.109375 C 15.734375 -16.898438 15.851562 -16.644531 15.90625 -16.34375 C 15.96875 -16.050781 16 -15.710938 16 -15.328125 C 16 -14.910156 15.972656 -14.269531 15.921875 -13.40625 C 15.867188 -12.550781 15.8125 -11.585938 15.75 -10.515625 C 15.6875 -9.453125 15.613281 -8.347656 15.53125 -7.203125 C 15.445312 -6.066406 15.363281 -5.015625 15.28125 -4.046875 C 15.207031 -3.078125 15.140625 -2.253906 15.078125 -1.578125 C 15.023438 -0.910156 14.988281 -0.519531 14.96875 -0.40625 C 14.96875 -0.269531 14.921875 -0.164062 14.828125 -0.09375 C 14.742188 -0.03125 14.644531 0 14.53125 0 Z M 12.46875 0 "/></g></g></g><g fill="#d9d9d9" fill-opacity="1"><g transform="translate(105.582003, 795.813028)"><g><path d="M 0.28125 -3.078125 C 0.28125 -4.578125 0.953125 -5.75 2.296875 -6.59375 C 3.648438 -7.445312 5.644531 -7.90625 8.28125 -7.96875 C 8.289062 -8.15625 8.300781 -8.3125 8.3125 -8.4375 C 8.320312 -8.5625 8.328125 -8.71875 8.328125 -8.90625 C 8.328125 -9.4375 8.222656 -9.859375 8.015625 -10.171875 C 7.816406 -10.492188 7.40625 -10.65625 6.78125 -10.65625 C 6.425781 -10.65625 6.140625 -10.601562 5.921875 -10.5 C 5.703125 -10.394531 5.523438 -10.253906 5.390625 -10.078125 C 5.265625 -9.910156 5.160156 -9.703125 5.078125 -9.453125 C 4.992188 -9.203125 4.914062 -8.925781 4.84375 -8.625 C 4.8125 -8.476562 4.738281 -8.382812 4.625 -8.34375 C 4.507812 -8.300781 4.328125 -8.28125 4.078125 -8.28125 C 2.378906 -8.28125 1.53125 -8.921875 1.53125 -10.203125 C 1.53125 -10.710938 1.648438 -11.203125 1.890625 -11.671875 C 2.128906 -12.140625 2.484375 -12.546875 2.953125 -12.890625 C 3.429688 -13.234375 4.03125 -13.503906 4.75 -13.703125 C 5.46875 -13.898438 6.300781 -14 7.25 -14 C 9.101562 -14 10.445312 -13.613281 11.28125 -12.84375 C 12.113281 -12.082031 12.53125 -11 12.53125 -9.59375 C 12.53125 -9.414062 12.507812 -9.085938 12.46875 -8.609375 C 12.425781 -8.140625 12.375 -7.640625 12.3125 -7.109375 C 12.25 -6.585938 12.195312 -6.09375 12.15625 -5.625 C 12.113281 -5.15625 12.09375 -4.832031 12.09375 -4.65625 C 12.09375 -4.238281 12.164062 -3.941406 12.3125 -3.765625 C 12.46875 -3.585938 12.640625 -3.460938 12.828125 -3.390625 C 13.023438 -3.328125 13.195312 -3.28125 13.34375 -3.25 C 13.5 -3.21875 13.578125 -3.132812 13.578125 -3 C 13.578125 -2.632812 13.523438 -2.257812 13.421875 -1.875 C 13.328125 -1.488281 13.164062 -1.132812 12.9375 -0.8125 C 12.707031 -0.5 12.394531 -0.242188 12 -0.046875 C 11.613281 0.148438 11.140625 0.25 10.578125 0.25 C 9.773438 0.25 9.171875 0.0546875 8.765625 -0.328125 C 8.367188 -0.710938 8.101562 -1.242188 7.96875 -1.921875 C 7.570312 -1.335938 7.050781 -0.828125 6.40625 -0.390625 C 5.769531 0.0351562 4.9375 0.25 3.90625 0.25 C 3.40625 0.25 2.929688 0.191406 2.484375 0.078125 C 2.046875 -0.0351562 1.660156 -0.226562 1.328125 -0.5 C 1.003906 -0.769531 0.75 -1.113281 0.5625 -1.53125 C 0.375 -1.957031 0.28125 -2.472656 0.28125 -3.078125 Z M 8.046875 -5.921875 C 7.617188 -5.921875 7.195312 -5.882812 6.78125 -5.8125 C 6.363281 -5.75 5.988281 -5.644531 5.65625 -5.5 C 5.332031 -5.363281 5.070312 -5.175781 4.875 -4.9375 C 4.675781 -4.707031 4.578125 -4.425781 4.578125 -4.09375 C 4.578125 -3.71875 4.695312 -3.453125 4.9375 -3.296875 C 5.175781 -3.148438 5.4375 -3.078125 5.71875 -3.078125 C 5.988281 -3.078125 6.253906 -3.132812 6.515625 -3.25 C 6.785156 -3.363281 7.023438 -3.539062 7.234375 -3.78125 C 7.441406 -4.03125 7.617188 -4.328125 7.765625 -4.671875 C 7.921875 -5.023438 8.015625 -5.441406 8.046875 -5.921875 Z M 8.046875 -5.921875 "/></g></g></g><g fill="#d9d9d9" fill-opacity="1"><g transform="translate(119.654779, 795.813028)"><g><path d="M 5.34375 -4.5 C 5.300781 -3.726562 5.242188 -3 5.171875 -2.3125 C 5.109375 -1.625 5.0625 -1.019531 5.03125 -0.5 C 5.007812 -0.300781 4.960938 -0.164062 4.890625 -0.09375 C 4.828125 -0.03125 4.6875 0 4.46875 0 L 3.578125 0 C 3.054688 0 2.632812 -0.0507812 2.3125 -0.15625 C 1.988281 -0.269531 1.726562 -0.425781 1.53125 -0.625 C 1.34375 -0.820312 1.210938 -1.066406 1.140625 -1.359375 C 1.066406 -1.648438 1.03125 -1.988281 1.03125 -2.375 C 1.03125 -2.625 1.039062 -2.976562 1.0625 -3.4375 C 1.082031 -3.894531 1.125 -4.523438 1.1875 -5.328125 C 1.257812 -6.140625 1.34375 -7.164062 1.4375 -8.40625 C 1.53125 -9.65625 1.644531 -11.195312 1.78125 -13.03125 C 1.789062 -13.394531 1.832031 -13.609375 1.90625 -13.671875 C 1.945312 -13.722656 2.078125 -13.75 2.296875 -13.75 L 3.28125 -13.75 C 3.78125 -13.75 4.1875 -13.691406 4.5 -13.578125 C 4.8125 -13.460938 5.066406 -13.3125 5.265625 -13.125 C 5.472656 -12.9375 5.617188 -12.71875 5.703125 -12.46875 C 5.785156 -12.21875 5.832031 -11.960938 5.84375 -11.703125 C 6.332031 -12.597656 6.882812 -13.203125 7.5 -13.515625 C 8.113281 -13.835938 8.835938 -14 9.671875 -14 C 10.117188 -14 10.550781 -13.957031 10.96875 -13.875 C 11.382812 -13.789062 11.757812 -13.648438 12.09375 -13.453125 C 12.425781 -13.253906 12.707031 -12.988281 12.9375 -12.65625 C 13.175781 -12.332031 13.347656 -11.921875 13.453125 -11.421875 C 13.960938 -12.390625 14.523438 -13.0625 15.140625 -13.4375 C 15.765625 -13.8125 16.539062 -14 17.46875 -14 C 17.988281 -14 18.484375 -13.941406 18.953125 -13.828125 C 19.429688 -13.722656 19.84375 -13.535156 20.1875 -13.265625 C 20.539062 -13.003906 20.820312 -12.644531 21.03125 -12.1875 C 21.238281 -11.726562 21.34375 -11.15625 21.34375 -10.46875 C 21.34375 -9.957031 21.316406 -9.328125 21.265625 -8.578125 C 21.222656 -7.828125 21.164062 -7.015625 21.09375 -6.140625 C 21.03125 -5.265625 20.957031 -4.363281 20.875 -3.4375 C 20.789062 -2.507812 20.722656 -1.625 20.671875 -0.78125 C 20.660156 -0.59375 20.644531 -0.445312 20.625 -0.34375 C 20.601562 -0.25 20.570312 -0.175781 20.53125 -0.125 C 20.488281 -0.0703125 20.425781 -0.0351562 20.34375 -0.015625 C 20.257812 -0.00390625 20.144531 0 20 0 L 19.203125 0 C 18.671875 0 18.238281 -0.046875 17.90625 -0.140625 C 17.570312 -0.242188 17.3125 -0.382812 17.125 -0.5625 C 16.9375 -0.75 16.804688 -0.976562 16.734375 -1.25 C 16.660156 -1.53125 16.625 -1.847656 16.625 -2.203125 C 16.625 -2.421875 16.632812 -2.726562 16.65625 -3.125 C 16.6875 -3.519531 16.722656 -3.953125 16.765625 -4.421875 C 16.804688 -4.890625 16.847656 -5.375 16.890625 -5.875 C 16.929688 -6.375 16.972656 -6.835938 17.015625 -7.265625 C 17.054688 -7.691406 17.085938 -8.0625 17.109375 -8.375 C 17.140625 -8.6875 17.15625 -8.894531 17.15625 -9 C 17.15625 -9.4375 17.066406 -9.820312 16.890625 -10.15625 C 16.710938 -10.488281 16.375 -10.65625 15.875 -10.65625 C 15.4375 -10.65625 15.0625 -10.507812 14.75 -10.21875 C 14.4375 -9.9375 14.171875 -9.546875 13.953125 -9.046875 C 13.734375 -8.546875 13.554688 -7.953125 13.421875 -7.265625 C 13.285156 -6.585938 13.195312 -5.847656 13.15625 -5.046875 C 13.113281 -4.535156 13.066406 -3.945312 13.015625 -3.28125 C 12.972656 -2.613281 12.914062 -1.78125 12.84375 -0.78125 C 12.832031 -0.59375 12.816406 -0.445312 12.796875 -0.34375 C 12.785156 -0.25 12.757812 -0.175781 12.71875 -0.125 C 12.675781 -0.0703125 12.613281 -0.0351562 12.53125 -0.015625 C 12.445312 -0.00390625 12.328125 0 12.171875 0 L 11.375 0 C 10.84375 0 10.410156 -0.046875 10.078125 -0.140625 C 9.742188 -0.242188 9.484375 -0.382812 9.296875 -0.5625 C 9.117188 -0.75 8.988281 -0.976562 8.90625 -1.25 C 8.832031 -1.53125 8.796875 -1.847656 8.796875 -2.203125 C 8.796875 -2.535156 8.820312 -3.019531 8.875 -3.65625 C 8.9375 -4.300781 9 -4.96875 9.0625 -5.65625 C 9.125 -6.351562 9.179688 -7.015625 9.234375 -7.640625 C 9.296875 -8.265625 9.328125 -8.71875 9.328125 -9 C 9.328125 -9.4375 9.238281 -9.820312 9.0625 -10.15625 C 8.882812 -10.488281 8.546875 -10.65625 8.046875 -10.65625 C 7.597656 -10.65625 7.210938 -10.488281 6.890625 -10.15625 C 6.578125 -9.820312 6.316406 -9.375 6.109375 -8.8125 C 5.898438 -8.25 5.734375 -7.59375 5.609375 -6.84375 C 5.484375 -6.09375 5.394531 -5.3125 5.34375 -4.5 Z M 5.34375 -4.5 "/></g></g></g><g fill="#d9d9d9" fill-opacity="1"><g transform="translate(142.201207, 795.813028)"><g><path d="M 5.59375 0.25 C 4.945312 0.25 4.328125 0.132812 3.734375 -0.09375 C 3.140625 -0.332031 2.625 -0.703125 2.1875 -1.203125 C 1.75 -1.703125 1.398438 -2.332031 1.140625 -3.09375 C 0.878906 -3.863281 0.75 -4.789062 0.75 -5.875 C 0.75 -6.351562 0.78125 -6.890625 0.84375 -7.484375 C 0.914062 -8.078125 1.035156 -8.671875 1.203125 -9.265625 C 1.367188 -9.867188 1.597656 -10.453125 1.890625 -11.015625 C 2.191406 -11.585938 2.570312 -12.09375 3.03125 -12.53125 C 3.488281 -12.976562 4.039062 -13.332031 4.6875 -13.59375 C 5.332031 -13.863281 6.085938 -14 6.953125 -14 C 7.785156 -14 8.453125 -13.851562 8.953125 -13.5625 C 9.460938 -13.269531 9.785156 -12.765625 9.921875 -12.046875 C 9.953125 -12.703125 9.984375 -13.269531 10.015625 -13.75 C 10.054688 -14.226562 10.085938 -14.675781 10.109375 -15.09375 C 10.140625 -15.507812 10.171875 -15.925781 10.203125 -16.34375 C 10.234375 -16.757812 10.265625 -17.238281 10.296875 -17.78125 C 10.316406 -18.144531 10.359375 -18.359375 10.421875 -18.421875 C 10.453125 -18.453125 10.492188 -18.472656 10.546875 -18.484375 C 10.597656 -18.492188 10.691406 -18.5 10.828125 -18.5 L 11.796875 -18.5 C 12.296875 -18.5 12.710938 -18.441406 13.046875 -18.328125 C 13.378906 -18.210938 13.644531 -18.050781 13.84375 -17.84375 C 14.050781 -17.644531 14.195312 -17.414062 14.28125 -17.15625 C 14.363281 -16.90625 14.40625 -16.632812 14.40625 -16.34375 C 14.40625 -16.34375 14.382812 -16.132812 14.34375 -15.71875 C 14.3125 -15.300781 14.269531 -14.75 14.21875 -14.0625 C 14.175781 -13.375 14.117188 -12.585938 14.046875 -11.703125 C 13.984375 -10.816406 13.914062 -9.898438 13.84375 -8.953125 C 13.78125 -8.015625 13.710938 -7.082031 13.640625 -6.15625 C 13.578125 -5.238281 13.507812 -4.390625 13.4375 -3.609375 C 13.375 -2.835938 13.320312 -2.171875 13.28125 -1.609375 C 13.238281 -1.054688 13.210938 -0.6875 13.203125 -0.5 C 13.171875 -0.300781 13.128906 -0.164062 13.078125 -0.09375 C 13.023438 -0.03125 12.882812 0 12.65625 0 L 11.75 0 C 11.394531 0 11.0625 -0.0234375 10.75 -0.078125 C 10.445312 -0.140625 10.179688 -0.238281 9.953125 -0.375 C 9.734375 -0.519531 9.5625 -0.710938 9.4375 -0.953125 C 9.3125 -1.203125 9.25 -1.519531 9.25 -1.90625 C 8.945312 -1.269531 8.488281 -0.75 7.875 -0.34375 C 7.269531 0.0507812 6.507812 0.25 5.59375 0.25 Z M 7.78125 -10.671875 C 6.925781 -10.671875 6.296875 -10.300781 5.890625 -9.5625 C 5.484375 -8.820312 5.28125 -7.828125 5.28125 -6.578125 C 5.28125 -6.140625 5.304688 -5.710938 5.359375 -5.296875 C 5.421875 -4.878906 5.523438 -4.503906 5.671875 -4.171875 C 5.828125 -3.835938 6.03125 -3.570312 6.28125 -3.375 C 6.539062 -3.175781 6.875 -3.078125 7.28125 -3.078125 C 7.988281 -3.078125 8.582031 -3.425781 9.0625 -4.125 C 9.550781 -4.820312 9.796875 -5.921875 9.796875 -7.421875 C 9.796875 -7.835938 9.769531 -8.238281 9.71875 -8.625 C 9.675781 -9.019531 9.578125 -9.367188 9.421875 -9.671875 C 9.273438 -9.972656 9.066406 -10.210938 8.796875 -10.390625 C 8.535156 -10.578125 8.195312 -10.671875 7.78125 -10.671875 Z M 7.78125 -10.671875 "/></g></g></g><g fill="#d9d9d9" fill-opacity="1"><g transform="translate(157.398799, 795.813028)"><g><path d="M 0.28125 -3.078125 C 0.28125 -4.578125 0.953125 -5.75 2.296875 -6.59375 C 3.648438 -7.445312 5.644531 -7.90625 8.28125 -7.96875 C 8.289062 -8.15625 8.300781 -8.3125 8.3125 -8.4375 C 8.320312 -8.5625 8.328125 -8.71875 8.328125 -8.90625 C 8.328125 -9.4375 8.222656 -9.859375 8.015625 -10.171875 C 7.816406 -10.492188 7.40625 -10.65625 6.78125 -10.65625 C 6.425781 -10.65625 6.140625 -10.601562 5.921875 -10.5 C 5.703125 -10.394531 5.523438 -10.253906 5.390625 -10.078125 C 5.265625 -9.910156 5.160156 -9.703125 5.078125 -9.453125 C 4.992188 -9.203125 4.914062 -8.925781 4.84375 -8.625 C 4.8125 -8.476562 4.738281 -8.382812 4.625 -8.34375 C 4.507812 -8.300781 4.328125 -8.28125 4.078125 -8.28125 C 2.378906 -8.28125 1.53125 -8.921875 1.53125 -10.203125 C 1.53125 -10.710938 1.648438 -11.203125 1.890625 -11.671875 C 2.128906 -12.140625 2.484375 -12.546875 2.953125 -12.890625 C 3.429688 -13.234375 4.03125 -13.503906 4.75 -13.703125 C 5.46875 -13.898438 6.300781 -14 7.25 -14 C 9.101562 -14 10.445312 -13.613281 11.28125 -12.84375 C 12.113281 -12.082031 12.53125 -11 12.53125 -9.59375 C 12.53125 -9.414062 12.507812 -9.085938 12.46875 -8.609375 C 12.425781 -8.140625 12.375 -7.640625 12.3125 -7.109375 C 12.25 -6.585938 12.195312 -6.09375 12.15625 -5.625 C 12.113281 -5.15625 12.09375 -4.832031 12.09375 -4.65625 C 12.09375 -4.238281 12.164062 -3.941406 12.3125 -3.765625 C 12.46875 -3.585938 12.640625 -3.460938 12.828125 -3.390625 C 13.023438 -3.328125 13.195312 -3.28125 13.34375 -3.25 C 13.5 -3.21875 13.578125 -3.132812 13.578125 -3 C 13.578125 -2.632812 13.523438 -2.257812 13.421875 -1.875 C 13.328125 -1.488281 13.164062 -1.132812 12.9375 -0.8125 C 12.707031 -0.5 12.394531 -0.242188 12 -0.046875 C 11.613281 0.148438 11.140625 0.25 10.578125 0.25 C 9.773438 0.25 9.171875 0.0546875 8.765625 -0.328125 C 8.367188 -0.710938 8.101562 -1.242188 7.96875 -1.921875 C 7.570312 -1.335938 7.050781 -0.828125 6.40625 -0.390625 C 5.769531 0.0351562 4.9375 0.25 3.90625 0.25 C 3.40625 0.25 2.929688 0.191406 2.484375 0.078125 C 2.046875 -0.0351562 1.660156 -0.226562 1.328125 -0.5 C 1.003906 -0.769531 0.75 -1.113281 0.5625 -1.53125 C 0.375 -1.957031 0.28125 -2.472656 0.28125 -3.078125 Z M 8.046875 -5.921875 C 7.617188 -5.921875 7.195312 -5.882812 6.78125 -5.8125 C 6.363281 -5.75 5.988281 -5.644531 5.65625 -5.5 C 5.332031 -5.363281 5.070312 -5.175781 4.875 -4.9375 C 4.675781 -4.707031 4.578125 -4.425781 4.578125 -4.09375 C 4.578125 -3.71875 4.695312 -3.453125 4.9375 -3.296875 C 5.175781 -3.148438 5.4375 -3.078125 5.71875 -3.078125 C 5.988281 -3.078125 6.253906 -3.132812 6.515625 -3.25 C 6.785156 -3.363281 7.023438 -3.539062 7.234375 -3.78125 C 7.441406 -4.03125 7.617188 -4.328125 7.765625 -4.671875 C 7.921875 -5.023438 8.015625 -5.441406 8.046875 -5.921875 Z M 8.046875 -5.921875 "/></g></g></g><g fill="#d9d9d9" fill-opacity="1"><g transform="translate(171.471575, 795.813028)"><g><path d="M 9.09375 -7.78125 C 9 -7.78125 8.890625 -7.78125 8.765625 -7.78125 C 8.640625 -7.789062 8.515625 -7.804688 8.390625 -7.828125 C 8.273438 -7.859375 8.175781 -7.894531 8.09375 -7.9375 C 8.007812 -7.976562 7.96875 -8.03125 7.96875 -8.09375 C 7.96875 -8.3125 7.976562 -8.507812 8 -8.6875 C 8.019531 -8.875 8.03125 -9.070312 8.03125 -9.28125 C 8.03125 -9.644531 7.976562 -9.941406 7.875 -10.171875 C 7.769531 -10.410156 7.570312 -10.53125 7.28125 -10.53125 C 6.8125 -10.53125 6.421875 -10.222656 6.109375 -9.609375 C 5.804688 -9.003906 5.613281 -8.09375 5.53125 -6.875 C 5.488281 -6.34375 5.4375 -5.738281 5.375 -5.0625 C 5.320312 -4.382812 5.269531 -3.734375 5.21875 -3.109375 C 5.175781 -2.484375 5.132812 -1.925781 5.09375 -1.4375 C 5.0625 -0.957031 5.046875 -0.644531 5.046875 -0.5 C 5.046875 -0.332031 4.988281 -0.207031 4.875 -0.125 C 4.757812 -0.0390625 4.632812 0 4.5 0 L 3.59375 0 C 3.082031 0 2.660156 -0.0507812 2.328125 -0.15625 C 2.003906 -0.269531 1.75 -0.425781 1.5625 -0.625 C 1.375 -0.820312 1.238281 -1.066406 1.15625 -1.359375 C 1.082031 -1.648438 1.046875 -1.988281 1.046875 -2.375 C 1.046875 -2.625 1.054688 -2.976562 1.078125 -3.4375 C 1.109375 -3.894531 1.15625 -4.523438 1.21875 -5.328125 C 1.289062 -6.140625 1.367188 -7.164062 1.453125 -8.40625 C 1.546875 -9.65625 1.660156 -11.195312 1.796875 -13.03125 C 1.828125 -13.507812 2.003906 -13.75 2.328125 -13.75 L 3.296875 -13.75 C 3.765625 -13.75 4.15625 -13.695312 4.46875 -13.59375 C 4.789062 -13.5 5.050781 -13.363281 5.25 -13.1875 C 5.445312 -13.007812 5.59375 -12.800781 5.6875 -12.5625 C 5.78125 -12.332031 5.84375 -12.09375 5.875 -11.84375 C 6.070312 -12.226562 6.304688 -12.554688 6.578125 -12.828125 C 6.859375 -13.109375 7.148438 -13.335938 7.453125 -13.515625 C 7.753906 -13.691406 8.0625 -13.816406 8.375 -13.890625 C 8.6875 -13.960938 8.976562 -14 9.25 -14 C 9.5625 -14 9.878906 -13.941406 10.203125 -13.828125 C 10.535156 -13.710938 10.832031 -13.535156 11.09375 -13.296875 C 11.363281 -13.066406 11.578125 -12.765625 11.734375 -12.390625 C 11.890625 -12.023438 11.96875 -11.59375 11.96875 -11.09375 C 11.96875 -10.644531 11.898438 -10.21875 11.765625 -9.8125 C 11.640625 -9.414062 11.453125 -9.0625 11.203125 -8.75 C 10.953125 -8.445312 10.644531 -8.207031 10.28125 -8.03125 C 9.925781 -7.863281 9.53125 -7.78125 9.09375 -7.78125 Z M 9.09375 -7.78125 "/></g></g></g><g fill="#d9d9d9" fill-opacity="1"><g transform="translate(183.444681, 795.813028)"><g><path d="M 3.59375 0 C 3.082031 0 2.660156 -0.0507812 2.328125 -0.15625 C 2.003906 -0.269531 1.75 -0.425781 1.5625 -0.625 C 1.375 -0.820312 1.238281 -1.066406 1.15625 -1.359375 C 1.082031 -1.648438 1.046875 -1.988281 1.046875 -2.375 C 1.046875 -2.625 1.054688 -2.976562 1.078125 -3.4375 C 1.109375 -3.894531 1.15625 -4.523438 1.21875 -5.328125 C 1.289062 -6.140625 1.367188 -7.164062 1.453125 -8.40625 C 1.546875 -9.65625 1.660156 -11.195312 1.796875 -13.03125 C 1.816406 -13.394531 1.859375 -13.609375 1.921875 -13.671875 C 1.972656 -13.722656 2.109375 -13.75 2.328125 -13.75 L 3.296875 -13.75 C 3.816406 -13.75 4.238281 -13.695312 4.5625 -13.59375 C 4.882812 -13.5 5.140625 -13.347656 5.328125 -13.140625 C 5.523438 -12.941406 5.660156 -12.703125 5.734375 -12.421875 C 5.804688 -12.140625 5.84375 -11.820312 5.84375 -11.46875 C 5.84375 -11.21875 5.828125 -10.84375 5.796875 -10.34375 C 5.765625 -9.84375 5.71875 -9.164062 5.65625 -8.3125 C 5.601562 -7.457031 5.523438 -6.390625 5.421875 -5.109375 C 5.328125 -3.835938 5.203125 -2.300781 5.046875 -0.5 C 5.035156 -0.300781 4.992188 -0.164062 4.921875 -0.09375 C 4.859375 -0.03125 4.71875 0 4.5 0 Z M 1.828125 -16.703125 C 1.828125 -17.367188 2.066406 -17.890625 2.546875 -18.265625 C 3.035156 -18.648438 3.6875 -18.84375 4.5 -18.84375 C 5.21875 -18.84375 5.738281 -18.695312 6.0625 -18.40625 C 6.382812 -18.113281 6.546875 -17.726562 6.546875 -17.25 C 6.546875 -16.632812 6.316406 -16.117188 5.859375 -15.703125 C 5.398438 -15.296875 4.726562 -15.09375 3.84375 -15.09375 C 2.5 -15.09375 1.828125 -15.628906 1.828125 -16.703125 Z M 1.828125 -16.703125 "/></g></g></g></svg>