<svg xmlns="http://www.w3.org/2000/svg" xmlns:xlink="http://www.w3.org/1999/xlink" width="1920" zoomAndPan="magnify" viewBox="0 0 1440 809.999993" height="1080" preserveAspectRatio="xMidYMid meet" version="1.0"><defs><g/><clipPath id="b683487e9c"><path d="M 432 597.957031 L 598 597.957031 L 598 729.207031 L 432 729.207031 Z M 432 597.957031 " clip-rule="nonzero"/></clipPath><clipPath id="5efed6ea7b"><path d="M 959 644 L 1008 644 L 1008 711 L 959 711 Z M 959 644 " clip-rule="nonzero"/></clipPath></defs><rect x="-144" width="1728" fill="#ffffff" y="-80.999999" height="971.999992" fill-opacity="1"/><rect x="-144" width="1728" fill="#ffffff" y="-80.999999" height="971.999992" fill-opacity="1"/><g clip-path="url(#b683487e9c)"><path fill="#1d63ed" d="M 595.269531 651.886719 C 591.199219 649.140625 580.507812 647.96875 572.734375 650.070312 C 572.320312 642.3125 568.324219 635.777344 561.019531 630.074219 L 558.316406 628.257812 L 556.515625 630.984375 C 552.976562 636.371094 551.480469 643.546875 552.011719 650.070312 C 552.425781 654.089844 553.820312 658.605469 556.515625 661.882812 C 546.398438 667.761719 537.074219 666.425781 495.777344 666.425781 L 432.015625 666.425781 C 431.828125 675.765625 433.328125 693.730469 444.734375 708.359375 C 445.996094 709.976562 447.375 711.539062 448.875 713.042969 C 458.148438 722.34375 472.164062 729.167969 493.117188 729.183594 C 525.082031 729.214844 552.46875 711.90625 569.128906 670.0625 C 574.609375 670.148438 589.082031 671.046875 596.164062 657.339844 C 596.339844 657.109375 597.96875 653.703125 597.96875 653.703125 Z M 473.625 643.34375 L 455.695312 643.34375 L 455.695312 661.304688 L 473.625 661.304688 Z M 496.789062 643.34375 L 478.859375 643.34375 L 478.859375 661.304688 L 496.789062 661.304688 Z M 519.953125 643.34375 L 502.023438 643.34375 L 502.023438 661.304688 L 519.953125 661.304688 Z M 543.117188 643.34375 L 525.1875 643.34375 L 525.1875 661.304688 L 543.117188 661.304688 Z M 450.460938 643.34375 L 432.53125 643.34375 L 432.53125 661.304688 L 450.460938 661.304688 Z M 473.625 620.664062 L 455.695312 620.664062 L 455.695312 638.621094 L 473.625 638.621094 Z M 496.789062 620.664062 L 478.859375 620.664062 L 478.859375 638.621094 L 496.789062 638.621094 Z M 519.953125 620.664062 L 502.023438 620.664062 L 502.023438 638.621094 L 519.953125 638.621094 Z M 519.953125 597.976562 L 502.023438 597.976562 L 502.023438 615.9375 L 519.953125 615.9375 Z M 519.953125 597.976562 " fill-opacity="1" fill-rule="nonzero"/></g><path fill="#1d63ed" d="M 1006.886719 701.625 C 1006.886719 706.308594 1003.21875 709.980469 998.445312 709.980469 C 993.671875 709.980469 989.949219 706.308594 989.949219 701.625 C 989.949219 696.941406 993.71875 693.367188 998.445312 693.367188 C 1003.171875 693.367188 1006.886719 697.042969 1006.886719 701.625 Z M 992.0625 701.625 C 992.0625 705.300781 994.777344 708.21875 998.496094 708.21875 C 1002.214844 708.21875 1004.78125 705.300781 1004.78125 701.675781 C 1004.78125 698.054688 1002.113281 695.03125 998.449219 695.03125 C 994.785156 695.03125 992.066406 698 992.066406 701.625 Z M 997.140625 705.957031 L 995.230469 705.957031 L 995.230469 697.699219 C 995.980469 697.546875 997.039062 697.449219 998.394531 697.449219 C 999.953125 697.449219 1000.65625 697.699219 1001.261719 698.054688 C 1001.714844 698.402344 1002.066406 699.058594 1002.066406 699.863281 C 1002.066406 700.773438 1001.359375 701.476562 1000.359375 701.777344 L 1000.359375 701.878906 C 1001.160156 702.179688 1001.613281 702.785156 1001.863281 703.890625 C 1002.113281 705.148438 1002.265625 705.652344 1002.46875 705.957031 L 1000.410156 705.957031 C 1000.15625 705.652344 1000.003906 704.898438 999.753906 703.941406 C 999.605469 703.035156 999.101562 702.632812 998.042969 702.632812 L 997.140625 702.632812 Z M 997.1875 701.273438 L 998.089844 701.273438 C 999.148438 701.273438 1000 700.921875 1000 700.066406 C 1000 699.3125 999.449219 698.804688 998.242188 698.804688 C 997.742188 698.804688 997.386719 698.855469 997.1875 698.910156 Z M 997.1875 701.273438 " fill-opacity="1" fill-rule="nonzero"/><path fill="#1d63ed" d="M 683.027344 618.070312 C 681.84375 616.914062 680.425781 616.324219 678.726562 616.324219 C 677.023438 616.324219 675.5625 616.914062 674.425781 618.070312 C 673.285156 619.226562 672.726562 620.710938 672.726562 622.476562 L 672.726562 651.992188 C 666.878906 647.148438 660.128906 644.707031 652.453125 644.707031 C 643.527344 644.707031 635.898438 647.933594 629.574219 654.414062 C 623.25 660.871094 620.113281 668.683594 620.113281 677.84375 C 620.113281 687.003906 623.273438 694.792969 629.574219 701.269531 C 635.898438 707.726562 643.507812 710.980469 652.453125 710.980469 C 661.394531 710.980469 668.921875 707.75 675.328125 701.269531 C 681.652344 694.878906 684.792969 687.070312 684.792969 677.84375 L 684.792969 622.476562 C 684.792969 620.710938 684.210938 619.226562 683.027344 618.070312 Z M 671.136719 685.828125 L 671.136719 685.871094 C 670.082031 688.378906 668.640625 690.582031 666.816406 692.460938 C 664.988281 694.359375 662.835938 695.839844 660.386719 696.953125 C 657.914062 698.066406 655.289062 698.613281 652.472656 698.613281 C 649.65625 698.613281 646.96875 698.066406 644.496094 696.953125 C 642.023438 695.839844 639.894531 694.359375 638.089844 692.480469 C 636.285156 690.605469 634.84375 688.402344 633.792969 685.894531 C 632.738281 683.363281 632.199219 680.679688 632.199219 677.84375 C 632.199219 675.003906 632.738281 672.324219 633.792969 669.792969 C 634.84375 667.261719 636.285156 665.082031 638.089844 663.203125 C 639.898438 661.328125 642.046875 659.84375 644.496094 658.734375 C 646.96875 657.621094 649.617188 657.074219 652.472656 657.074219 C 655.332031 657.074219 657.914062 657.621094 660.386719 658.734375 C 662.859375 659.84375 664.988281 661.328125 666.816406 663.226562 C 668.640625 665.125 670.082031 667.328125 671.136719 669.8125 C 672.191406 672.324219 672.726562 674.984375 672.726562 677.820312 C 672.726562 680.65625 672.191406 683.339844 671.136719 685.828125 Z M 671.136719 685.828125 " fill-opacity="1" fill-rule="nonzero"/><path fill="#1d63ed" d="M 950.207031 665.125 C 948.636719 661.195312 946.246094 657.640625 943.109375 654.457031 L 943.066406 654.433594 C 936.679688 647.976562 929.042969 644.726562 920.1875 644.726562 C 911.335938 644.726562 903.632812 647.957031 897.308594 654.433594 C 890.984375 660.890625 887.847656 668.703125 887.847656 677.863281 C 887.847656 687.023438 891.011719 694.8125 897.308594 701.292969 C 903.632812 707.746094 911.246094 711 920.1875 711 C 928.3125 711 935.34375 708.316406 941.324219 702.949219 C 942.480469 701.730469 943.066406 700.246094 943.066406 698.519531 C 943.066406 696.792969 942.507812 695.269531 941.367188 694.113281 C 940.226562 692.957031 938.789062 692.367188 937.066406 692.367188 C 935.5625 692.414062 934.230469 692.914062 933.089844 693.917969 C 931.285156 695.488281 929.328125 696.6875 927.199219 697.476562 C 925.070312 698.261719 922.75 698.652344 920.214844 698.652344 C 917.976562 698.652344 915.824219 698.304688 913.785156 697.585938 C 911.738281 696.867188 909.828125 695.882812 908.128906 694.597656 C 906.40625 693.308594 904.925781 691.785156 903.65625 689.972656 C 902.386719 688.183594 901.421875 686.199219 900.777344 684.019531 L 946.511719 684.019531 C 948.207031 684.019531 949.625 683.429688 950.8125 682.273438 C 951.996094 681.117188 952.574219 679.632812 952.574219 677.863281 C 952.574219 673.285156 951.777344 669.03125 950.210938 665.125 Z M 900.730469 671.710938 C 901.355469 669.550781 902.300781 667.566406 903.566406 665.757812 C 904.839844 663.96875 906.339844 662.421875 908.0625 661.132812 C 909.804688 659.84375 911.695312 658.863281 913.78125 658.144531 C 915.863281 657.425781 917.988281 657.078125 920.1875 657.078125 C 922.386719 657.078125 924.511719 657.425781 926.570312 658.144531 C 928.636719 658.863281 930.53125 659.84375 932.226562 661.132812 C 933.949219 662.421875 935.453125 663.945312 936.722656 665.757812 C 938.011719 667.546875 938.980469 669.53125 939.648438 671.710938 L 900.726562 671.710938 Z M 900.730469 671.710938 " fill-opacity="1" fill-rule="nonzero"/><g clip-path="url(#5efed6ea7b)"><path fill="#1d63ed" d="M 1006.410156 648.871094 C 1005.335938 647.804688 1003.980469 646.972656 1002.347656 646.363281 C 1000.710938 645.753906 998.929688 645.335938 996.972656 645.097656 C 995.035156 644.859375 993.207031 644.75 991.511719 644.75 C 987.660156 644.75 984.046875 645.382812 980.652344 646.648438 C 977.253906 647.914062 974.117188 649.722656 971.234375 652.078125 L 971.234375 650.902344 C 971.234375 649.199219 970.652344 647.761719 969.46875 646.5625 C 968.289062 645.363281 966.890625 644.75 965.234375 644.75 C 963.582031 644.75 962.117188 645.363281 960.9375 646.5625 C 959.753906 647.761719 959.171875 649.222656 959.171875 650.902344 L 959.171875 704.851562 C 959.171875 706.550781 959.753906 707.992188 960.9375 709.191406 C 962.117188 710.390625 963.535156 711 965.234375 711 C 966.9375 711 968.308594 710.390625 969.46875 709.191406 C 970.652344 707.992188 971.234375 706.527344 971.234375 704.851562 L 971.234375 677.863281 C 971.234375 674.984375 971.769531 672.28125 972.824219 669.75 C 973.878906 667.21875 975.320312 665.039062 977.144531 663.164062 C 978.976562 661.285156 981.125 659.804688 983.574219 658.734375 C 986.046875 657.640625 988.671875 657.097656 991.492188 657.097656 C 994.308594 657.097656 996.972656 657.597656 999.402344 658.578125 C 1000.371094 659.015625 1001.210938 659.234375 1001.941406 659.234375 C 1002.78125 659.234375 1003.574219 659.082031 1004.304688 658.753906 C 1005.035156 658.429688 1005.683594 657.992188 1006.21875 657.425781 C 1006.757812 656.859375 1007.1875 656.203125 1007.507812 655.441406 C 1007.832031 654.699219 1008.003906 653.890625 1008.003906 653.019531 C 1008.003906 651.316406 1007.46875 649.941406 1006.394531 648.871094 L 1006.414062 648.871094 Z M 1006.410156 648.871094 " fill-opacity="1" fill-rule="nonzero"/></g><path fill="#1d63ed" d="M 753.9375 665.148438 C 752.367188 661.242188 750.023438 657.664062 746.863281 654.4375 C 740.480469 647.980469 732.847656 644.730469 723.988281 644.730469 C 715.128906 644.730469 707.433594 647.957031 701.109375 654.4375 C 694.785156 660.894531 691.648438 668.703125 691.648438 677.863281 C 691.648438 687.027344 694.8125 694.816406 701.109375 701.292969 C 707.433594 707.75 715.042969 711 723.988281 711 C 732.929688 711 740.457031 707.773438 746.863281 701.292969 C 753.1875 694.902344 756.328125 687.09375 756.328125 677.863281 C 756.28125 673.285156 755.488281 669.054688 753.941406 665.148438 Z M 742.671875 685.828125 L 742.671875 685.871094 C 741.617188 688.378906 740.175781 690.582031 738.351562 692.460938 C 736.523438 694.359375 734.371094 695.839844 731.921875 696.953125 C 729.46875 698.066406 726.824219 698.613281 724.007812 698.613281 C 721.191406 698.613281 718.503906 698.066406 716.03125 696.953125 C 713.558594 695.839844 711.429688 694.359375 709.625 692.480469 C 707.820312 690.605469 706.378906 688.402344 705.328125 685.894531 C 704.273438 683.363281 703.734375 680.679688 703.734375 677.84375 C 703.734375 675.003906 704.273438 672.324219 705.328125 669.792969 C 706.378906 667.261719 707.820312 665.082031 709.625 663.203125 C 711.433594 661.328125 713.582031 659.84375 716.03125 658.734375 C 718.503906 657.621094 721.152344 657.074219 724.007812 657.074219 C 726.867188 657.074219 729.449219 657.621094 731.921875 658.734375 C 734.394531 659.84375 736.523438 661.328125 738.351562 663.226562 C 740.175781 665.125 741.617188 667.328125 742.671875 669.8125 C 743.726562 672.324219 744.261719 674.984375 744.261719 677.820312 C 744.261719 680.65625 743.726562 683.339844 742.671875 685.828125 Z M 742.671875 685.828125 " fill-opacity="1" fill-rule="nonzero"/><path fill="#1d63ed" d="M 883.289062 650.878906 C 883.289062 650.050781 883.117188 649.265625 882.796875 648.523438 C 882.472656 647.78125 882.042969 647.105469 881.503906 646.539062 C 880.964844 645.972656 880.320312 645.511719 879.589844 645.207031 C 878.859375 644.90625 878.066406 644.730469 877.226562 644.730469 C 876.023438 644.730469 874.945312 645.035156 874 645.667969 L 839.472656 668.683594 L 839.472656 622.523438 C 839.472656 620.777344 838.890625 619.316406 837.707031 618.113281 C 836.527344 616.914062 835.128906 616.304688 833.472656 616.304688 C 831.816406 616.304688 830.355469 616.914062 829.171875 618.113281 C 827.988281 619.3125 827.410156 620.777344 827.410156 622.523438 L 827.410156 704.765625 C 827.410156 706.464844 827.988281 707.929688 829.171875 709.148438 C 830.355469 710.371094 831.773438 710.980469 833.472656 710.980469 C 835.175781 710.980469 836.546875 710.371094 837.707031 709.148438 C 838.890625 707.929688 839.472656 706.464844 839.472656 704.765625 L 839.472656 683.40625 L 846.523438 678.671875 L 873.207031 709.367188 C 874.28125 710.433594 875.636719 710.957031 877.25 710.957031 C 878.089844 710.957031 878.882812 710.804688 879.613281 710.480469 C 880.34375 710.171875 880.992188 709.714844 881.527344 709.148438 C 882.066406 708.582031 882.492188 707.929688 882.816406 707.164062 C 883.140625 706.421875 883.3125 705.613281 883.3125 704.808594 C 883.3125 703.195312 882.753906 701.753906 881.632812 700.492188 L 856.796875 671.847656 L 880.984375 655.75 C 882.535156 654.679688 883.285156 653.042969 883.285156 650.839844 L 883.285156 650.882812 Z M 883.289062 650.878906 " fill-opacity="1" fill-rule="nonzero"/><path fill="#1d63ed" d="M 781.050781 663.164062 C 782.902344 661.285156 785.054688 659.804688 787.527344 658.734375 C 790 657.640625 792.621094 657.097656 795.4375 657.097656 C 797.976562 657.097656 800.320312 657.535156 802.492188 658.402344 C 804.640625 659.277344 806.707031 660.5625 808.660156 662.242188 C 809.820312 663.179688 811.132812 663.660156 812.59375 663.660156 C 814.335938 663.660156 815.757812 663.070312 816.898438 661.890625 C 818.035156 660.710938 818.59375 659.230469 818.59375 657.460938 C 818.59375 655.695312 817.90625 654.058594 816.507812 652.796875 C 810.574219 647.429688 803.546875 644.746094 795.4375 644.746094 C 786.515625 644.746094 778.882812 647.972656 772.558594 654.453125 C 766.238281 660.90625 763.101562 668.71875 763.101562 677.878906 C 763.101562 687.039062 766.261719 694.828125 772.558594 701.308594 C 778.882812 707.765625 786.496094 711.015625 795.4375 711.015625 C 803.523438 711.015625 810.554688 708.332031 816.507812 702.964844 C 817.777344 701.65625 818.425781 700.152344 818.425781 698.40625 C 818.425781 696.660156 817.863281 695.15625 816.726562 694 C 815.585938 692.84375 814.148438 692.253906 812.425781 692.253906 C 810.964844 692.296875 809.695312 692.734375 808.621094 693.5625 C 806.6875 695.261719 804.664062 696.527344 802.492188 697.378906 C 800.34375 698.230469 798 698.644531 795.441406 698.644531 C 792.625 698.644531 790 698.097656 787.527344 697.007812 C 785.054688 695.917969 782.90625 694.433594 781.054688 692.582031 C 779.207031 690.726562 777.742188 688.5 776.6875 685.992188 C 775.636719 683.460938 775.097656 680.757812 775.097656 677.878906 C 775.097656 674.996094 775.636719 672.292969 776.6875 669.761719 C 777.742188 667.230469 779.203125 665.050781 781.054688 663.175781 L 781.054688 663.152344 Z M 781.050781 663.164062 " fill-opacity="1" fill-rule="nonzero"/><g fill="#000000" fill-opacity="1"><g transform="translate(612.808336, 130.994721)"><g><path d="M 13.796875 0 C 10.472656 0 8.097656 -0.648438 6.671875 -1.953125 C 5.242188 -3.265625 4.53125 -5.132812 4.53125 -7.5625 C 4.53125 -8.75 4.617188 -10.78125 4.796875 -13.65625 C 4.984375 -16.539062 5.222656 -19.820312 5.515625 -23.5 C 5.816406 -27.175781 6.113281 -31.0625 6.40625 -35.15625 C 6.707031 -39.25 7.003906 -43.101562 7.296875 -46.71875 C 7.597656 -50.34375 7.835938 -53.519531 8.015625 -56.25 C 8.191406 -58.976562 8.28125 -60.847656 8.28125 -61.859375 C 8.28125 -62.742188 8.753906 -63.1875 9.703125 -63.1875 L 14.59375 -63.1875 C 18.21875 -63.1875 20.648438 -62.414062 21.890625 -60.875 C 23.140625 -59.332031 23.765625 -57.046875 23.765625 -54.015625 C 23.765625 -53.722656 23.71875 -52.773438 23.625 -51.171875 C 23.539062 -49.566406 23.410156 -47.546875 23.234375 -45.109375 C 23.054688 -42.679688 22.863281 -39.96875 22.65625 -36.96875 C 22.445312 -33.976562 22.238281 -30.910156 22.03125 -27.765625 C 21.820312 -24.617188 21.613281 -21.546875 21.40625 -18.546875 C 21.195312 -15.554688 21.003906 -12.84375 20.828125 -10.40625 C 20.648438 -7.976562 20.5 -5.945312 20.375 -4.3125 C 20.257812 -2.6875 20.171875 -1.691406 20.109375 -1.328125 C 20.054688 -0.859375 19.9375 -0.519531 19.75 -0.3125 C 19.570312 -0.101562 19.21875 0 18.6875 0 Z M 13.796875 0 "/></g></g></g><g fill="#000000" fill-opacity="1"><g transform="translate(640.751865, 130.994721)"><g><path d="M 34 -7.828125 C 34 -9.140625 34.101562 -10.847656 34.3125 -12.953125 C 34.519531 -15.054688 34.726562 -17.28125 34.9375 -19.625 C 35.144531 -21.96875 35.347656 -24.234375 35.546875 -26.421875 C 35.753906 -28.617188 35.859375 -30.460938 35.859375 -31.953125 C 35.859375 -33.492188 35.488281 -34.867188 34.75 -36.078125 C 34.007812 -37.296875 32.570312 -37.90625 30.4375 -37.90625 C 28.363281 -37.90625 26.644531 -37.398438 25.28125 -36.390625 C 23.914062 -35.390625 22.769531 -33.550781 21.84375 -30.875 C 20.925781 -28.207031 20.171875 -24.53125 19.578125 -19.84375 C 18.984375 -15.15625 18.421875 -9.132812 17.890625 -1.78125 C 17.828125 -1.070312 17.675781 -0.597656 17.4375 -0.359375 C 17.207031 -0.117188 16.707031 0 15.9375 0 L 12.734375 0 C 10.890625 0 9.390625 -0.191406 8.234375 -0.578125 C 7.078125 -0.960938 6.15625 -1.507812 5.46875 -2.21875 C 4.789062 -2.9375 4.316406 -3.8125 4.046875 -4.84375 C 3.785156 -5.882812 3.65625 -7.085938 3.65625 -8.453125 C 3.65625 -9.347656 3.695312 -10.609375 3.78125 -12.234375 C 3.875 -13.867188 4.035156 -16.125 4.265625 -19 C 4.503906 -21.875 4.785156 -25.519531 5.109375 -29.9375 C 5.441406 -34.363281 5.84375 -39.84375 6.3125 -46.375 C 6.375 -47.675781 6.523438 -48.445312 6.765625 -48.6875 C 6.941406 -48.863281 7.414062 -48.953125 8.1875 -48.953125 L 11.65625 -48.953125 C 13.4375 -48.953125 14.90625 -48.742188 16.0625 -48.328125 C 17.21875 -47.910156 18.148438 -47.359375 18.859375 -46.671875 C 19.578125 -45.992188 20.082031 -45.191406 20.375 -44.265625 C 20.675781 -43.347656 20.859375 -42.414062 20.921875 -41.46875 C 22.753906 -44.613281 24.859375 -46.796875 27.234375 -48.015625 C 29.609375 -49.234375 32.578125 -49.84375 36.140625 -49.84375 C 38.628906 -49.84375 40.789062 -49.570312 42.625 -49.03125 C 44.46875 -48.5 45.992188 -47.59375 47.203125 -46.3125 C 48.421875 -45.039062 49.328125 -43.378906 49.921875 -41.328125 C 50.515625 -39.285156 50.8125 -36.753906 50.8125 -33.734375 C 50.8125 -32.785156 50.753906 -31.421875 50.640625 -29.640625 C 50.523438 -27.859375 50.375 -25.910156 50.1875 -23.796875 C 50.007812 -21.691406 49.816406 -19.5 49.609375 -17.21875 C 49.410156 -14.9375 49.21875 -12.816406 49.03125 -10.859375 C 48.851562 -8.898438 48.707031 -7.175781 48.59375 -5.6875 C 48.476562 -4.207031 48.421875 -3.234375 48.421875 -2.765625 C 48.421875 -1.453125 48.269531 -0.660156 47.96875 -0.390625 C 47.675781 -0.128906 47.023438 0 46.015625 0 L 43.171875 0 C 41.265625 0 39.71875 -0.175781 38.53125 -0.53125 C 37.34375 -0.882812 36.421875 -1.390625 35.765625 -2.046875 C 35.117188 -2.703125 34.660156 -3.519531 34.390625 -4.5 C 34.128906 -5.476562 34 -6.585938 34 -7.828125 Z M 34 -7.828125 "/></g></g></g><g fill="#000000" fill-opacity="1"><g transform="translate(695.837987, 130.994721)"><g><path d="M 22.78125 -36.9375 C 22.601562 -34.675781 22.410156 -32.445312 22.203125 -30.25 C 21.992188 -28.0625 21.800781 -25.988281 21.625 -24.03125 C 21.445312 -22.070312 21.3125 -20.320312 21.21875 -18.78125 C 21.132812 -17.238281 21.09375 -16.050781 21.09375 -15.21875 C 21.09375 -13.675781 21.269531 -12.648438 21.625 -12.140625 C 21.976562 -11.640625 22.570312 -11.390625 23.40625 -11.390625 C 24.0625 -11.390625 24.625 -11.507812 25.09375 -11.75 C 25.570312 -11.988281 26.019531 -12.253906 26.4375 -12.546875 C 26.851562 -12.847656 27.222656 -13.113281 27.546875 -13.34375 C 27.867188 -13.582031 28.238281 -13.703125 28.65625 -13.703125 C 29.070312 -13.703125 29.457031 -13.460938 29.8125 -12.984375 C 30.164062 -12.515625 30.34375 -11.421875 30.34375 -9.703125 C 30.34375 -6.441406 29.453125 -3.859375 27.671875 -1.953125 C 25.898438 -0.0546875 22.847656 0.890625 18.515625 0.890625 C 14.242188 0.890625 11.082031 -0.101562 9.03125 -2.09375 C 6.988281 -4.082031 5.96875 -7.125 5.96875 -11.21875 C 5.96875 -12.101562 6.007812 -13.15625 6.09375 -14.375 C 6.1875 -15.59375 6.320312 -17.179688 6.5 -19.140625 C 6.675781 -21.097656 6.894531 -23.5 7.15625 -26.34375 C 7.425781 -29.1875 7.710938 -32.71875 8.015625 -36.9375 L 3.296875 -36.9375 C 2.816406 -36.9375 2.53125 -37.039062 2.4375 -37.25 C 2.351562 -37.457031 2.3125 -37.769531 2.3125 -38.1875 L 2.578125 -42.71875 C 2.640625 -43.488281 2.742188 -44.242188 2.890625 -44.984375 C 3.035156 -45.734375 3.332031 -46.398438 3.78125 -46.984375 C 4.226562 -47.578125 4.863281 -48.050781 5.6875 -48.40625 C 6.519531 -48.769531 7.617188 -48.953125 8.984375 -48.953125 C 9.398438 -50.015625 9.875 -51.285156 10.40625 -52.765625 C 10.945312 -54.253906 11.484375 -55.695312 12.015625 -57.09375 C 12.546875 -58.488281 13.0625 -59.660156 13.5625 -60.609375 C 14.070312 -61.554688 14.535156 -62.03125 14.953125 -62.03125 L 17.53125 -62.03125 C 20.019531 -62.03125 21.738281 -61.257812 22.6875 -59.71875 C 23.644531 -58.175781 24.125 -56.335938 24.125 -54.203125 C 24.125 -53.015625 24.035156 -51.265625 23.859375 -48.953125 L 33.203125 -48.953125 C 34.148438 -48.953125 34.625 -48.535156 34.625 -47.703125 L 34.265625 -42.890625 C 34.148438 -41.117188 33.660156 -39.679688 32.796875 -38.578125 C 31.929688 -37.484375 30.164062 -36.9375 27.5 -36.9375 Z M 22.78125 -36.9375 "/></g></g></g><g fill="#000000" fill-opacity="1"><g transform="translate(731.345843, 130.994721)"><g><path d="M 32.390625 -27.671875 C 32.035156 -27.671875 31.632812 -27.6875 31.1875 -27.71875 C 30.75 -27.75 30.320312 -27.804688 29.90625 -27.890625 C 29.488281 -27.984375 29.128906 -28.101562 28.828125 -28.25 C 28.535156 -28.40625 28.390625 -28.601562 28.390625 -28.84375 C 28.390625 -29.613281 28.414062 -30.320312 28.46875 -30.96875 C 28.53125 -31.625 28.5625 -32.304688 28.5625 -33.015625 C 28.5625 -34.328125 28.382812 -35.394531 28.03125 -36.21875 C 27.675781 -37.050781 26.96875 -37.46875 25.90625 -37.46875 C 24.238281 -37.46875 22.851562 -36.382812 21.75 -34.21875 C 20.65625 -32.050781 19.960938 -28.800781 19.671875 -24.46875 C 19.546875 -22.570312 19.378906 -20.421875 19.171875 -18.015625 C 18.972656 -15.617188 18.78125 -13.304688 18.59375 -11.078125 C 18.414062 -8.859375 18.269531 -6.882812 18.15625 -5.15625 C 18.039062 -3.4375 17.984375 -2.3125 17.984375 -1.78125 C 17.984375 -1.1875 17.773438 -0.738281 17.359375 -0.4375 C 16.941406 -0.144531 16.492188 0 16.015625 0 L 12.8125 0 C 10.976562 0 9.484375 -0.191406 8.328125 -0.578125 C 7.171875 -0.960938 6.25 -1.507812 5.5625 -2.21875 C 4.875 -2.9375 4.394531 -3.8125 4.125 -4.84375 C 3.863281 -5.882812 3.734375 -7.085938 3.734375 -8.453125 C 3.734375 -9.347656 3.773438 -10.609375 3.859375 -12.234375 C 3.953125 -13.867188 4.117188 -16.125 4.359375 -19 C 4.597656 -21.875 4.878906 -25.519531 5.203125 -29.9375 C 5.535156 -34.363281 5.9375 -39.84375 6.40625 -46.375 C 6.53125 -48.09375 7.15625 -48.953125 8.28125 -48.953125 L 11.75 -48.953125 C 13.40625 -48.953125 14.796875 -48.769531 15.921875 -48.40625 C 17.054688 -48.050781 17.976562 -47.5625 18.6875 -46.9375 C 19.40625 -46.320312 19.925781 -45.597656 20.25 -44.765625 C 20.570312 -43.929688 20.796875 -43.070312 20.921875 -42.1875 C 21.628906 -43.550781 22.472656 -44.722656 23.453125 -45.703125 C 24.429688 -46.679688 25.453125 -47.476562 26.515625 -48.09375 C 27.585938 -48.71875 28.6875 -49.164062 29.8125 -49.4375 C 30.9375 -49.707031 31.976562 -49.84375 32.9375 -49.84375 C 34.0625 -49.84375 35.203125 -49.632812 36.359375 -49.21875 C 37.515625 -48.800781 38.566406 -48.175781 39.515625 -47.34375 C 40.460938 -46.519531 41.21875 -45.453125 41.78125 -44.140625 C 42.34375 -42.835938 42.625 -41.296875 42.625 -39.515625 C 42.625 -37.910156 42.382812 -36.394531 41.90625 -34.96875 C 41.4375 -33.550781 40.753906 -32.289062 39.859375 -31.1875 C 38.972656 -30.09375 37.890625 -29.234375 36.609375 -28.609375 C 35.335938 -27.984375 33.929688 -27.671875 32.390625 -27.671875 Z M 32.390625 -27.671875 "/></g></g></g><g fill="#000000" fill-opacity="1"><g transform="translate(773.973069, 130.994721)"><g><path d="M 23.578125 0.890625 C 19.484375 0.890625 16.085938 0.3125 13.390625 -0.84375 C 10.691406 -2 8.539062 -3.585938 6.9375 -5.609375 C 5.332031 -7.628906 4.203125 -9.988281 3.546875 -12.6875 C 2.898438 -15.382812 2.578125 -18.273438 2.578125 -21.359375 C 2.578125 -24.921875 3.003906 -28.40625 3.859375 -31.8125 C 4.722656 -35.226562 6.191406 -38.269531 8.265625 -40.9375 C 10.347656 -43.601562 13.09375 -45.753906 16.5 -47.390625 C 19.914062 -49.023438 24.175781 -49.84375 29.28125 -49.84375 C 36.757812 -49.84375 42.113281 -48.015625 45.34375 -44.359375 C 48.582031 -40.710938 50.203125 -35.597656 50.203125 -29.015625 C 50.203125 -27.171875 50.066406 -25.132812 49.796875 -22.90625 C 49.523438 -20.6875 49.019531 -18.476562 48.28125 -16.28125 C 47.539062 -14.09375 46.53125 -11.957031 45.25 -9.875 C 43.976562 -7.800781 42.363281 -5.960938 40.40625 -4.359375 C 38.445312 -2.753906 36.085938 -1.476562 33.328125 -0.53125 C 30.566406 0.414062 27.316406 0.890625 23.578125 0.890625 Z M 27.765625 -38 C 25.515625 -38 23.71875 -37.421875 22.375 -36.265625 C 21.039062 -35.109375 20.03125 -33.710938 19.34375 -32.078125 C 18.664062 -30.453125 18.222656 -28.734375 18.015625 -26.921875 C 17.816406 -25.109375 17.71875 -23.582031 17.71875 -22.34375 C 17.71875 -18.425781 18.335938 -15.546875 19.578125 -13.703125 C 20.828125 -11.867188 22.609375 -10.953125 24.921875 -10.953125 C 26.992188 -10.953125 28.695312 -11.601562 30.03125 -12.90625 C 31.375 -14.207031 32.414062 -15.773438 33.15625 -17.609375 C 33.894531 -19.453125 34.394531 -21.382812 34.65625 -23.40625 C 34.925781 -25.425781 35.0625 -27.117188 35.0625 -28.484375 C 35.0625 -31.453125 34.507812 -33.78125 33.40625 -35.46875 C 32.3125 -37.15625 30.429688 -38 27.765625 -38 Z M 27.765625 -38 "/></g></g></g></svg>