<svg xmlns="http://www.w3.org/2000/svg" xmlns:xlink="http://www.w3.org/1999/xlink" width="1920" zoomAndPan="magnify" viewBox="0 0 1440 809.999993" height="1080" preserveAspectRatio="xMidYMid meet" version="1.0"><defs><g/><clipPath id="91e20183d7"><path d="M 133.46875 324.085938 L 336.71875 324.085938 L 336.71875 515.636719 L 133.46875 515.636719 Z M 133.46875 324.085938 " clip-rule="nonzero"/></clipPath></defs><rect x="-144" width="1728" fill="#ffffff" y="-80.999999" height="971.999992" fill-opacity="1"/><rect x="-144" width="1728" fill="#f8c509" y="-80.999999" height="971.999992" fill-opacity="1"/><path fill="#a679ff" d="M 233.460938 511.765625 C 226.550781 511.765625 219.757812 511.699219 214.609375 511.640625 C 165.039062 511.011719 154.902344 493.460938 143.589844 453.574219 L 143.558594 453.457031 L 143.496094 453.351562 C 136.582031 441.480469 137.277344 425.015625 137.484375 421.835938 L 137.734375 418.066406 L 140.832031 420.613281 C 142.582031 422.011719 144.113281 423.277344 145.5 424.421875 C 153.199219 430.769531 156.691406 433.652344 166.0625 433.957031 L 166.230469 433.964844 L 166.394531 433.910156 C 171.253906 432.335938 175.8125 430.59375 180.214844 428.90625 C 193.042969 424 205.160156 419.363281 223 419.363281 C 225.828125 419.363281 228.769531 419.484375 231.753906 419.722656 L 231.90625 419.734375 L 232.058594 419.695312 C 232.769531 419.523438 234.441406 418.957031 234.597656 417.421875 C 234.695312 416.464844 234.074219 415.523438 233.015625 415.019531 L 232.851562 414.953125 C 211.054688 406.96875 201.03125 384.816406 209.097656 362.3125 C 209.210938 361.984375 209.359375 361.601562 209.515625 361.199219 C 210.835938 357.765625 211.28125 355.421875 209.433594 354.261719 C 206.621094 352.4375 203.519531 350.074219 202.105469 344.84375 L 200.960938 340.609375 L 204.863281 342.613281 C 207.613281 344.027344 209.722656 344.660156 211.699219 344.65625 C 213.6875 344.65625 215.605469 344.011719 217.734375 342.625 L 218.703125 341.90625 C 228.714844 334.4375 237.367188 327.984375 254.351562 327.960938 L 254.46875 327.964844 C 276.539062 329.273438 292.175781 340.152344 299.699219 359.425781 L 299.738281 359.542969 C 305.714844 378.179688 301.765625 394.71875 288.316406 407.375 L 288.226562 407.464844 C 284.804688 411.121094 284.566406 413.984375 287.386719 418.316406 L 301.371094 433.210938 L 301.417969 433.269531 C 310.570312 444.609375 313.535156 457.011719 311.328125 474.730469 C 308.710938 495.148438 286.058594 509.265625 252.207031 511.570312 C 246.402344 511.703125 240.300781 511.765625 233.460938 511.765625 " fill-opacity="1" fill-rule="nonzero"/><path fill="#fd8223" d="M 300.097656 404.738281 C 299.226562 404.738281 298.34375 404.703125 297.480469 404.640625 C 296.144531 404.546875 294.78125 404.371094 293.445312 404.117188 C 292.453125 403.90625 291.484375 403.613281 290.519531 403.246094 C 289.042969 402.679688 285.5 401.082031 284.773438 398.429688 L 284.75 398.332031 L 284.730469 398.230469 C 284.085938 394.246094 285.890625 391.273438 289.816406 389.855469 L 289.949219 389.804688 C 294.867188 387.773438 296.808594 385.070312 298.183594 381.640625 C 298.441406 380.988281 298.675781 380.339844 298.902344 379.714844 C 299.589844 377.804688 300.238281 376.007812 301.539062 374.234375 L 303.144531 372.058594 L 304.691406 374.273438 C 305.480469 375.40625 306.417969 376.414062 307.476562 377.269531 C 310.632812 379.816406 314.835938 381.050781 320.328125 381.050781 C 323.800781 381.050781 327.09375 380.546875 329.5 380.175781 C 330.121094 380.085938 330.652344 380.035156 331.136719 380.019531 L 333.09375 379.957031 L 333.136719 381.914062 C 333.152344 382.625 333.054688 383.621094 332.851562 384.878906 C 331.125 395.109375 321.964844 399.984375 314.578125 402.269531 C 309.039062 403.953125 304.441406 404.738281 300.097656 404.738281 " fill-opacity="1" fill-rule="nonzero"/><g clip-path="url(#91e20183d7)"><path fill="#000000" d="M 266.636719 446.648438 C 258.300781 438.675781 246.460938 437.230469 234.933594 442.78125 C 216.53125 452.152344 201.636719 454.574219 185.652344 450.703125 C 186.507812 453.054688 187.386719 455.269531 188.285156 457.359375 C 194.867188 459.433594 200.421875 460.667969 211.269531 459.824219 L 211.71875 465.621094 C 209.214844 465.816406 206.953125 465.910156 204.886719 465.910156 C 199.554688 465.910156 195.476562 465.304688 191.636719 464.359375 C 193.023438 466.984375 194.453125 469.359375 195.921875 471.496094 C 200.546875 472.910156 205.125 473.832031 216.222656 473.386719 L 216.457031 479.199219 C 214.503906 479.277344 212.726562 479.3125 211.105469 479.3125 C 207.328125 479.3125 204.375 479.113281 201.875 478.773438 C 212.859375 489.875 225.496094 491.210938 238.53125 491.210938 C 254.300781 490.804688 262.269531 485.460938 269.292969 477.550781 C 275.710938 467.78125 274.695312 455.96875 266.636719 446.648438 Z M 274.023438 480.9375 L 273.785156 481.25 C 264.242188 492.058594 254.050781 496.628906 238.605469 497.027344 C 238.601562 497.027344 238.597656 497.027344 238.597656 497.027344 C 217.605469 497.027344 194.046875 493.375 179.183594 449.839844 C 178.5625 448.019531 177.917969 446.132812 179.425781 444.621094 C 180.875 443.164062 182.671875 443.765625 183.859375 444.164062 C 184.164062 444.265625 184.523438 444.386719 184.933594 444.511719 C 200.238281 448.769531 214.429688 446.703125 232.324219 437.585938 L 232.378906 437.558594 C 248.703125 429.679688 262.910156 434.972656 270.765625 442.550781 L 270.9375 442.734375 C 280.769531 454.011719 281.980469 469.007812 274.023438 480.9375 Z M 331.199219 381.957031 C 330.898438 381.964844 330.453125 381.996094 329.792969 382.09375 C 324.066406 382.972656 313.472656 384.601562 306.261719 378.777344 C 305.109375 377.847656 304.042969 376.730469 303.101562 375.382812 C 301.96875 376.925781 301.375 378.5625 300.726562 380.367188 C 300.496094 381.015625 300.253906 381.683594 299.980469 382.363281 C 298.644531 385.695312 296.550781 389.175781 290.609375 391.628906 L 290.472656 391.675781 C 287.441406 392.773438 286.148438 394.875 286.644531 397.917969 C 286.984375 399.160156 288.796875 400.515625 291.21875 401.4375 C 292.023438 401.746094 292.898438 402.019531 293.808594 402.210938 C 295.078125 402.453125 296.347656 402.621094 297.625 402.707031 C 302.558594 403.074219 307.6875 402.339844 314.003906 400.417969 C 320.859375 398.296875 329.375 393.820312 330.9375 384.5625 C 331.160156 383.207031 331.207031 382.402344 331.199219 381.957031 Z M 285.859375 419.523438 C 282.457031 414.375 282.75 410.480469 286.859375 406.089844 L 286.984375 405.964844 C 287.003906 405.945312 287.011719 405.933594 287.03125 405.914062 C 284.097656 404.390625 281.664062 402.164062 280.964844 399.179688 L 280.9375 399.011719 C 279.917969 393.1875 282.789062 388.292969 288.4375 386.230469 C 293.148438 384.273438 294.03125 381.800781 295.25 378.398438 C 296.164062 375.871094 297.257812 372.816406 300.117188 369.988281 C 299.710938 366.777344 298.972656 363.492188 297.898438 360.128906 C 290.667969 341.609375 275.617188 331.160156 254.351562 329.898438 C 238.011719 329.917969 229.597656 336.199219 219.855469 343.46875 L 218.839844 344.214844 C 213.539062 347.695312 209.214844 347.035156 203.980469 344.339844 C 205.195312 348.847656 207.734375 350.855469 210.464844 352.617188 C 214.03125 354.867188 212.277344 359.421875 211.335938 361.863281 C 211.183594 362.25 211.039062 362.628906 210.921875 362.96875 C 203.226562 384.4375 212.773438 405.535156 233.601562 413.164062 L 233.84375 413.269531 C 235.65625 414.132812 236.710938 415.839844 236.527344 417.621094 C 236.324219 419.542969 234.832031 421.015625 232.515625 421.578125 L 232.058594 421.691406 L 231.605469 421.652344 C 209.246094 419.882812 195.480469 425.144531 180.90625 430.714844 C 176.476562 432.414062 171.902344 434.167969 166.996094 435.757812 L 166.511719 435.910156 L 166 435.890625 C 155.96875 435.574219 152.070312 432.355469 144.308594 425.949219 C 142.921875 424.804688 141.378906 423.535156 139.625 422.128906 C 139.558594 422.070312 139.492188 422.023438 139.421875 421.964844 C 139.402344 422.21875 139.394531 422.496094 139.375 422.769531 C 140.21875 425.367188 145.324219 439.023438 161.628906 445.136719 L 159.59375 450.585938 C 150.152344 447.046875 143.957031 441.28125 139.996094 436.015625 C 140.78125 441.609375 142.339844 447.511719 145.167969 452.378906 L 145.355469 452.6875 L 145.453125 453.046875 C 156.730469 492.824219 166.152344 509.085938 214.632812 509.707031 C 226.601562 509.832031 239.425781 509.921875 252.074219 509.640625 C 284.949219 507.398438 306.910156 493.925781 309.402344 474.484375 C 311.535156 457.351562 308.695312 445.382812 299.914062 434.488281 Z M 336.664062 385.53125 C 335.066406 395.03125 327.621094 402.289062 315.710938 405.972656 C 309.914062 407.746094 304.847656 408.609375 300.03125 408.609375 C 297.710938 408.609375 295.4375 408.40625 293.179688 408.007812 C 292.488281 408.726562 291.78125 409.433594 291.046875 410.128906 C 289.027344 412.292969 288.746094 413.28125 290.578125 416.109375 L 304.363281 430.746094 C 314.160156 442.839844 317.496094 456.554688 315.179688 475.222656 C 312.300781 497.613281 288.253906 513.019531 252.402344 515.445312 L 252.265625 515.445312 C 245.988281 515.589844 239.667969 515.636719 233.4375 515.636719 C 227.011719 515.636719 220.671875 515.589844 214.566406 515.523438 C 189.164062 515.191406 173.65625 510.832031 162.703125 500.925781 C 151.886719 491.136719 145.964844 476.085938 139.957031 454.976562 C 133.335938 443.324219 132.957031 427.265625 133.792969 419.550781 C 133.9375 418.234375 134.226562 415.488281 136.554688 414.578125 C 138.78125 413.707031 140.519531 415.226562 142.050781 416.554688 C 142.417969 416.886719 142.824219 417.234375 143.261719 417.59375 C 145.035156 419.019531 146.59375 420.296875 148.007812 421.460938 C 155.425781 427.585938 158.03125 429.726562 165.6875 430.066406 C 170.273438 428.566406 174.625 426.898438 178.832031 425.289062 C 192.390625 420.09375 205.269531 415.152344 224.722656 415.5 C 205.601562 404.933594 197.515625 383.136719 205.4375 361.039062 C 205.5625 360.671875 205.726562 360.234375 205.910156 359.769531 C 206.183594 359.0625 206.648438 357.859375 206.773438 357.144531 C 202.480469 354.265625 198.523438 350.3125 197.605469 341.714844 C 197.488281 340.648438 197.226562 338.148438 199.222656 336.925781 C 201.132812 335.761719 202.90625 336.925781 204.078125 337.691406 C 204.378906 337.894531 204.71875 338.117188 205.078125 338.324219 C 210.601562 341.460938 212.570312 341.355469 215.582031 339.398438 L 216.378906 338.804688 C 226.523438 331.238281 236.109375 324.085938 254.4375 324.085938 L 254.613281 324.085938 C 278.378906 325.472656 295.230469 337.238281 303.34375 358.105469 L 303.402344 358.269531 C 304.429688 361.457031 305.1875 364.585938 305.671875 367.652344 L 306.464844 369.5 C 309.894531 377.515625 317.941406 378.03125 328.949219 376.335938 C 330.597656 376.113281 333.574219 375.695312 335.503906 377.679688 C 337.363281 379.601562 337.167969 382.597656 336.664062 385.53125 Z M 287.589844 372.304688 C 287.589844 376.003906 284.589844 379.007812 280.890625 379.007812 C 277.1875 379.007812 274.1875 376.003906 274.1875 372.304688 C 274.1875 368.601562 277.1875 365.601562 280.890625 365.601562 C 284.589844 365.601562 287.589844 368.601562 287.589844 372.304688 " fill-opacity="1" fill-rule="evenodd"/></g><g fill="#000000" fill-opacity="1"><g transform="translate(385.157477, 487.129447)"><g><path d="M 19.375 -110.25 L 47.15625 -110.09375 C 61.675781 -110.09375 74.441406 -104.859375 85.453125 -94.390625 C 96.472656 -83.929688 101.984375 -71.066406 101.984375 -55.796875 C 101.984375 -40.523438 96.597656 -27.429688 85.828125 -16.515625 C 75.066406 -5.609375 62.03125 -0.15625 46.71875 -0.15625 L 19.21875 -0.15625 C 13.113281 -0.15625 9.3125 -1.40625 7.8125 -3.90625 C 6.613281 -6.007812 6.015625 -9.210938 6.015625 -13.515625 L 6.015625 -97.03125 C 6.015625 -99.4375 6.085938 -101.1875 6.234375 -102.28125 C 6.378906 -103.382812 6.851562 -104.6875 7.65625 -106.1875 C 9.0625 -108.894531 12.96875 -110.25 19.375 -110.25 Z M 47.15625 -26.734375 C 54.375 -26.734375 60.882812 -29.410156 66.6875 -34.765625 C 72.5 -40.128906 75.40625 -46.863281 75.40625 -54.96875 C 75.40625 -63.082031 72.570312 -69.867188 66.90625 -75.328125 C 61.25 -80.785156 54.617188 -83.515625 47.015625 -83.515625 L 32.59375 -83.515625 L 32.59375 -26.734375 Z M 47.15625 -26.734375 "/></g></g></g><g fill="#000000" fill-opacity="1"><g transform="translate(490.897733, 487.129447)"><g><path d="M 41.15625 -0.296875 C 31.039062 -0.296875 22.65625 -4.125 16 -11.78125 C 9.34375 -19.445312 6.015625 -28.785156 6.015625 -39.796875 L 6.015625 -66.09375 C 6.015625 -68.488281 6.085938 -70.238281 6.234375 -71.34375 C 6.378906 -72.445312 6.804688 -73.75 7.515625 -75.25 C 8.910156 -77.957031 12.8125 -79.3125 19.21875 -79.3125 C 26.226562 -79.3125 30.335938 -77.40625 31.546875 -73.59375 C 32.140625 -72 32.4375 -69.445312 32.4375 -65.9375 L 32.4375 -39.65625 C 32.4375 -35.550781 33.613281 -32.347656 35.96875 -30.046875 C 38.320312 -27.742188 41.476562 -26.59375 45.4375 -26.59375 C 49.394531 -26.59375 52.597656 -27.789062 55.046875 -30.1875 C 57.503906 -32.59375 58.734375 -35.75 58.734375 -39.65625 L 58.734375 -66.234375 C 58.734375 -68.535156 58.804688 -70.265625 58.953125 -71.421875 C 59.109375 -72.578125 59.582031 -73.90625 60.375 -75.40625 C 61.675781 -78.007812 65.535156 -79.3125 71.953125 -79.3125 C 78.253906 -79.3125 82.109375 -77.957031 83.515625 -75.25 C 84.210938 -73.75 84.632812 -72.421875 84.78125 -71.265625 C 84.9375 -70.117188 85.015625 -68.394531 85.015625 -66.09375 L 85.015625 -12.921875 C 85.015625 -10.710938 84.9375 -9.03125 84.78125 -7.875 C 84.632812 -6.726562 84.160156 -5.457031 83.359375 -4.0625 C 81.859375 -1.457031 78.003906 -0.15625 71.796875 -0.15625 C 65.691406 -0.15625 61.9375 -1.351562 60.53125 -3.75 C 59.53125 -5.457031 59.03125 -7.507812 59.03125 -9.90625 C 58.625 -9.207031 57.71875 -8.207031 56.3125 -6.90625 C 54.914062 -5.601562 53.566406 -4.503906 52.265625 -3.609375 C 48.859375 -1.398438 45.15625 -0.296875 41.15625 -0.296875 Z M 41.15625 -0.296875 "/></g></g></g><g fill="#000000" fill-opacity="1"><g transform="translate(581.918462, 487.129447)"><g><path d="M 30.796875 -39.578125 C 30.796875 -35.316406 32.195312 -32.007812 35 -29.65625 C 37.800781 -27.3125 40.78125 -26.140625 43.9375 -26.140625 C 47.09375 -26.140625 50.046875 -27.0625 52.796875 -28.90625 C 55.546875 -30.757812 57.773438 -31.6875 59.484375 -31.6875 C 62.484375 -31.6875 66.140625 -29.035156 70.453125 -23.734375 C 72.753906 -20.828125 73.90625 -18.222656 73.90625 -15.921875 C 73.90625 -12.117188 71.148438 -8.5625 65.640625 -5.25 C 59.929688 -1.25 52.921875 0.75 44.609375 0.75 C 35.296875 0.75 26.332031 -2.601562 17.71875 -9.3125 C 13.613281 -12.519531 10.257812 -16.800781 7.65625 -22.15625 C 5.050781 -27.507812 3.75 -33.414062 3.75 -39.875 C 3.75 -46.332031 5.050781 -52.191406 7.65625 -57.453125 C 10.257812 -62.710938 13.613281 -66.941406 17.71875 -70.140625 C 26.03125 -76.753906 34.894531 -80.0625 44.3125 -80.0625 C 48.113281 -80.0625 51.816406 -79.535156 55.421875 -78.484375 C 59.023438 -77.429688 61.679688 -76.40625 63.390625 -75.40625 L 65.78125 -73.90625 C 67.59375 -72.695312 69 -71.742188 70 -71.046875 C 72.601562 -69.046875 73.90625 -66.765625 73.90625 -64.203125 C 73.90625 -61.648438 72.851562 -58.773438 70.75 -55.578125 C 67.144531 -50.066406 63.6875 -47.3125 60.375 -47.3125 C 58.476562 -47.3125 55.773438 -48.414062 52.265625 -50.625 C 50.460938 -52.320312 47.882812 -53.171875 44.53125 -53.171875 C 41.175781 -53.171875 38.046875 -51.96875 35.140625 -49.5625 C 32.242188 -47.164062 30.796875 -43.835938 30.796875 -39.578125 Z M 30.796875 -39.578125 "/></g></g></g><g fill="#000000" fill-opacity="1"><g transform="translate(659.57145, 487.129447)"><g><path d="M 52.578125 -39.65625 L 72.546875 -23.125 C 75.046875 -21.03125 76.617188 -19.429688 77.265625 -18.328125 C 77.921875 -17.222656 78.25 -16.171875 78.25 -15.171875 C 78.25 -12.765625 76.695312 -9.507812 73.59375 -5.40625 C 70.195312 -1.195312 67.195312 0.90625 64.59375 0.90625 C 62.382812 0.90625 59.328125 -0.546875 55.421875 -3.453125 L 53.921875 -4.5 C 51.617188 -6.40625 48.0625 -9.734375 43.25 -14.484375 C 38.445312 -19.242188 34.796875 -22.628906 32.296875 -24.640625 L 32.296875 -13.0625 C 32.296875 -10.757812 32.21875 -9.03125 32.0625 -7.875 C 31.914062 -6.726562 31.441406 -5.40625 30.640625 -3.90625 C 29.335938 -1.300781 25.484375 0 19.078125 0 C 12.765625 0 8.910156 -1.351562 7.515625 -4.0625 C 6.804688 -5.5625 6.378906 -6.882812 6.234375 -8.03125 C 6.085938 -9.1875 6.015625 -10.914062 6.015625 -13.21875 L 6.015625 -103.1875 C 6.015625 -105.488281 6.085938 -107.210938 6.234375 -108.359375 C 6.378906 -109.515625 6.804688 -110.847656 7.515625 -112.359375 C 8.910156 -115.054688 12.8125 -116.40625 19.21875 -116.40625 C 24.03125 -116.40625 27.4375 -115.554688 29.4375 -113.859375 C 31.144531 -112.453125 32.046875 -110.25 32.140625 -107.25 C 32.242188 -106.34375 32.296875 -104.941406 32.296875 -103.046875 L 32.296875 -55.421875 C 34.097656 -56.921875 36.828125 -59.472656 40.484375 -63.078125 C 44.140625 -66.691406 46.867188 -69.25 48.671875 -70.75 L 50.46875 -71.953125 C 53.96875 -74.648438 56.96875 -76 59.46875 -76 C 61.976562 -76 64.859375 -73.972656 68.109375 -69.921875 C 71.367188 -65.867188 73 -62.6875 73 -60.375 C 73 -58.070312 71.144531 -55.367188 67.4375 -52.265625 Z M 52.578125 -39.65625 "/></g></g></g><g fill="#000000" fill-opacity="1"><g transform="translate(740.078251, 487.129447)"><g/></g></g><g fill="#000000" fill-opacity="1"><g transform="translate(778.07863, 487.129447)"><g><path d="M 107.09375 -29.890625 C 111.695312 -26.785156 115.003906 -24.53125 117.015625 -23.125 C 120.617188 -20.425781 122.421875 -17.847656 122.421875 -15.390625 C 122.421875 -12.941406 120.914062 -9.515625 117.90625 -5.109375 C 114.90625 -0.703125 111.851562 1.5 108.75 1.5 C 106.84375 1.5 103.9375 0.148438 100.03125 -2.546875 C 99.53125 -2.847656 98.128906 -3.800781 95.828125 -5.40625 C 93.523438 -7.007812 91.722656 -8.210938 90.421875 -9.015625 C 81.109375 -1.804688 70.644531 1.796875 59.03125 1.796875 C 43.507812 1.796875 30.414062 -3.707031 19.75 -14.71875 C 9.082031 -25.738281 3.75 -38.859375 3.75 -54.078125 C 3.75 -62.390625 5.25 -70.171875 8.25 -77.421875 C 11.257812 -84.679688 15.265625 -90.765625 20.265625 -95.671875 C 25.273438 -100.585938 31.035156 -104.445312 37.546875 -107.25 C 44.054688 -110.050781 50.765625 -111.453125 57.671875 -111.453125 C 72.492188 -111.453125 85.363281 -106.09375 96.28125 -95.375 C 107.195312 -84.664062 112.65625 -71.097656 112.65625 -54.671875 C 112.65625 -46.359375 110.800781 -38.097656 107.09375 -29.890625 Z M 30.34375 -54.8125 C 30.34375 -45.90625 33.21875 -38.671875 38.96875 -33.109375 C 44.726562 -27.554688 51.160156 -24.78125 58.265625 -24.78125 C 65.378906 -24.78125 71.789062 -27.484375 77.5 -32.890625 C 83.207031 -38.296875 86.0625 -45.554688 86.0625 -54.671875 C 86.0625 -63.785156 83.179688 -71.09375 77.421875 -76.59375 C 71.671875 -82.101562 65.238281 -84.859375 58.125 -84.859375 C 51.019531 -84.859375 44.613281 -82.078125 38.90625 -76.515625 C 33.195312 -70.960938 30.34375 -63.726562 30.34375 -54.8125 Z M 30.34375 -54.8125 "/></g></g></g><g fill="#000000" fill-opacity="1"><g transform="translate(902.743968, 487.129447)"><g><path d="M 41.15625 -0.296875 C 31.039062 -0.296875 22.65625 -4.125 16 -11.78125 C 9.34375 -19.445312 6.015625 -28.785156 6.015625 -39.796875 L 6.015625 -66.09375 C 6.015625 -68.488281 6.085938 -70.238281 6.234375 -71.34375 C 6.378906 -72.445312 6.804688 -73.75 7.515625 -75.25 C 8.910156 -77.957031 12.8125 -79.3125 19.21875 -79.3125 C 26.226562 -79.3125 30.335938 -77.40625 31.546875 -73.59375 C 32.140625 -72 32.4375 -69.445312 32.4375 -65.9375 L 32.4375 -39.65625 C 32.4375 -35.550781 33.613281 -32.347656 35.96875 -30.046875 C 38.320312 -27.742188 41.476562 -26.59375 45.4375 -26.59375 C 49.394531 -26.59375 52.597656 -27.789062 55.046875 -30.1875 C 57.503906 -32.59375 58.734375 -35.75 58.734375 -39.65625 L 58.734375 -66.234375 C 58.734375 -68.535156 58.804688 -70.265625 58.953125 -71.421875 C 59.109375 -72.578125 59.582031 -73.90625 60.375 -75.40625 C 61.675781 -78.007812 65.535156 -79.3125 71.953125 -79.3125 C 78.253906 -79.3125 82.109375 -77.957031 83.515625 -75.25 C 84.210938 -73.75 84.632812 -72.421875 84.78125 -71.265625 C 84.9375 -70.117188 85.015625 -68.394531 85.015625 -66.09375 L 85.015625 -12.921875 C 85.015625 -10.710938 84.9375 -9.03125 84.78125 -7.875 C 84.632812 -6.726562 84.160156 -5.457031 83.359375 -4.0625 C 81.859375 -1.457031 78.003906 -0.15625 71.796875 -0.15625 C 65.691406 -0.15625 61.9375 -1.351562 60.53125 -3.75 C 59.53125 -5.457031 59.03125 -7.507812 59.03125 -9.90625 C 58.625 -9.207031 57.71875 -8.207031 56.3125 -6.90625 C 54.914062 -5.601562 53.566406 -4.503906 52.265625 -3.609375 C 48.859375 -1.398438 45.15625 -0.296875 41.15625 -0.296875 Z M 41.15625 -0.296875 "/></g></g></g><g fill="#000000" fill-opacity="1"><g transform="translate(993.764685, 487.129447)"><g><path d="M 3.75 -39.5 C 3.75 -51.519531 7.953125 -61.429688 16.359375 -69.234375 C 24.773438 -77.046875 34.390625 -80.953125 45.203125 -80.953125 C 56.023438 -80.953125 65.585938 -77.070312 73.890625 -69.3125 C 82.203125 -61.550781 86.359375 -51.664062 86.359375 -39.65625 C 86.359375 -31.34375 84.207031 -23.957031 79.90625 -17.5 C 75.601562 -11.039062 70.367188 -6.28125 64.203125 -3.21875 C 58.046875 -0.164062 51.660156 1.359375 45.046875 1.359375 C 38.441406 1.359375 32.035156 -0.265625 25.828125 -3.515625 C 19.617188 -6.773438 14.382812 -11.582031 10.125 -17.9375 C 5.875 -24.300781 3.75 -31.488281 3.75 -39.5 Z M 35.140625 -28.75 C 38.347656 -26.300781 41.601562 -25.078125 44.90625 -25.078125 C 48.21875 -25.078125 51.523438 -26.328125 54.828125 -28.828125 C 58.128906 -31.335938 59.78125 -35.046875 59.78125 -39.953125 C 59.78125 -44.859375 58.226562 -48.515625 55.125 -50.921875 C 52.019531 -53.328125 48.664062 -54.53125 45.0625 -54.53125 C 41.457031 -54.53125 38.101562 -53.273438 35 -50.765625 C 31.894531 -48.265625 30.34375 -44.582031 30.34375 -39.71875 C 30.34375 -34.863281 31.941406 -31.207031 35.140625 -28.75 Z M 35.140625 -28.75 "/></g></g></g><g fill="#000000" fill-opacity="1"><g transform="translate(1083.884249, 487.129447)"><g><path d="M 51.96875 -52.578125 L 42.203125 -53.171875 L 42.203125 -32.4375 C 42.203125 -29.738281 42.628906 -27.785156 43.484375 -26.578125 C 44.335938 -25.378906 45.9375 -24.78125 48.28125 -24.78125 C 50.632812 -24.78125 52.4375 -24.703125 53.6875 -24.546875 C 54.945312 -24.398438 56.273438 -23.925781 57.671875 -23.125 C 59.972656 -21.820312 61.125 -18.46875 61.125 -13.0625 C 61.125 -6.757812 59.722656 -2.90625 56.921875 -1.5 C 55.421875 -0.800781 54.09375 -0.375 52.9375 -0.21875 C 51.789062 -0.0703125 50.117188 0 47.921875 0 C 37.503906 0 29.59375 -2.351562 24.1875 -7.0625 C 18.78125 -11.769531 16.078125 -19.726562 16.078125 -30.9375 L 16.078125 -53.171875 C 14.171875 -52.867188 12.113281 -52.71875 9.90625 -52.71875 C 7.707031 -52.71875 5.878906 -53.566406 4.421875 -55.265625 C 2.972656 -56.972656 2.25 -59.878906 2.25 -63.984375 C 2.25 -68.085938 2.5 -71.066406 3 -72.921875 C 3.5 -74.773438 4.203125 -76.101562 5.109375 -76.90625 C 6.710938 -78.207031 8.710938 -78.859375 11.109375 -78.859375 L 16.078125 -78.25 L 16.078125 -93.734375 C 16.078125 -96.035156 16.148438 -97.734375 16.296875 -98.828125 C 16.441406 -99.929688 16.914062 -101.132812 17.71875 -102.4375 C 19.019531 -104.9375 22.878906 -106.1875 29.296875 -106.1875 C 36.097656 -106.1875 40.148438 -104.335938 41.453125 -100.640625 C 41.953125 -99.035156 42.203125 -96.476562 42.203125 -92.96875 L 42.203125 -78.25 C 46.609375 -78.65625 49.9375 -78.859375 52.1875 -78.859375 C 54.445312 -78.859375 56.148438 -78.78125 57.296875 -78.625 C 58.453125 -78.476562 59.78125 -78.003906 61.28125 -77.203125 C 63.882812 -75.898438 65.1875 -72.046875 65.1875 -65.640625 C 65.1875 -59.328125 63.832031 -55.472656 61.125 -54.078125 C 59.625 -53.367188 58.296875 -52.941406 57.140625 -52.796875 C 55.992188 -52.648438 54.269531 -52.578125 51.96875 -52.578125 Z M 51.96875 -52.578125 "/></g></g></g><g fill="#000000" fill-opacity="1"><g transform="translate(1151.323729, 487.129447)"><g><path d="M 82.3125 -49.03125 C 82.3125 -42.875 80.785156 -38.316406 77.734375 -35.359375 C 74.679688 -32.410156 71.300781 -30.9375 67.59375 -30.9375 L 32 -30.9375 C 32 -28.132812 33.648438 -25.78125 36.953125 -23.875 C 40.253906 -21.976562 43.554688 -21.03125 46.859375 -21.03125 C 52.671875 -21.03125 57.226562 -21.628906 60.53125 -22.828125 L 62.1875 -23.4375 C 64.582031 -24.53125 66.582031 -25.078125 68.1875 -25.078125 C 71.394531 -25.078125 74.148438 -22.828125 76.453125 -18.328125 C 77.753906 -15.617188 78.40625 -13.316406 78.40625 -11.421875 C 78.40625 -2.503906 67.738281 1.953125 46.40625 1.953125 C 39 1.953125 32.414062 0.675781 26.65625 -1.875 C 20.90625 -4.425781 16.425781 -7.804688 13.21875 -12.015625 C 6.90625 -20.128906 3.75 -29.191406 3.75 -39.203125 C 3.75 -51.816406 7.828125 -61.90625 15.984375 -69.46875 C 24.148438 -77.03125 34.34375 -80.8125 46.5625 -80.8125 C 60.476562 -80.8125 70.691406 -75.90625 77.203125 -66.09375 C 80.609375 -60.882812 82.3125 -55.195312 82.3125 -49.03125 Z M 50.625 -44.609375 C 54.425781 -44.609375 56.328125 -46.210938 56.328125 -49.421875 C 56.328125 -51.722656 55.445312 -53.570312 53.6875 -54.96875 C 51.9375 -56.375 49.4375 -57.078125 46.1875 -57.078125 C 42.9375 -57.078125 39.707031 -55.75 36.5 -53.09375 C 33.289062 -50.4375 31.6875 -47.609375 31.6875 -44.609375 Z M 50.625 -44.609375 "/></g></g></g><g fill="#000000" fill-opacity="1"><g transform="translate(1237.387873, 487.129447)"><g><path d="M 6.609375 -7.0625 C 4.703125 -8.257812 3.75 -10.160156 3.75 -12.765625 C 3.75 -15.367188 5.65625 -19.328125 9.46875 -24.640625 C 10.5625 -26.335938 12.332031 -27.1875 14.78125 -27.1875 C 17.238281 -27.1875 20.570312 -25.957031 24.78125 -23.5 C 28.988281 -21.050781 32.796875 -19.828125 36.203125 -19.828125 C 42.304688 -19.828125 45.359375 -21.03125 45.359375 -23.4375 C 45.359375 -25.332031 42.003906 -26.734375 35.296875 -27.640625 C 28.984375 -28.535156 22.722656 -30.890625 16.515625 -34.703125 C 13.617188 -36.503906 11.21875 -39.332031 9.3125 -43.1875 C 7.40625 -47.039062 6.453125 -51.617188 6.453125 -56.921875 C 6.453125 -72.742188 17.316406 -80.65625 39.046875 -80.65625 C 46.160156 -80.65625 53.472656 -78.953125 60.984375 -75.546875 C 64.484375 -73.953125 66.234375 -71.953125 66.234375 -69.546875 C 66.234375 -67.140625 65.128906 -64.179688 62.921875 -60.671875 C 60.722656 -57.171875 58.472656 -55.421875 56.171875 -55.421875 C 54.972656 -55.421875 52.742188 -56.171875 49.484375 -57.671875 C 46.234375 -59.179688 42.707031 -59.9375 38.90625 -59.9375 C 33 -59.9375 30.046875 -58.832031 30.046875 -56.625 C 30.046875 -53.625 33.445312 -51.671875 40.25 -50.765625 C 46.863281 -50.066406 53.273438 -48.164062 59.484375 -45.0625 C 62.390625 -43.65625 64.816406 -41.222656 66.765625 -37.765625 C 68.710938 -34.316406 69.6875 -29.988281 69.6875 -24.78125 C 69.6875 -19.570312 68.710938 -15.140625 66.765625 -11.484375 C 64.816406 -7.835938 62.085938 -5.109375 58.578125 -3.296875 C 52.171875 -0.191406 44.132812 1.359375 34.46875 1.359375 C 24.8125 1.359375 15.523438 -1.445312 6.609375 -7.0625 Z M 6.609375 -7.0625 "/></g></g></g></svg>