<svg xmlns="http://www.w3.org/2000/svg" xmlns:xlink="http://www.w3.org/1999/xlink" width="1920" zoomAndPan="magnify" viewBox="0 0 1440 809.999993" height="1080" preserveAspectRatio="xMidYMid meet" version="1.0"><defs><g/><clipPath id="fe319c1711"><path d="M 948 327 L 1135 327 L 1135 517.511719 L 948 517.511719 Z M 948 327 " clip-rule="nonzero"/></clipPath><clipPath id="a09b0a646f"><path d="M 948 374 L 1042 374 L 1042 517.511719 L 948 517.511719 Z M 948 374 " clip-rule="nonzero"/></clipPath><clipPath id="ec18626534"><path d="M 1041 374 L 1135 374 L 1135 517.511719 L 1041 517.511719 Z M 1041 374 " clip-rule="nonzero"/></clipPath><clipPath id="8e1d274ebd"><path d="M 917.125 374 L 1042 374 L 1042 455 L 917.125 455 Z M 917.125 374 " clip-rule="nonzero"/></clipPath><clipPath id="527fc3057e"><path d="M 1041 374 L 1166.125 374 L 1166.125 455 L 1041 455 Z M 1041 374 " clip-rule="nonzero"/></clipPath><clipPath id="8f3ec15751"><path d="M 1041 298 L 1166.125 298 L 1166.125 375 L 1041 375 Z M 1041 298 " clip-rule="nonzero"/></clipPath><clipPath id="23491b69bc"><path d="M 917.125 292.511719 L 1042 292.511719 L 1042 375 L 917.125 375 Z M 917.125 292.511719 " clip-rule="nonzero"/></clipPath><clipPath id="4073dd7b83"><path d="M 375 302 L 506 302 L 506 499.359375 L 375 499.359375 Z M 375 302 " clip-rule="nonzero"/></clipPath><clipPath id="e75f646db2"><path d="M 415 284.109375 L 467 284.109375 L 467 318 L 415 318 Z M 415 284.109375 " clip-rule="nonzero"/></clipPath><clipPath id="5db0fb3e39"><path d="M 572 327 L 856 327 L 856 395 L 572 395 Z M 572 327 " clip-rule="nonzero"/></clipPath><clipPath id="d9c41ab73f"><path d="M 869.148438 377.980469 L 709.152344 518.585938 L 571.019531 361.40625 L 731.019531 220.800781 Z M 869.148438 377.980469 " clip-rule="nonzero"/></clipPath><clipPath id="5afd4d7fcd"><path d="M 869.148438 377.980469 L 709.152344 518.585938 L 571.019531 361.40625 L 731.019531 220.800781 Z M 869.148438 377.980469 " clip-rule="nonzero"/></clipPath></defs><rect x="-144" width="1728" fill="#ffffff" y="-80.999999" height="971.999992" fill-opacity="1"/><rect x="-144" width="1728" fill="#1d63ed" y="-80.999999" height="971.999992" fill-opacity="1"/><g clip-path="url(#fe319c1711)"><path fill="#d29a4c" d="M 948.304688 374.9375 L 948.304688 469.984375 L 1041.625 517.507812 L 1134.949219 469.984375 L 1134.949219 374.9375 L 1041.625 327.414062 L 948.304688 374.9375 " fill-opacity="1" fill-rule="nonzero"/></g><g clip-path="url(#a09b0a646f)"><path fill="#b06e36" d="M 948.304688 374.9375 L 948.304688 469.984375 L 1041.625 517.507812 L 1041.625 422.460938 L 948.304688 374.9375 " fill-opacity="1" fill-rule="nonzero"/></g><path fill="#d29a4c" d="M 948.304688 374.9375 L 1041.625 327.414062 L 1134.949219 374.9375 L 1041.625 422.460938 L 948.304688 374.9375 " fill-opacity="1" fill-rule="nonzero"/><g clip-path="url(#ec18626534)"><path fill="#d69b4b" d="M 1134.949219 374.9375 L 1134.949219 469.984375 L 1041.625 517.507812 L 1041.625 422.460938 L 1134.949219 374.9375 " fill-opacity="1" fill-rule="nonzero"/></g><g clip-path="url(#8e1d274ebd)"><path fill="#e6bb7c" d="M 948.304688 374.9375 L 917.195312 406.621094 L 1010.519531 454.140625 L 1041.625 422.460938 L 948.304688 374.9375 " fill-opacity="1" fill-rule="nonzero"/></g><g clip-path="url(#527fc3057e)"><path fill="#e6bb7c" d="M 1041.625 422.460938 L 1072.734375 454.140625 L 1166.058594 406.621094 L 1134.949219 374.9375 L 1041.625 422.460938 " fill-opacity="1" fill-rule="nonzero"/></g><g clip-path="url(#8f3ec15751)"><path fill="#e4b771" d="M 1041.625 327.414062 L 1072.734375 298.945312 L 1166.058594 346.464844 L 1134.949219 374.9375 L 1041.625 327.414062 " fill-opacity="1" fill-rule="nonzero"/></g><g clip-path="url(#23491b69bc)"><path fill="#e4b771" d="M 948.304688 374.9375 L 917.195312 340.042969 L 1010.519531 292.519531 L 1041.625 327.414062 L 948.304688 374.9375 " fill-opacity="1" fill-rule="nonzero"/></g><path fill="#9f592c" d="M 1041.625 327.414062 L 1041.625 422.460938 L 1134.949219 374.9375 L 1041.625 327.414062 " fill-opacity="1" fill-rule="nonzero"/><g clip-path="url(#4073dd7b83)"><path fill="#c67724" d="M 375 302.054688 L 505.992188 302.054688 L 505.992188 499.683594 L 375 499.683594 Z M 382.972656 309.746094 L 498.015625 309.746094 L 498.015625 492.847656 L 382.972656 492.847656 Z M 382.972656 309.746094 " fill-opacity="1" fill-rule="evenodd"/></g><path fill="#ffffff" d="M 382.972656 309.746094 L 498.015625 309.746094 L 498.015625 492.847656 L 382.972656 492.847656 Z M 382.972656 309.746094 " fill-opacity="1" fill-rule="evenodd"/><g clip-path="url(#e75f646db2)"><path fill="#000000" d="M 415.433594 295.222656 L 429.957031 295.222656 C 429.957031 289.085938 434.929688 284.117188 441.066406 284.117188 C 447.199219 284.117188 452.171875 289.085938 452.171875 295.222656 L 466.691406 295.222656 L 466.691406 317.433594 L 415.433594 317.433594 Z M 437.363281 295.222656 C 437.363281 297.265625 439.019531 298.921875 441.066406 298.921875 C 443.109375 298.921875 444.765625 297.265625 444.765625 295.222656 C 444.765625 293.175781 443.109375 291.519531 441.066406 291.519531 C 439.019531 291.519531 437.363281 293.175781 437.363281 295.222656 Z M 437.363281 295.222656 " fill-opacity="1" fill-rule="evenodd"/></g><path fill="#1a1a1a" d="M 396.070312 337.367188 L 412.871094 337.367188 L 412.871094 354.167969 L 396.070312 354.167969 Z M 398.066406 339.359375 L 410.878906 339.359375 L 410.878906 352.175781 L 398.066406 352.175781 Z M 398.066406 339.359375 " fill-opacity="1" fill-rule="evenodd"/><path fill="#1a1a1a" d="M 396.070312 360.148438 L 412.871094 360.148438 L 412.871094 376.949219 L 396.070312 376.949219 Z M 398.066406 362.140625 L 410.878906 362.140625 L 410.878906 374.957031 L 398.066406 374.957031 Z M 398.066406 362.140625 " fill-opacity="1" fill-rule="evenodd"/><path fill="#1a1a1a" d="M 396.070312 382.929688 L 412.871094 382.929688 L 412.871094 399.730469 L 396.070312 399.730469 Z M 398.066406 384.921875 L 410.878906 384.921875 L 410.878906 397.738281 L 398.066406 397.738281 Z M 398.066406 384.921875 " fill-opacity="1" fill-rule="evenodd"/><path fill="#1a1a1a" d="M 396.070312 405.710938 L 412.871094 405.710938 L 412.871094 422.511719 L 396.070312 422.511719 Z M 398.066406 407.703125 L 410.878906 407.703125 L 410.878906 420.519531 L 398.066406 420.519531 Z M 398.066406 407.703125 " fill-opacity="1" fill-rule="evenodd"/><path fill="#1a1a1a" d="M 396.070312 428.492188 L 412.871094 428.492188 L 412.871094 445.292969 L 396.070312 445.292969 Z M 398.066406 430.484375 L 410.878906 430.484375 L 410.878906 443.300781 L 398.066406 443.300781 Z M 398.066406 430.484375 " fill-opacity="1" fill-rule="evenodd"/><path fill="#1a1a1a" d="M 419.421875 344.769531 L 484.347656 344.769531 L 484.347656 346.480469 L 419.421875 346.480469 Z M 419.421875 344.769531 " fill-opacity="1" fill-rule="evenodd"/><path fill="#1a1a1a" d="M 419.421875 367.550781 L 484.347656 367.550781 L 484.347656 369.261719 L 419.421875 369.261719 Z M 419.421875 367.550781 " fill-opacity="1" fill-rule="evenodd"/><path fill="#1a1a1a" d="M 419.421875 390.332031 L 484.347656 390.332031 L 484.347656 392.042969 L 419.421875 392.042969 Z M 419.421875 390.332031 " fill-opacity="1" fill-rule="evenodd"/><path fill="#1a1a1a" d="M 419.421875 413.113281 L 484.347656 413.113281 L 484.347656 414.824219 L 419.421875 414.824219 Z M 419.421875 413.113281 " fill-opacity="1" fill-rule="evenodd"/><path fill="#1a1a1a" d="M 419.421875 435.894531 L 484.347656 435.894531 L 484.347656 437.605469 L 419.421875 437.605469 Z M 419.421875 435.894531 " fill-opacity="1" fill-rule="evenodd"/><path fill="#1a1a1a" d="M 396.070312 452.980469 L 412.871094 452.980469 L 412.871094 469.785156 L 396.070312 469.785156 Z M 398.066406 454.976562 L 410.878906 454.976562 L 410.878906 467.789062 L 398.066406 467.789062 Z M 398.066406 454.976562 " fill-opacity="1" fill-rule="evenodd"/><path fill="#1a1a1a" d="M 419.421875 460.386719 L 484.347656 460.386719 L 484.347656 462.09375 L 419.421875 462.09375 Z M 419.421875 460.386719 " fill-opacity="1" fill-rule="evenodd"/><g clip-path="url(#5db0fb3e39)"><g clip-path="url(#d9c41ab73f)"><g clip-path="url(#5afd4d7fcd)"><path fill="#000000" d="M 575.148438 362.585938 C 607.300781 346.664062 643.664062 339.570312 679.300781 338.011719 C 715.257812 336.417969 751.523438 341.933594 785.222656 354.632812 C 800.488281 360.398438 814.851562 367.738281 828.933594 375.832031 C 826.90625 375.917969 824.886719 376.121094 822.878906 376.445312 C 815.867188 377.613281 802.183594 382.578125 805.277344 391.816406 C 805.855469 393.507812 807.160156 394.242188 808.578125 394.25 C 812.058594 394.960938 814.234375 392.609375 817.214844 390.929688 C 820.265625 389.222656 823.597656 388.335938 827.050781 387.90625 C 834.445312 386.964844 842.132812 388.246094 849.417969 389.535156 C 854.902344 390.488281 856.84375 383.445312 854.183594 379.851562 C 846.207031 369.09375 842.023438 357.261719 837.738281 344.738281 C 836.316406 340.621094 829.167969 342.097656 829.328125 346.386719 C 829.625 353.9375 831.539062 361.332031 834.476562 368.351562 C 807.386719 349.03125 774.109375 337.34375 741.796875 331.367188 C 704.847656 324.539062 667.1875 325.800781 630.839844 335.300781 C 610.769531 340.539062 591.675781 349.316406 573.601562 359.359375 C 571.574219 360.449219 573.074219 363.621094 575.148438 362.585938 Z M 575.148438 362.585938 " fill-opacity="1" fill-rule="nonzero"/></g></g></g><g fill="#ffffff" fill-opacity="1"><g transform="translate(877.028098, 248.277312)"><g><path d="M 24.5625 -10.21875 C 26.476562 -10.21875 28.101562 -10.5 29.4375 -11.0625 C 30.769531 -11.625 31.898438 -12.253906 32.828125 -12.953125 C 33.765625 -13.648438 34.59375 -14.28125 35.3125 -14.84375 C 36.039062 -15.40625 36.773438 -15.6875 37.515625 -15.6875 C 38.453125 -15.6875 38.921875 -14.984375 38.921875 -13.578125 C 38.921875 -12.828125 38.828125 -11.925781 38.640625 -10.875 C 38.453125 -9.832031 38.195312 -8.65625 37.875 -7.34375 C 37.6875 -6.550781 37.226562 -5.6875 36.5 -4.75 C 35.78125 -3.820312 34.789062 -2.945312 33.53125 -2.125 C 32.269531 -1.3125 30.71875 -0.632812 28.875 -0.09375 C 27.03125 0.4375 24.921875 0.703125 22.546875 0.703125 C 20.160156 0.703125 17.773438 0.351562 15.390625 -0.34375 C 13.015625 -1.050781 10.894531 -2.242188 9.03125 -3.921875 C 7.164062 -5.597656 5.648438 -7.859375 4.484375 -10.703125 C 3.316406 -13.554688 2.734375 -17.128906 2.734375 -21.421875 C 2.734375 -22.960938 2.835938 -24.742188 3.046875 -26.765625 C 3.253906 -28.796875 3.660156 -30.882812 4.265625 -33.03125 C 4.878906 -35.1875 5.734375 -37.300781 6.828125 -39.375 C 7.921875 -41.445312 9.332031 -43.300781 11.0625 -44.9375 C 12.789062 -46.570312 14.898438 -47.890625 17.390625 -48.890625 C 19.890625 -49.898438 22.863281 -50.40625 26.3125 -50.40625 C 29.070312 -50.40625 31.46875 -50.078125 33.5 -49.421875 C 35.53125 -48.765625 37.207031 -47.863281 38.53125 -46.71875 C 39.863281 -45.582031 40.84375 -44.242188 41.46875 -42.703125 C 42.101562 -41.160156 42.421875 -39.523438 42.421875 -37.796875 C 42.421875 -34.804688 41.546875 -32.625 39.796875 -31.25 C 38.046875 -29.875 35.5625 -29.1875 32.34375 -29.1875 C 31.3125 -29.1875 30.664062 -29.269531 30.40625 -29.4375 C 30.15625 -29.601562 30.03125 -29.941406 30.03125 -30.453125 C 29.976562 -32.035156 29.925781 -33.410156 29.875 -34.578125 C 29.832031 -35.742188 29.671875 -36.710938 29.390625 -37.484375 C 29.117188 -38.253906 28.691406 -38.8125 28.109375 -39.15625 C 27.523438 -39.507812 26.71875 -39.6875 25.6875 -39.6875 C 24.195312 -39.6875 22.925781 -39.367188 21.875 -38.734375 C 20.820312 -38.109375 19.929688 -37.296875 19.203125 -36.296875 C 18.484375 -35.296875 17.898438 -34.164062 17.453125 -32.90625 C 17.015625 -31.644531 16.664062 -30.359375 16.40625 -29.046875 C 16.15625 -27.742188 15.992188 -26.484375 15.921875 -25.265625 C 15.847656 -24.054688 15.8125 -23.007812 15.8125 -22.125 C 15.8125 -17.832031 16.523438 -14.773438 17.953125 -12.953125 C 19.378906 -11.128906 21.582031 -10.21875 24.5625 -10.21875 Z M 24.5625 -10.21875 "/></g></g></g><g fill="#ffffff" fill-opacity="1"><g transform="translate(920.215741, 248.277312)"><g><path d="M 18.546875 0.703125 C 15.328125 0.703125 12.65625 0.25 10.53125 -0.65625 C 8.40625 -1.570312 6.710938 -2.820312 5.453125 -4.40625 C 4.191406 -6 3.304688 -7.851562 2.796875 -9.96875 C 2.285156 -12.09375 2.03125 -14.367188 2.03125 -16.796875 C 2.03125 -19.597656 2.367188 -22.335938 3.046875 -25.015625 C 3.722656 -27.703125 4.875 -30.09375 6.5 -32.1875 C 8.132812 -34.289062 10.296875 -35.984375 12.984375 -37.265625 C 15.671875 -38.554688 19.019531 -39.203125 23.03125 -39.203125 C 28.90625 -39.203125 33.113281 -37.765625 35.65625 -34.890625 C 38.207031 -32.023438 39.484375 -28 39.484375 -22.8125 C 39.484375 -21.375 39.375 -19.78125 39.15625 -18.03125 C 38.945312 -16.28125 38.550781 -14.539062 37.96875 -12.8125 C 37.382812 -11.082031 36.59375 -9.398438 35.59375 -7.765625 C 34.59375 -6.128906 33.320312 -4.679688 31.78125 -3.421875 C 30.238281 -2.171875 28.378906 -1.171875 26.203125 -0.421875 C 24.035156 0.328125 21.484375 0.703125 18.546875 0.703125 Z M 21.84375 -29.890625 C 20.070312 -29.890625 18.660156 -29.429688 17.609375 -28.515625 C 16.554688 -27.609375 15.757812 -26.515625 15.21875 -25.234375 C 14.6875 -23.953125 14.335938 -22.597656 14.171875 -21.171875 C 14.015625 -19.753906 13.9375 -18.550781 13.9375 -17.5625 C 13.9375 -14.488281 14.425781 -12.226562 15.40625 -10.78125 C 16.382812 -9.332031 17.78125 -8.609375 19.59375 -8.609375 C 21.226562 -8.609375 22.570312 -9.117188 23.625 -10.140625 C 24.675781 -11.171875 25.492188 -12.410156 26.078125 -13.859375 C 26.660156 -15.304688 27.054688 -16.820312 27.265625 -18.40625 C 27.472656 -20 27.578125 -21.332031 27.578125 -22.40625 C 27.578125 -24.738281 27.144531 -26.566406 26.28125 -27.890625 C 25.414062 -29.222656 23.9375 -29.890625 21.84375 -29.890625 Z M 21.84375 -29.890625 "/></g></g></g><g fill="#ffffff" fill-opacity="1"><g transform="translate(962.073454, 248.277312)"><g><path d="M 26.734375 -6.15625 C 26.734375 -7.1875 26.816406 -8.53125 26.984375 -10.1875 C 27.148438 -11.84375 27.3125 -13.59375 27.46875 -15.4375 C 27.632812 -17.28125 27.796875 -19.0625 27.953125 -20.78125 C 28.117188 -22.507812 28.203125 -23.957031 28.203125 -25.125 C 28.203125 -26.34375 27.910156 -27.425781 27.328125 -28.375 C 26.742188 -29.332031 25.613281 -29.8125 23.9375 -29.8125 C 22.300781 -29.8125 20.945312 -29.414062 19.875 -28.625 C 18.800781 -27.832031 17.898438 -26.382812 17.171875 -24.28125 C 16.453125 -22.1875 15.859375 -19.296875 15.390625 -15.609375 C 14.929688 -11.921875 14.488281 -7.1875 14.0625 -1.40625 C 14.019531 -0.84375 13.90625 -0.46875 13.71875 -0.28125 C 13.53125 -0.09375 13.132812 0 12.53125 0 L 10.015625 0 C 8.566406 0 7.382812 -0.148438 6.46875 -0.453125 C 5.5625 -0.753906 4.835938 -1.1875 4.296875 -1.75 C 3.765625 -2.3125 3.394531 -3 3.1875 -3.8125 C 2.976562 -4.632812 2.875 -5.582031 2.875 -6.65625 C 2.875 -7.351562 2.90625 -8.34375 2.96875 -9.625 C 3.039062 -10.90625 3.171875 -12.675781 3.359375 -14.9375 C 3.546875 -17.207031 3.765625 -20.078125 4.015625 -23.546875 C 4.273438 -27.023438 4.59375 -31.332031 4.96875 -36.46875 C 5.019531 -37.5 5.132812 -38.109375 5.3125 -38.296875 C 5.457031 -38.429688 5.832031 -38.5 6.4375 -38.5 L 9.171875 -38.5 C 10.566406 -38.5 11.71875 -38.332031 12.625 -38 C 13.539062 -37.675781 14.28125 -37.242188 14.84375 -36.703125 C 15.40625 -36.171875 15.800781 -35.539062 16.03125 -34.8125 C 16.257812 -34.09375 16.398438 -33.363281 16.453125 -32.625 C 17.898438 -35.09375 19.554688 -36.804688 21.421875 -37.765625 C 23.285156 -38.722656 25.617188 -39.203125 28.421875 -39.203125 C 30.378906 -39.203125 32.082031 -38.988281 33.53125 -38.5625 C 34.976562 -38.144531 36.175781 -37.4375 37.125 -36.4375 C 38.082031 -35.4375 38.796875 -34.128906 39.265625 -32.515625 C 39.734375 -30.898438 39.96875 -28.90625 39.96875 -26.53125 C 39.96875 -25.78125 39.921875 -24.703125 39.828125 -23.296875 C 39.734375 -21.898438 39.613281 -20.375 39.46875 -18.71875 C 39.332031 -17.0625 39.179688 -15.332031 39.015625 -13.53125 C 38.859375 -11.738281 38.707031 -10.070312 38.5625 -8.53125 C 38.425781 -7 38.3125 -5.648438 38.21875 -4.484375 C 38.125 -3.316406 38.078125 -2.546875 38.078125 -2.171875 C 38.078125 -1.140625 37.957031 -0.519531 37.71875 -0.3125 C 37.488281 -0.101562 36.976562 0 36.1875 0 L 33.953125 0 C 32.453125 0 31.234375 -0.140625 30.296875 -0.421875 C 29.367188 -0.703125 28.648438 -1.097656 28.140625 -1.609375 C 27.628906 -2.117188 27.265625 -2.757812 27.046875 -3.53125 C 26.835938 -4.300781 26.734375 -5.175781 26.734375 -6.15625 Z M 26.734375 -6.15625 "/></g></g></g><g fill="#ffffff" fill-opacity="1"><g transform="translate(1005.401081, 248.277312)"><g><path d="M 17.921875 -29.046875 C 17.773438 -27.273438 17.617188 -25.523438 17.453125 -23.796875 C 17.296875 -22.066406 17.144531 -20.429688 17 -18.890625 C 16.863281 -17.359375 16.757812 -15.984375 16.6875 -14.765625 C 16.625 -13.554688 16.59375 -12.625 16.59375 -11.96875 C 16.59375 -10.757812 16.734375 -9.953125 17.015625 -9.546875 C 17.296875 -9.148438 17.757812 -8.953125 18.40625 -8.953125 C 18.925781 -8.953125 19.367188 -9.046875 19.734375 -9.234375 C 20.109375 -9.421875 20.457031 -9.628906 20.78125 -9.859375 C 21.113281 -10.097656 21.40625 -10.3125 21.65625 -10.5 C 21.914062 -10.6875 22.210938 -10.78125 22.546875 -10.78125 C 22.867188 -10.78125 23.171875 -10.59375 23.453125 -10.21875 C 23.734375 -9.84375 23.875 -8.976562 23.875 -7.625 C 23.875 -5.0625 23.171875 -3.03125 21.765625 -1.53125 C 20.367188 -0.0390625 17.96875 0.703125 14.5625 0.703125 C 11.195312 0.703125 8.707031 -0.078125 7.09375 -1.640625 C 5.488281 -3.203125 4.6875 -5.59375 4.6875 -8.8125 C 4.6875 -9.519531 4.722656 -10.347656 4.796875 -11.296875 C 4.867188 -12.253906 4.972656 -13.503906 5.109375 -15.046875 C 5.242188 -16.585938 5.414062 -18.476562 5.625 -20.71875 C 5.84375 -22.957031 6.066406 -25.734375 6.296875 -29.046875 L 2.59375 -29.046875 C 2.21875 -29.046875 1.992188 -29.128906 1.921875 -29.296875 C 1.847656 -29.460938 1.8125 -29.707031 1.8125 -30.03125 L 2.03125 -33.59375 C 2.070312 -34.207031 2.148438 -34.804688 2.265625 -35.390625 C 2.390625 -35.972656 2.625 -36.492188 2.96875 -36.953125 C 3.320312 -37.421875 3.820312 -37.796875 4.46875 -38.078125 C 5.125 -38.359375 5.988281 -38.5 7.0625 -38.5 C 7.394531 -39.34375 7.769531 -40.347656 8.1875 -41.515625 C 8.601562 -42.679688 9.019531 -43.8125 9.4375 -44.90625 C 9.863281 -46 10.273438 -46.921875 10.671875 -47.671875 C 11.066406 -48.421875 11.429688 -48.796875 11.765625 -48.796875 L 13.796875 -48.796875 C 15.753906 -48.796875 17.101562 -48.1875 17.84375 -46.96875 C 18.59375 -45.757812 18.96875 -44.3125 18.96875 -42.625 C 18.96875 -41.695312 18.898438 -40.320312 18.765625 -38.5 L 26.109375 -38.5 C 26.859375 -38.5 27.234375 -38.171875 27.234375 -37.515625 L 26.953125 -33.734375 C 26.859375 -32.335938 26.472656 -31.207031 25.796875 -30.34375 C 25.117188 -29.476562 23.726562 -29.046875 21.625 -29.046875 Z M 17.921875 -29.046875 "/></g></g></g><g fill="#ffffff" fill-opacity="1"><g transform="translate(1033.32955, 248.277312)"><g><path d="M 0.765625 -8.609375 C 0.765625 -12.804688 2.65625 -16.09375 6.4375 -18.46875 C 10.21875 -20.851562 15.796875 -22.140625 23.171875 -22.328125 C 23.210938 -22.835938 23.242188 -23.269531 23.265625 -23.625 C 23.296875 -23.976562 23.3125 -24.410156 23.3125 -24.921875 C 23.3125 -26.410156 23.03125 -27.597656 22.46875 -28.484375 C 21.90625 -29.367188 20.738281 -29.8125 18.96875 -29.8125 C 17.988281 -29.8125 17.195312 -29.671875 16.59375 -29.390625 C 15.988281 -29.117188 15.5 -28.738281 15.125 -28.25 C 14.75 -27.757812 14.441406 -27.160156 14.203125 -26.453125 C 13.972656 -25.753906 13.765625 -24.988281 13.578125 -24.15625 C 13.484375 -23.726562 13.269531 -23.457031 12.9375 -23.34375 C 12.613281 -23.226562 12.101562 -23.171875 11.40625 -23.171875 C 6.644531 -23.171875 4.265625 -24.96875 4.265625 -28.5625 C 4.265625 -30.007812 4.601562 -31.382812 5.28125 -32.6875 C 5.957031 -34 6.960938 -35.128906 8.296875 -36.078125 C 9.628906 -37.035156 11.296875 -37.796875 13.296875 -38.359375 C 15.304688 -38.921875 17.640625 -39.203125 20.296875 -39.203125 C 25.472656 -39.203125 29.226562 -38.128906 31.5625 -35.984375 C 33.894531 -33.835938 35.0625 -30.800781 35.0625 -26.875 C 35.0625 -26.363281 35.003906 -25.441406 34.890625 -24.109375 C 34.773438 -22.785156 34.632812 -21.382812 34.46875 -19.90625 C 34.3125 -18.4375 34.171875 -17.050781 34.046875 -15.75 C 33.929688 -14.445312 33.875 -13.535156 33.875 -13.015625 C 33.875 -11.847656 34.082031 -11.019531 34.5 -10.53125 C 34.925781 -10.039062 35.40625 -9.703125 35.9375 -9.515625 C 36.476562 -9.328125 36.957031 -9.1875 37.375 -9.09375 C 37.800781 -9 38.015625 -8.769531 38.015625 -8.40625 C 38.015625 -7.375 37.875 -6.320312 37.59375 -5.25 C 37.3125 -4.175781 36.851562 -3.195312 36.21875 -2.3125 C 35.59375 -1.425781 34.726562 -0.703125 33.625 -0.140625 C 32.53125 0.421875 31.191406 0.703125 29.609375 0.703125 C 27.367188 0.703125 25.6875 0.164062 24.5625 -0.90625 C 23.445312 -1.976562 22.703125 -3.472656 22.328125 -5.390625 C 21.210938 -3.753906 19.753906 -2.328125 17.953125 -1.109375 C 16.160156 0.0976562 13.816406 0.703125 10.921875 0.703125 C 9.515625 0.703125 8.191406 0.535156 6.953125 0.203125 C 5.722656 -0.117188 4.648438 -0.648438 3.734375 -1.390625 C 2.828125 -2.140625 2.101562 -3.109375 1.5625 -4.296875 C 1.03125 -5.492188 0.765625 -6.929688 0.765625 -8.609375 Z M 22.546875 -16.59375 C 21.328125 -16.59375 20.132812 -16.5 18.96875 -16.3125 C 17.800781 -16.125 16.757812 -15.832031 15.84375 -15.4375 C 14.9375 -15.039062 14.203125 -14.515625 13.640625 -13.859375 C 13.085938 -13.203125 12.8125 -12.410156 12.8125 -11.484375 C 12.8125 -10.410156 13.148438 -9.660156 13.828125 -9.234375 C 14.503906 -8.816406 15.238281 -8.609375 16.03125 -8.609375 C 16.78125 -8.609375 17.523438 -8.769531 18.265625 -9.09375 C 19.015625 -9.425781 19.679688 -9.929688 20.265625 -10.609375 C 20.847656 -11.285156 21.347656 -12.113281 21.765625 -13.09375 C 22.191406 -14.070312 22.453125 -15.238281 22.546875 -16.59375 Z M 22.546875 -16.59375 "/></g></g></g><g fill="#ffffff" fill-opacity="1"><g transform="translate(1072.737393, 248.277312)"><g><path d="M 10.078125 0 C 8.628906 0 7.453125 -0.148438 6.546875 -0.453125 C 5.640625 -0.753906 4.914062 -1.1875 4.375 -1.75 C 3.832031 -2.3125 3.457031 -3 3.25 -3.8125 C 3.039062 -4.632812 2.9375 -5.582031 2.9375 -6.65625 C 2.9375 -7.351562 2.972656 -8.34375 3.046875 -9.625 C 3.117188 -10.90625 3.242188 -12.675781 3.421875 -14.9375 C 3.609375 -17.207031 3.832031 -20.078125 4.09375 -23.546875 C 4.351562 -27.023438 4.671875 -31.332031 5.046875 -36.46875 C 5.085938 -37.5 5.203125 -38.109375 5.390625 -38.296875 C 5.523438 -38.429688 5.898438 -38.5 6.515625 -38.5 L 9.234375 -38.5 C 10.679688 -38.5 11.859375 -38.359375 12.765625 -38.078125 C 13.679688 -37.796875 14.40625 -37.375 14.9375 -36.8125 C 15.476562 -36.257812 15.851562 -35.582031 16.0625 -34.78125 C 16.269531 -33.988281 16.375 -33.101562 16.375 -32.125 C 16.375 -31.425781 16.328125 -30.375 16.234375 -28.96875 C 16.140625 -27.570312 16.007812 -25.671875 15.84375 -23.265625 C 15.6875 -20.867188 15.46875 -17.882812 15.1875 -14.3125 C 14.90625 -10.738281 14.554688 -6.4375 14.140625 -1.40625 C 14.085938 -0.84375 13.96875 -0.46875 13.78125 -0.28125 C 13.601562 -0.09375 13.207031 0 12.59375 0 Z M 5.109375 -46.765625 C 5.109375 -48.628906 5.785156 -50.097656 7.140625 -51.171875 C 8.492188 -52.242188 10.3125 -52.78125 12.59375 -52.78125 C 14.601562 -52.78125 16.0625 -52.367188 16.96875 -51.546875 C 17.882812 -50.734375 18.34375 -49.648438 18.34375 -48.296875 C 18.34375 -46.566406 17.695312 -45.128906 16.40625 -43.984375 C 15.125 -42.847656 13.25 -42.28125 10.78125 -42.28125 C 7 -42.28125 5.109375 -43.773438 5.109375 -46.765625 Z M 5.109375 -46.765625 "/></g></g></g><g fill="#ffffff" fill-opacity="1"><g transform="translate(1092.406307, 248.277312)"><g><path d="M 26.734375 -6.15625 C 26.734375 -7.1875 26.816406 -8.53125 26.984375 -10.1875 C 27.148438 -11.84375 27.3125 -13.59375 27.46875 -15.4375 C 27.632812 -17.28125 27.796875 -19.0625 27.953125 -20.78125 C 28.117188 -22.507812 28.203125 -23.957031 28.203125 -25.125 C 28.203125 -26.34375 27.910156 -27.425781 27.328125 -28.375 C 26.742188 -29.332031 25.613281 -29.8125 23.9375 -29.8125 C 22.300781 -29.8125 20.945312 -29.414062 19.875 -28.625 C 18.800781 -27.832031 17.898438 -26.382812 17.171875 -24.28125 C 16.453125 -22.1875 15.859375 -19.296875 15.390625 -15.609375 C 14.929688 -11.921875 14.488281 -7.1875 14.0625 -1.40625 C 14.019531 -0.84375 13.90625 -0.46875 13.71875 -0.28125 C 13.53125 -0.09375 13.132812 0 12.53125 0 L 10.015625 0 C 8.566406 0 7.382812 -0.148438 6.46875 -0.453125 C 5.5625 -0.753906 4.835938 -1.1875 4.296875 -1.75 C 3.765625 -2.3125 3.394531 -3 3.1875 -3.8125 C 2.976562 -4.632812 2.875 -5.582031 2.875 -6.65625 C 2.875 -7.351562 2.90625 -8.34375 2.96875 -9.625 C 3.039062 -10.90625 3.171875 -12.675781 3.359375 -14.9375 C 3.546875 -17.207031 3.765625 -20.078125 4.015625 -23.546875 C 4.273438 -27.023438 4.59375 -31.332031 4.96875 -36.46875 C 5.019531 -37.5 5.132812 -38.109375 5.3125 -38.296875 C 5.457031 -38.429688 5.832031 -38.5 6.4375 -38.5 L 9.171875 -38.5 C 10.566406 -38.5 11.71875 -38.332031 12.625 -38 C 13.539062 -37.675781 14.28125 -37.242188 14.84375 -36.703125 C 15.40625 -36.171875 15.800781 -35.539062 16.03125 -34.8125 C 16.257812 -34.09375 16.398438 -33.363281 16.453125 -32.625 C 17.898438 -35.09375 19.554688 -36.804688 21.421875 -37.765625 C 23.285156 -38.722656 25.617188 -39.203125 28.421875 -39.203125 C 30.378906 -39.203125 32.082031 -38.988281 33.53125 -38.5625 C 34.976562 -38.144531 36.175781 -37.4375 37.125 -36.4375 C 38.082031 -35.4375 38.796875 -34.128906 39.265625 -32.515625 C 39.734375 -30.898438 39.96875 -28.90625 39.96875 -26.53125 C 39.96875 -25.78125 39.921875 -24.703125 39.828125 -23.296875 C 39.734375 -21.898438 39.613281 -20.375 39.46875 -18.71875 C 39.332031 -17.0625 39.179688 -15.332031 39.015625 -13.53125 C 38.859375 -11.738281 38.707031 -10.070312 38.5625 -8.53125 C 38.425781 -7 38.3125 -5.648438 38.21875 -4.484375 C 38.125 -3.316406 38.078125 -2.546875 38.078125 -2.171875 C 38.078125 -1.140625 37.957031 -0.519531 37.71875 -0.3125 C 37.488281 -0.101562 36.976562 0 36.1875 0 L 33.953125 0 C 32.453125 0 31.234375 -0.140625 30.296875 -0.421875 C 29.367188 -0.703125 28.648438 -1.097656 28.140625 -1.609375 C 27.628906 -2.117188 27.265625 -2.757812 27.046875 -3.53125 C 26.835938 -4.300781 26.734375 -5.175781 26.734375 -6.15625 Z M 26.734375 -6.15625 "/></g></g></g><g fill="#ffffff" fill-opacity="1"><g transform="translate(1135.733934, 248.277312)"><g><path d="M 19.046875 0.703125 C 16.984375 0.703125 14.9375 0.445312 12.90625 -0.0625 C 10.882812 -0.582031 9.066406 -1.472656 7.453125 -2.734375 C 5.847656 -3.992188 4.53125 -5.671875 3.5 -7.765625 C 2.46875 -9.867188 1.953125 -12.507812 1.953125 -15.6875 C 1.953125 -16.851562 2.046875 -18.25 2.234375 -19.875 C 2.421875 -21.507812 2.78125 -23.191406 3.3125 -24.921875 C 3.851562 -26.648438 4.601562 -28.363281 5.5625 -30.0625 C 6.519531 -31.769531 7.769531 -33.300781 9.3125 -34.65625 C 10.851562 -36.007812 12.71875 -37.101562 14.90625 -37.9375 C 17.101562 -38.78125 19.71875 -39.203125 22.75 -39.203125 C 25.175781 -39.203125 27.226562 -38.921875 28.90625 -38.359375 C 30.59375 -37.796875 31.945312 -37.035156 32.96875 -36.078125 C 34 -35.128906 34.742188 -34.023438 35.203125 -32.765625 C 35.671875 -31.503906 35.90625 -30.148438 35.90625 -28.703125 C 35.90625 -26.554688 35.472656 -24.734375 34.609375 -23.234375 C 33.742188 -21.742188 32.625 -20.492188 31.25 -19.484375 C 29.875 -18.484375 28.347656 -17.703125 26.671875 -17.140625 C 24.992188 -16.585938 23.335938 -16.160156 21.703125 -15.859375 C 20.066406 -15.554688 18.5625 -15.367188 17.1875 -15.296875 C 15.8125 -15.222656 14.75 -15.1875 14 -15.1875 C 14 -14.300781 14.125 -13.425781 14.375 -12.5625 C 14.632812 -11.695312 15.019531 -10.9375 15.53125 -10.28125 C 16.050781 -9.632812 16.726562 -9.097656 17.5625 -8.671875 C 18.40625 -8.253906 19.4375 -8.046875 20.65625 -8.046875 C 21.863281 -8.046875 22.804688 -8.242188 23.484375 -8.640625 C 24.160156 -9.035156 24.707031 -9.476562 25.125 -9.96875 C 25.550781 -10.457031 25.914062 -10.898438 26.21875 -11.296875 C 26.519531 -11.703125 26.925781 -11.90625 27.4375 -11.90625 C 27.675781 -11.90625 28.085938 -11.84375 28.671875 -11.71875 C 29.253906 -11.601562 29.847656 -11.359375 30.453125 -10.984375 C 31.054688 -10.617188 31.59375 -10.109375 32.0625 -9.453125 C 32.53125 -8.796875 32.765625 -7.957031 32.765625 -6.9375 C 32.765625 -5.582031 32.34375 -4.410156 31.5 -3.421875 C 30.65625 -2.441406 29.566406 -1.648438 28.234375 -1.046875 C 26.910156 -0.441406 25.429688 0 23.796875 0.28125 C 22.160156 0.5625 20.578125 0.703125 19.046875 0.703125 Z M 20.375 -29.890625 C 19.34375 -29.890625 18.460938 -29.597656 17.734375 -29.015625 C 17.015625 -28.429688 16.410156 -27.695312 15.921875 -26.8125 C 15.429688 -25.925781 15.054688 -24.945312 14.796875 -23.875 C 14.546875 -22.800781 14.347656 -21.773438 14.203125 -20.796875 C 17.097656 -20.835938 19.441406 -21.320312 21.234375 -22.25 C 23.035156 -23.1875 23.9375 -24.519531 23.9375 -26.25 C 23.9375 -27.1875 23.644531 -28.023438 23.0625 -28.765625 C 22.476562 -29.515625 21.582031 -29.890625 20.375 -29.890625 Z M 20.375 -29.890625 "/></g></g></g><g fill="#ffffff" fill-opacity="1"><g transform="translate(1172.971885, 248.277312)"><g><path d="M 25.484375 -21.765625 C 25.203125 -21.765625 24.882812 -21.773438 24.53125 -21.796875 C 24.1875 -21.828125 23.847656 -21.875 23.515625 -21.9375 C 23.191406 -22.007812 22.910156 -22.101562 22.671875 -22.21875 C 22.441406 -22.34375 22.328125 -22.5 22.328125 -22.6875 C 22.328125 -23.289062 22.347656 -23.847656 22.390625 -24.359375 C 22.441406 -24.867188 22.46875 -25.40625 22.46875 -25.96875 C 22.46875 -27 22.328125 -27.835938 22.046875 -28.484375 C 21.765625 -29.140625 21.207031 -29.46875 20.375 -29.46875 C 19.0625 -29.46875 17.972656 -28.613281 17.109375 -26.90625 C 16.242188 -25.207031 15.695312 -22.65625 15.46875 -19.25 C 15.375 -17.757812 15.242188 -16.066406 15.078125 -14.171875 C 14.921875 -12.285156 14.769531 -10.46875 14.625 -8.71875 C 14.488281 -6.96875 14.375 -5.414062 14.28125 -4.0625 C 14.1875 -2.707031 14.140625 -1.820312 14.140625 -1.40625 C 14.140625 -0.9375 13.972656 -0.582031 13.640625 -0.34375 C 13.316406 -0.113281 12.96875 0 12.59375 0 L 10.078125 0 C 8.628906 0 7.453125 -0.148438 6.546875 -0.453125 C 5.640625 -0.753906 4.914062 -1.1875 4.375 -1.75 C 3.832031 -2.3125 3.457031 -3 3.25 -3.8125 C 3.039062 -4.632812 2.9375 -5.582031 2.9375 -6.65625 C 2.9375 -7.351562 2.972656 -8.34375 3.046875 -9.625 C 3.117188 -10.90625 3.242188 -12.675781 3.421875 -14.9375 C 3.609375 -17.207031 3.832031 -20.078125 4.09375 -23.546875 C 4.351562 -27.023438 4.671875 -31.332031 5.046875 -36.46875 C 5.140625 -37.820312 5.628906 -38.5 6.515625 -38.5 L 9.234375 -38.5 C 10.546875 -38.5 11.644531 -38.359375 12.53125 -38.078125 C 13.414062 -37.796875 14.140625 -37.410156 14.703125 -36.921875 C 15.265625 -36.429688 15.671875 -35.859375 15.921875 -35.203125 C 16.179688 -34.554688 16.359375 -33.882812 16.453125 -33.1875 C 17.015625 -34.257812 17.675781 -35.175781 18.4375 -35.9375 C 19.207031 -36.707031 20.015625 -37.335938 20.859375 -37.828125 C 21.703125 -38.316406 22.566406 -38.664062 23.453125 -38.875 C 24.335938 -39.09375 25.15625 -39.203125 25.90625 -39.203125 C 26.789062 -39.203125 27.6875 -39.035156 28.59375 -38.703125 C 29.5 -38.378906 30.328125 -37.890625 31.078125 -37.234375 C 31.828125 -36.585938 32.421875 -35.75 32.859375 -34.71875 C 33.304688 -33.695312 33.53125 -32.484375 33.53125 -31.078125 C 33.53125 -29.816406 33.34375 -28.625 32.96875 -27.5 C 32.59375 -26.382812 32.054688 -25.394531 31.359375 -24.53125 C 30.660156 -23.664062 29.804688 -22.988281 28.796875 -22.5 C 27.796875 -22.007812 26.691406 -21.765625 25.484375 -21.765625 Z M 25.484375 -21.765625 "/></g></g></g><g fill="#ffffff" fill-opacity="1"><g transform="translate(346.517595, 248.277312)"><g><path d="M 10.84375 0 C 8.238281 0 6.375 -0.507812 5.25 -1.53125 C 4.125 -2.5625 3.5625 -4.035156 3.5625 -5.953125 C 3.5625 -6.878906 3.628906 -8.472656 3.765625 -10.734375 C 3.910156 -13.003906 4.097656 -15.582031 4.328125 -18.46875 C 4.566406 -21.363281 4.800781 -24.421875 5.03125 -27.640625 C 5.269531 -30.867188 5.503906 -33.90625 5.734375 -36.75 C 5.972656 -39.59375 6.160156 -42.085938 6.296875 -44.234375 C 6.441406 -46.378906 6.515625 -47.851562 6.515625 -48.65625 C 6.515625 -49.351562 6.882812 -49.703125 7.625 -49.703125 L 11.484375 -49.703125 C 14.328125 -49.703125 16.238281 -49.09375 17.21875 -47.875 C 18.195312 -46.664062 18.6875 -44.867188 18.6875 -42.484375 C 18.6875 -42.253906 18.648438 -41.507812 18.578125 -40.25 C 18.515625 -38.988281 18.410156 -37.398438 18.265625 -35.484375 C 18.128906 -33.578125 17.976562 -31.441406 17.8125 -29.078125 C 17.644531 -26.722656 17.476562 -24.304688 17.3125 -21.828125 C 17.15625 -19.359375 16.992188 -16.945312 16.828125 -14.59375 C 16.671875 -12.238281 16.519531 -10.101562 16.375 -8.1875 C 16.238281 -6.269531 16.125 -4.671875 16.03125 -3.390625 C 15.9375 -2.109375 15.863281 -1.328125 15.8125 -1.046875 C 15.769531 -0.671875 15.675781 -0.398438 15.53125 -0.234375 C 15.394531 -0.078125 15.117188 0 14.703125 0 Z M 10.84375 0 "/></g></g></g><g fill="#ffffff" fill-opacity="1"><g transform="translate(368.496396, 248.277312)"><g><path d="M 14.984375 -12.59375 C 14.835938 -10.445312 14.671875 -8.40625 14.484375 -6.46875 C 14.296875 -4.53125 14.15625 -2.84375 14.0625 -1.40625 C 14.019531 -0.84375 13.90625 -0.46875 13.71875 -0.28125 C 13.53125 -0.09375 13.132812 0 12.53125 0 L 10.015625 0 C 8.566406 0 7.382812 -0.148438 6.46875 -0.453125 C 5.5625 -0.753906 4.835938 -1.1875 4.296875 -1.75 C 3.765625 -2.3125 3.394531 -3 3.1875 -3.8125 C 2.976562 -4.632812 2.875 -5.582031 2.875 -6.65625 C 2.875 -7.351562 2.90625 -8.34375 2.96875 -9.625 C 3.039062 -10.90625 3.171875 -12.675781 3.359375 -14.9375 C 3.546875 -17.207031 3.765625 -20.078125 4.015625 -23.546875 C 4.273438 -27.023438 4.59375 -31.332031 4.96875 -36.46875 C 5.019531 -37.5 5.132812 -38.109375 5.3125 -38.296875 C 5.457031 -38.429688 5.832031 -38.5 6.4375 -38.5 L 9.171875 -38.5 C 10.566406 -38.5 11.707031 -38.332031 12.59375 -38 C 13.488281 -37.675781 14.210938 -37.257812 14.765625 -36.75 C 15.328125 -36.238281 15.722656 -35.628906 15.953125 -34.921875 C 16.191406 -34.222656 16.332031 -33.503906 16.375 -32.765625 C 17.726562 -35.285156 19.269531 -36.988281 21 -37.875 C 22.726562 -38.757812 24.757812 -39.203125 27.09375 -39.203125 C 28.351562 -39.203125 29.566406 -39.082031 30.734375 -38.84375 C 31.898438 -38.613281 32.945312 -38.21875 33.875 -37.65625 C 34.8125 -37.09375 35.601562 -36.359375 36.25 -35.453125 C 36.90625 -34.546875 37.375 -33.390625 37.65625 -31.984375 C 39.101562 -34.691406 40.691406 -36.570312 42.421875 -37.625 C 44.148438 -38.675781 46.320312 -39.203125 48.9375 -39.203125 C 50.375 -39.203125 51.757812 -39.050781 53.09375 -38.75 C 54.425781 -38.445312 55.582031 -37.921875 56.5625 -37.171875 C 57.539062 -36.421875 58.320312 -35.40625 58.90625 -34.125 C 59.488281 -32.84375 59.78125 -31.242188 59.78125 -29.328125 C 59.78125 -27.878906 59.707031 -26.101562 59.5625 -24 C 59.425781 -21.90625 59.265625 -19.632812 59.078125 -17.1875 C 58.890625 -14.738281 58.675781 -12.21875 58.4375 -9.625 C 58.207031 -7.03125 58.023438 -4.546875 57.890625 -2.171875 C 57.835938 -1.660156 57.789062 -1.265625 57.75 -0.984375 C 57.707031 -0.703125 57.625 -0.488281 57.5 -0.34375 C 57.382812 -0.207031 57.207031 -0.113281 56.96875 -0.0625 C 56.738281 -0.0195312 56.414062 0 56 0 L 53.765625 0 C 52.265625 0 51.046875 -0.140625 50.109375 -0.421875 C 49.179688 -0.703125 48.460938 -1.097656 47.953125 -1.609375 C 47.441406 -2.117188 47.078125 -2.757812 46.859375 -3.53125 C 46.648438 -4.300781 46.546875 -5.175781 46.546875 -6.15625 C 46.546875 -6.757812 46.582031 -7.625 46.65625 -8.75 C 46.726562 -9.875 46.820312 -11.085938 46.9375 -12.390625 C 47.050781 -13.691406 47.164062 -15.039062 47.28125 -16.4375 C 47.394531 -17.84375 47.507812 -19.140625 47.625 -20.328125 C 47.75 -21.523438 47.84375 -22.566406 47.90625 -23.453125 C 47.976562 -24.335938 48.015625 -24.921875 48.015625 -25.203125 C 48.015625 -26.410156 47.769531 -27.476562 47.28125 -28.40625 C 46.789062 -29.34375 45.847656 -29.8125 44.453125 -29.8125 C 43.234375 -29.8125 42.179688 -29.414062 41.296875 -28.625 C 40.410156 -27.832031 39.664062 -26.734375 39.0625 -25.328125 C 38.457031 -23.929688 37.96875 -22.273438 37.59375 -20.359375 C 37.21875 -18.453125 36.957031 -16.378906 36.8125 -14.140625 C 36.726562 -12.691406 36.613281 -11.035156 36.46875 -9.171875 C 36.332031 -7.304688 36.171875 -4.972656 35.984375 -2.171875 C 35.929688 -1.660156 35.878906 -1.265625 35.828125 -0.984375 C 35.785156 -0.703125 35.707031 -0.488281 35.59375 -0.34375 C 35.476562 -0.207031 35.300781 -0.113281 35.0625 -0.0625 C 34.832031 -0.0195312 34.507812 0 34.09375 0 L 31.84375 0 C 30.351562 0 29.140625 -0.140625 28.203125 -0.421875 C 27.273438 -0.703125 26.550781 -1.097656 26.03125 -1.609375 C 25.519531 -2.117188 25.160156 -2.757812 24.953125 -3.53125 C 24.742188 -4.300781 24.640625 -5.175781 24.640625 -6.15625 C 24.640625 -7.09375 24.71875 -8.457031 24.875 -10.25 C 25.039062 -12.050781 25.207031 -13.921875 25.375 -15.859375 C 25.539062 -17.796875 25.703125 -19.640625 25.859375 -21.390625 C 26.023438 -23.140625 26.109375 -24.410156 26.109375 -25.203125 C 26.109375 -26.410156 25.863281 -27.476562 25.375 -28.40625 C 24.882812 -29.34375 23.941406 -29.8125 22.546875 -29.8125 C 21.285156 -29.8125 20.207031 -29.34375 19.3125 -28.40625 C 18.425781 -27.476562 17.691406 -26.234375 17.109375 -24.671875 C 16.523438 -23.109375 16.054688 -21.273438 15.703125 -19.171875 C 15.359375 -17.078125 15.117188 -14.882812 14.984375 -12.59375 Z M 14.984375 -12.59375 "/></g></g></g><g fill="#ffffff" fill-opacity="1"><g transform="translate(431.632944, 248.277312)"><g><path d="M 0.765625 -8.609375 C 0.765625 -12.804688 2.65625 -16.09375 6.4375 -18.46875 C 10.21875 -20.851562 15.796875 -22.140625 23.171875 -22.328125 C 23.210938 -22.835938 23.242188 -23.269531 23.265625 -23.625 C 23.296875 -23.976562 23.3125 -24.410156 23.3125 -24.921875 C 23.3125 -26.410156 23.03125 -27.597656 22.46875 -28.484375 C 21.90625 -29.367188 20.738281 -29.8125 18.96875 -29.8125 C 17.988281 -29.8125 17.195312 -29.671875 16.59375 -29.390625 C 15.988281 -29.117188 15.5 -28.738281 15.125 -28.25 C 14.75 -27.757812 14.441406 -27.160156 14.203125 -26.453125 C 13.972656 -25.753906 13.765625 -24.988281 13.578125 -24.15625 C 13.484375 -23.726562 13.269531 -23.457031 12.9375 -23.34375 C 12.613281 -23.226562 12.101562 -23.171875 11.40625 -23.171875 C 6.644531 -23.171875 4.265625 -24.96875 4.265625 -28.5625 C 4.265625 -30.007812 4.601562 -31.382812 5.28125 -32.6875 C 5.957031 -34 6.960938 -35.128906 8.296875 -36.078125 C 9.628906 -37.035156 11.296875 -37.796875 13.296875 -38.359375 C 15.304688 -38.921875 17.640625 -39.203125 20.296875 -39.203125 C 25.472656 -39.203125 29.226562 -38.128906 31.5625 -35.984375 C 33.894531 -33.835938 35.0625 -30.800781 35.0625 -26.875 C 35.0625 -26.363281 35.003906 -25.441406 34.890625 -24.109375 C 34.773438 -22.785156 34.632812 -21.382812 34.46875 -19.90625 C 34.3125 -18.4375 34.171875 -17.050781 34.046875 -15.75 C 33.929688 -14.445312 33.875 -13.535156 33.875 -13.015625 C 33.875 -11.847656 34.082031 -11.019531 34.5 -10.53125 C 34.925781 -10.039062 35.40625 -9.703125 35.9375 -9.515625 C 36.476562 -9.328125 36.957031 -9.1875 37.375 -9.09375 C 37.800781 -9 38.015625 -8.769531 38.015625 -8.40625 C 38.015625 -7.375 37.875 -6.320312 37.59375 -5.25 C 37.3125 -4.175781 36.851562 -3.195312 36.21875 -2.3125 C 35.59375 -1.425781 34.726562 -0.703125 33.625 -0.140625 C 32.53125 0.421875 31.191406 0.703125 29.609375 0.703125 C 27.367188 0.703125 25.6875 0.164062 24.5625 -0.90625 C 23.445312 -1.976562 22.703125 -3.472656 22.328125 -5.390625 C 21.210938 -3.753906 19.753906 -2.328125 17.953125 -1.109375 C 16.160156 0.0976562 13.816406 0.703125 10.921875 0.703125 C 9.515625 0.703125 8.191406 0.535156 6.953125 0.203125 C 5.722656 -0.117188 4.648438 -0.648438 3.734375 -1.390625 C 2.828125 -2.140625 2.101562 -3.109375 1.5625 -4.296875 C 1.03125 -5.492188 0.765625 -6.929688 0.765625 -8.609375 Z M 22.546875 -16.59375 C 21.328125 -16.59375 20.132812 -16.5 18.96875 -16.3125 C 17.800781 -16.125 16.757812 -15.832031 15.84375 -15.4375 C 14.9375 -15.039062 14.203125 -14.515625 13.640625 -13.859375 C 13.085938 -13.203125 12.8125 -12.410156 12.8125 -11.484375 C 12.8125 -10.410156 13.148438 -9.660156 13.828125 -9.234375 C 14.503906 -8.816406 15.238281 -8.609375 16.03125 -8.609375 C 16.78125 -8.609375 17.523438 -8.769531 18.265625 -9.09375 C 19.015625 -9.425781 19.679688 -9.929688 20.265625 -10.609375 C 20.847656 -11.285156 21.347656 -12.113281 21.765625 -13.09375 C 22.191406 -14.070312 22.453125 -15.238281 22.546875 -16.59375 Z M 22.546875 -16.59375 "/></g></g></g><g fill="#ffffff" fill-opacity="1"><g transform="translate(471.040786, 248.277312)"><g><path d="M 25.765625 -8.265625 C 24.597656 -6.160156 23.171875 -4.601562 21.484375 -3.59375 C 19.804688 -2.59375 17.707031 -2.09375 15.1875 -2.09375 C 13.269531 -2.09375 11.519531 -2.394531 9.9375 -3 C 8.351562 -3.613281 7 -4.570312 5.875 -5.875 C 4.757812 -7.1875 3.882812 -8.832031 3.25 -10.8125 C 2.625 -12.800781 2.3125 -15.171875 2.3125 -17.921875 C 2.3125 -20.160156 2.539062 -22.523438 3 -25.015625 C 3.46875 -27.515625 4.320312 -29.8125 5.5625 -31.90625 C 6.800781 -34.007812 8.492188 -35.75 10.640625 -37.125 C 12.785156 -38.507812 15.539062 -39.203125 18.90625 -39.203125 C 20.300781 -39.203125 21.5 -39.050781 22.5 -38.75 C 23.507812 -38.445312 24.375 -38.035156 25.09375 -37.515625 C 25.820312 -37.003906 26.40625 -36.398438 26.84375 -35.703125 C 27.289062 -35.003906 27.628906 -34.253906 27.859375 -33.453125 C 27.859375 -33.410156 27.867188 -33.585938 27.890625 -33.984375 C 27.921875 -34.378906 27.957031 -34.832031 28 -35.34375 C 28.039062 -35.863281 28.070312 -36.367188 28.09375 -36.859375 C 28.125 -37.347656 28.140625 -37.660156 28.140625 -37.796875 C 28.179688 -38.265625 28.484375 -38.5 29.046875 -38.5 L 32.265625 -38.5 C 34.691406 -38.5 36.453125 -37.992188 37.546875 -36.984375 C 38.648438 -35.984375 39.203125 -34.085938 39.203125 -31.296875 C 39.203125 -30.921875 39.175781 -30.066406 39.125 -28.734375 C 39.082031 -27.398438 39 -25.800781 38.875 -23.9375 C 38.757812 -22.070312 38.609375 -20.003906 38.421875 -17.734375 C 38.242188 -15.472656 38.035156 -13.195312 37.796875 -10.90625 C 37.566406 -8.625 37.3125 -6.429688 37.03125 -4.328125 C 36.75 -2.234375 36.445312 -0.394531 36.125 1.1875 C 35.789062 2.769531 35.226562 4.304688 34.4375 5.796875 C 33.644531 7.296875 32.523438 8.628906 31.078125 9.796875 C 29.628906 10.960938 27.773438 11.894531 25.515625 12.59375 C 23.253906 13.300781 20.488281 13.65625 17.21875 13.65625 C 14.75 13.65625 12.59375 13.421875 10.75 12.953125 C 8.90625 12.484375 7.375 11.863281 6.15625 11.09375 C 4.945312 10.320312 4.023438 9.445312 3.390625 8.46875 C 2.765625 7.488281 2.453125 6.507812 2.453125 5.53125 C 2.453125 4.644531 2.632812 3.875 3 3.21875 C 3.375 2.5625 3.863281 2.023438 4.46875 1.609375 C 5.082031 1.191406 5.75 0.875 6.46875 0.65625 C 7.195312 0.445312 7.890625 0.34375 8.546875 0.34375 C 9.335938 0.34375 9.914062 0.578125 10.28125 1.046875 C 10.65625 1.515625 11.078125 2.039062 11.546875 2.625 C 12.015625 3.207031 12.664062 3.734375 13.5 4.203125 C 14.34375 4.671875 15.65625 4.90625 17.4375 4.90625 C 20.507812 4.90625 22.664062 3.769531 23.90625 1.5 C 25.144531 -0.757812 25.765625 -4.015625 25.765625 -8.265625 Z M 19.875 -11.40625 C 21.5625 -11.40625 22.878906 -11.800781 23.828125 -12.59375 C 24.785156 -13.394531 25.519531 -14.351562 26.03125 -15.46875 C 26.550781 -16.59375 26.878906 -17.757812 27.015625 -18.96875 C 27.160156 -20.1875 27.234375 -21.238281 27.234375 -22.125 C 27.234375 -24.914062 26.800781 -26.90625 25.9375 -28.09375 C 25.070312 -29.289062 23.773438 -29.890625 22.046875 -29.890625 C 20.316406 -29.890625 18.960938 -29.421875 17.984375 -28.484375 C 17.003906 -27.554688 16.269531 -26.445312 15.78125 -25.15625 C 15.289062 -23.875 14.972656 -22.59375 14.828125 -21.3125 C 14.691406 -20.03125 14.625 -19.039062 14.625 -18.34375 C 14.625 -16.007812 15.019531 -14.269531 15.8125 -13.125 C 16.613281 -11.976562 17.96875 -11.40625 19.875 -11.40625 Z M 19.875 -11.40625 "/></g></g></g><g fill="#ffffff" fill-opacity="1"><g transform="translate(513.528463, 248.277312)"><g><path d="M 19.046875 0.703125 C 16.984375 0.703125 14.9375 0.445312 12.90625 -0.0625 C 10.882812 -0.582031 9.066406 -1.472656 7.453125 -2.734375 C 5.847656 -3.992188 4.53125 -5.671875 3.5 -7.765625 C 2.46875 -9.867188 1.953125 -12.507812 1.953125 -15.6875 C 1.953125 -16.851562 2.046875 -18.25 2.234375 -19.875 C 2.421875 -21.507812 2.78125 -23.191406 3.3125 -24.921875 C 3.851562 -26.648438 4.601562 -28.363281 5.5625 -30.0625 C 6.519531 -31.769531 7.769531 -33.300781 9.3125 -34.65625 C 10.851562 -36.007812 12.71875 -37.101562 14.90625 -37.9375 C 17.101562 -38.78125 19.71875 -39.203125 22.75 -39.203125 C 25.175781 -39.203125 27.226562 -38.921875 28.90625 -38.359375 C 30.59375 -37.796875 31.945312 -37.035156 32.96875 -36.078125 C 34 -35.128906 34.742188 -34.023438 35.203125 -32.765625 C 35.671875 -31.503906 35.90625 -30.148438 35.90625 -28.703125 C 35.90625 -26.554688 35.472656 -24.734375 34.609375 -23.234375 C 33.742188 -21.742188 32.625 -20.492188 31.25 -19.484375 C 29.875 -18.484375 28.347656 -17.703125 26.671875 -17.140625 C 24.992188 -16.585938 23.335938 -16.160156 21.703125 -15.859375 C 20.066406 -15.554688 18.5625 -15.367188 17.1875 -15.296875 C 15.8125 -15.222656 14.75 -15.1875 14 -15.1875 C 14 -14.300781 14.125 -13.425781 14.375 -12.5625 C 14.632812 -11.695312 15.019531 -10.9375 15.53125 -10.28125 C 16.050781 -9.632812 16.726562 -9.097656 17.5625 -8.671875 C 18.40625 -8.253906 19.4375 -8.046875 20.65625 -8.046875 C 21.863281 -8.046875 22.804688 -8.242188 23.484375 -8.640625 C 24.160156 -9.035156 24.707031 -9.476562 25.125 -9.96875 C 25.550781 -10.457031 25.914062 -10.898438 26.21875 -11.296875 C 26.519531 -11.703125 26.925781 -11.90625 27.4375 -11.90625 C 27.675781 -11.90625 28.085938 -11.84375 28.671875 -11.71875 C 29.253906 -11.601562 29.847656 -11.359375 30.453125 -10.984375 C 31.054688 -10.617188 31.59375 -10.109375 32.0625 -9.453125 C 32.53125 -8.796875 32.765625 -7.957031 32.765625 -6.9375 C 32.765625 -5.582031 32.34375 -4.410156 31.5 -3.421875 C 30.65625 -2.441406 29.566406 -1.648438 28.234375 -1.046875 C 26.910156 -0.441406 25.429688 0 23.796875 0.28125 C 22.160156 0.5625 20.578125 0.703125 19.046875 0.703125 Z M 20.375 -29.890625 C 19.34375 -29.890625 18.460938 -29.597656 17.734375 -29.015625 C 17.015625 -28.429688 16.410156 -27.695312 15.921875 -26.8125 C 15.429688 -25.925781 15.054688 -24.945312 14.796875 -23.875 C 14.546875 -22.800781 14.347656 -21.773438 14.203125 -20.796875 C 17.097656 -20.835938 19.441406 -21.320312 21.234375 -22.25 C 23.035156 -23.1875 23.9375 -24.519531 23.9375 -26.25 C 23.9375 -27.1875 23.644531 -28.023438 23.0625 -28.765625 C 22.476562 -29.515625 21.582031 -29.890625 20.375 -29.890625 Z M 20.375 -29.890625 "/></g></g></g><g fill="#c1ff72" fill-opacity="1"><g transform="translate(14.656347, 796.712332)"><g><path d="M 6.203125 0.25 C 5.210938 0.25 4.398438 0.1875 3.765625 0.0625 C 3.140625 -0.0625 2.640625 -0.242188 2.265625 -0.484375 C 1.890625 -0.722656 1.628906 -1.023438 1.484375 -1.390625 C 1.347656 -1.765625 1.28125 -2.203125 1.28125 -2.703125 C 1.28125 -2.847656 1.285156 -3.054688 1.296875 -3.328125 C 1.316406 -3.609375 1.34375 -4 1.375 -4.5 C 1.40625 -5 1.445312 -5.644531 1.5 -6.4375 C 1.5625 -7.226562 1.644531 -8.222656 1.75 -9.421875 C 1.863281 -10.910156 1.953125 -12.085938 2.015625 -12.953125 C 2.085938 -13.816406 2.140625 -14.484375 2.171875 -14.953125 C 2.203125 -15.429688 2.222656 -15.765625 2.234375 -15.953125 C 2.242188 -16.148438 2.25 -16.316406 2.25 -16.453125 C 2.25 -16.710938 2.253906 -16.925781 2.265625 -17.09375 C 2.273438 -17.257812 2.289062 -17.390625 2.3125 -17.484375 C 2.332031 -17.578125 2.375 -17.644531 2.4375 -17.6875 C 2.5 -17.726562 2.585938 -17.75 2.703125 -17.75 C 3.679688 -17.8125 4.515625 -17.859375 5.203125 -17.890625 C 5.898438 -17.929688 6.507812 -17.953125 7.03125 -17.953125 C 8.289062 -17.953125 9.375 -17.847656 10.28125 -17.640625 C 11.195312 -17.429688 11.9375 -17.132812 12.5 -16.75 C 13.0625 -16.363281 13.476562 -15.882812 13.75 -15.3125 C 14.019531 -14.75 14.15625 -14.113281 14.15625 -13.40625 C 14.15625 -13 14.113281 -12.582031 14.03125 -12.15625 C 13.945312 -11.738281 13.800781 -11.335938 13.59375 -10.953125 C 13.394531 -10.566406 13.125 -10.226562 12.78125 -9.9375 C 12.445312 -9.644531 12.019531 -9.429688 11.5 -9.296875 C 12.46875 -8.992188 13.148438 -8.5 13.546875 -7.8125 C 13.953125 -7.125 14.15625 -6.300781 14.15625 -5.34375 C 14.15625 -4.582031 14.03125 -3.863281 13.78125 -3.1875 C 13.53125 -2.507812 13.09375 -1.914062 12.46875 -1.40625 C 11.851562 -0.90625 11.035156 -0.503906 10.015625 -0.203125 C 9.003906 0.0976562 7.734375 0.25 6.203125 0.25 Z M 7.625 -7.5 C 7.4375 -7.5 7.207031 -7.484375 6.9375 -7.453125 C 6.675781 -7.429688 6.40625 -7.394531 6.125 -7.34375 L 5.84375 -3.28125 C 6.445312 -3.09375 6.988281 -3 7.46875 -3 C 7.988281 -3 8.40625 -3.070312 8.71875 -3.21875 C 9.039062 -3.375 9.285156 -3.5625 9.453125 -3.78125 C 9.628906 -4.007812 9.75 -4.257812 9.8125 -4.53125 C 9.875 -4.8125 9.90625 -5.066406 9.90625 -5.296875 C 9.90625 -5.910156 9.734375 -6.429688 9.390625 -6.859375 C 9.046875 -7.285156 8.457031 -7.5 7.625 -7.5 Z M 6.578125 -14.375 C 6.546875 -13.9375 6.515625 -13.425781 6.484375 -12.84375 C 6.460938 -12.257812 6.425781 -11.628906 6.375 -10.953125 C 6.90625 -10.816406 7.378906 -10.75 7.796875 -10.75 C 8.296875 -10.75 8.695312 -10.804688 9 -10.921875 C 9.300781 -11.035156 9.535156 -11.1875 9.703125 -11.375 C 9.878906 -11.5625 10 -11.757812 10.0625 -11.96875 C 10.125 -12.1875 10.15625 -12.394531 10.15625 -12.59375 C 10.15625 -13.113281 9.984375 -13.5625 9.640625 -13.9375 C 9.296875 -14.3125 8.707031 -14.5 7.875 -14.5 C 7.6875 -14.5 7.476562 -14.484375 7.25 -14.453125 C 7.03125 -14.429688 6.804688 -14.40625 6.578125 -14.375 Z M 6.578125 -14.375 "/></g></g></g><g fill="#c1ff72" fill-opacity="1"><g transform="translate(29.778946, 796.712332)"><g><path d="M 0.28125 -3.078125 C 0.28125 -4.578125 0.953125 -5.75 2.296875 -6.59375 C 3.648438 -7.445312 5.644531 -7.90625 8.28125 -7.96875 C 8.289062 -8.15625 8.300781 -8.3125 8.3125 -8.4375 C 8.320312 -8.5625 8.328125 -8.71875 8.328125 -8.90625 C 8.328125 -9.4375 8.222656 -9.859375 8.015625 -10.171875 C 7.816406 -10.492188 7.40625 -10.65625 6.78125 -10.65625 C 6.425781 -10.65625 6.140625 -10.601562 5.921875 -10.5 C 5.703125 -10.394531 5.523438 -10.253906 5.390625 -10.078125 C 5.265625 -9.910156 5.160156 -9.703125 5.078125 -9.453125 C 4.992188 -9.203125 4.914062 -8.925781 4.84375 -8.625 C 4.8125 -8.476562 4.738281 -8.382812 4.625 -8.34375 C 4.507812 -8.300781 4.328125 -8.28125 4.078125 -8.28125 C 2.378906 -8.28125 1.53125 -8.921875 1.53125 -10.203125 C 1.53125 -10.710938 1.648438 -11.203125 1.890625 -11.671875 C 2.128906 -12.140625 2.484375 -12.546875 2.953125 -12.890625 C 3.429688 -13.234375 4.03125 -13.503906 4.75 -13.703125 C 5.46875 -13.898438 6.300781 -14 7.25 -14 C 9.101562 -14 10.445312 -13.613281 11.28125 -12.84375 C 12.113281 -12.082031 12.53125 -11 12.53125 -9.59375 C 12.53125 -9.414062 12.507812 -9.085938 12.46875 -8.609375 C 12.425781 -8.140625 12.375 -7.640625 12.3125 -7.109375 C 12.25 -6.585938 12.195312 -6.09375 12.15625 -5.625 C 12.113281 -5.15625 12.09375 -4.832031 12.09375 -4.65625 C 12.09375 -4.238281 12.164062 -3.941406 12.3125 -3.765625 C 12.46875 -3.585938 12.640625 -3.460938 12.828125 -3.390625 C 13.023438 -3.328125 13.195312 -3.28125 13.34375 -3.25 C 13.5 -3.21875 13.578125 -3.132812 13.578125 -3 C 13.578125 -2.632812 13.523438 -2.257812 13.421875 -1.875 C 13.328125 -1.488281 13.164062 -1.132812 12.9375 -0.8125 C 12.707031 -0.5 12.394531 -0.242188 12 -0.046875 C 11.613281 0.148438 11.140625 0.25 10.578125 0.25 C 9.773438 0.25 9.171875 0.0546875 8.765625 -0.328125 C 8.367188 -0.710938 8.101562 -1.242188 7.96875 -1.921875 C 7.570312 -1.335938 7.050781 -0.828125 6.40625 -0.390625 C 5.769531 0.0351562 4.9375 0.25 3.90625 0.25 C 3.40625 0.25 2.929688 0.191406 2.484375 0.078125 C 2.046875 -0.0351562 1.660156 -0.226562 1.328125 -0.5 C 1.003906 -0.769531 0.75 -1.113281 0.5625 -1.53125 C 0.375 -1.957031 0.28125 -2.472656 0.28125 -3.078125 Z M 8.046875 -5.921875 C 7.617188 -5.921875 7.195312 -5.882812 6.78125 -5.8125 C 6.363281 -5.75 5.988281 -5.644531 5.65625 -5.5 C 5.332031 -5.363281 5.070312 -5.175781 4.875 -4.9375 C 4.675781 -4.707031 4.578125 -4.425781 4.578125 -4.09375 C 4.578125 -3.71875 4.695312 -3.453125 4.9375 -3.296875 C 5.175781 -3.148438 5.4375 -3.078125 5.71875 -3.078125 C 5.988281 -3.078125 6.253906 -3.132812 6.515625 -3.25 C 6.785156 -3.363281 7.023438 -3.539062 7.234375 -3.78125 C 7.441406 -4.03125 7.617188 -4.328125 7.765625 -4.671875 C 7.921875 -5.023438 8.015625 -5.441406 8.046875 -5.921875 Z M 8.046875 -5.921875 "/></g></g></g><g fill="#c1ff72" fill-opacity="1"><g transform="translate(43.851722, 796.712332)"><g><path d="M 9.09375 -7.78125 C 9 -7.78125 8.890625 -7.78125 8.765625 -7.78125 C 8.640625 -7.789062 8.515625 -7.804688 8.390625 -7.828125 C 8.273438 -7.859375 8.175781 -7.894531 8.09375 -7.9375 C 8.007812 -7.976562 7.96875 -8.03125 7.96875 -8.09375 C 7.96875 -8.3125 7.976562 -8.507812 8 -8.6875 C 8.019531 -8.875 8.03125 -9.070312 8.03125 -9.28125 C 8.03125 -9.644531 7.976562 -9.941406 7.875 -10.171875 C 7.769531 -10.410156 7.570312 -10.53125 7.28125 -10.53125 C 6.8125 -10.53125 6.421875 -10.222656 6.109375 -9.609375 C 5.804688 -9.003906 5.613281 -8.09375 5.53125 -6.875 C 5.488281 -6.34375 5.4375 -5.738281 5.375 -5.0625 C 5.320312 -4.382812 5.269531 -3.734375 5.21875 -3.109375 C 5.175781 -2.484375 5.132812 -1.925781 5.09375 -1.4375 C 5.0625 -0.957031 5.046875 -0.644531 5.046875 -0.5 C 5.046875 -0.332031 4.988281 -0.207031 4.875 -0.125 C 4.757812 -0.0390625 4.632812 0 4.5 0 L 3.59375 0 C 3.082031 0 2.660156 -0.0507812 2.328125 -0.15625 C 2.003906 -0.269531 1.75 -0.425781 1.5625 -0.625 C 1.375 -0.820312 1.238281 -1.066406 1.15625 -1.359375 C 1.082031 -1.648438 1.046875 -1.988281 1.046875 -2.375 C 1.046875 -2.625 1.054688 -2.976562 1.078125 -3.4375 C 1.109375 -3.894531 1.15625 -4.523438 1.21875 -5.328125 C 1.289062 -6.140625 1.367188 -7.164062 1.453125 -8.40625 C 1.546875 -9.65625 1.660156 -11.195312 1.796875 -13.03125 C 1.828125 -13.507812 2.003906 -13.75 2.328125 -13.75 L 3.296875 -13.75 C 3.765625 -13.75 4.15625 -13.695312 4.46875 -13.59375 C 4.789062 -13.5 5.050781 -13.363281 5.25 -13.1875 C 5.445312 -13.007812 5.59375 -12.800781 5.6875 -12.5625 C 5.78125 -12.332031 5.84375 -12.09375 5.875 -11.84375 C 6.070312 -12.226562 6.304688 -12.554688 6.578125 -12.828125 C 6.859375 -13.109375 7.148438 -13.335938 7.453125 -13.515625 C 7.753906 -13.691406 8.0625 -13.816406 8.375 -13.890625 C 8.6875 -13.960938 8.976562 -14 9.25 -14 C 9.5625 -14 9.878906 -13.941406 10.203125 -13.828125 C 10.535156 -13.710938 10.832031 -13.535156 11.09375 -13.296875 C 11.363281 -13.066406 11.578125 -12.765625 11.734375 -12.390625 C 11.890625 -12.023438 11.96875 -11.59375 11.96875 -11.09375 C 11.96875 -10.644531 11.898438 -10.21875 11.765625 -9.8125 C 11.640625 -9.414062 11.453125 -9.0625 11.203125 -8.75 C 10.953125 -8.445312 10.644531 -8.207031 10.28125 -8.03125 C 9.925781 -7.863281 9.53125 -7.78125 9.09375 -7.78125 Z M 9.09375 -7.78125 "/></g></g></g><g fill="#c1ff72" fill-opacity="1"><g transform="translate(55.824828, 796.712332)"><g><path d="M 9.09375 -7.78125 C 9 -7.78125 8.890625 -7.78125 8.765625 -7.78125 C 8.640625 -7.789062 8.515625 -7.804688 8.390625 -7.828125 C 8.273438 -7.859375 8.175781 -7.894531 8.09375 -7.9375 C 8.007812 -7.976562 7.96875 -8.03125 7.96875 -8.09375 C 7.96875 -8.3125 7.976562 -8.507812 8 -8.6875 C 8.019531 -8.875 8.03125 -9.070312 8.03125 -9.28125 C 8.03125 -9.644531 7.976562 -9.941406 7.875 -10.171875 C 7.769531 -10.410156 7.570312 -10.53125 7.28125 -10.53125 C 6.8125 -10.53125 6.421875 -10.222656 6.109375 -9.609375 C 5.804688 -9.003906 5.613281 -8.09375 5.53125 -6.875 C 5.488281 -6.34375 5.4375 -5.738281 5.375 -5.0625 C 5.320312 -4.382812 5.269531 -3.734375 5.21875 -3.109375 C 5.175781 -2.484375 5.132812 -1.925781 5.09375 -1.4375 C 5.0625 -0.957031 5.046875 -0.644531 5.046875 -0.5 C 5.046875 -0.332031 4.988281 -0.207031 4.875 -0.125 C 4.757812 -0.0390625 4.632812 0 4.5 0 L 3.59375 0 C 3.082031 0 2.660156 -0.0507812 2.328125 -0.15625 C 2.003906 -0.269531 1.75 -0.425781 1.5625 -0.625 C 1.375 -0.820312 1.238281 -1.066406 1.15625 -1.359375 C 1.082031 -1.648438 1.046875 -1.988281 1.046875 -2.375 C 1.046875 -2.625 1.054688 -2.976562 1.078125 -3.4375 C 1.109375 -3.894531 1.15625 -4.523438 1.21875 -5.328125 C 1.289062 -6.140625 1.367188 -7.164062 1.453125 -8.40625 C 1.546875 -9.65625 1.660156 -11.195312 1.796875 -13.03125 C 1.828125 -13.507812 2.003906 -13.75 2.328125 -13.75 L 3.296875 -13.75 C 3.765625 -13.75 4.15625 -13.695312 4.46875 -13.59375 C 4.789062 -13.5 5.050781 -13.363281 5.25 -13.1875 C 5.445312 -13.007812 5.59375 -12.800781 5.6875 -12.5625 C 5.78125 -12.332031 5.84375 -12.09375 5.875 -11.84375 C 6.070312 -12.226562 6.304688 -12.554688 6.578125 -12.828125 C 6.859375 -13.109375 7.148438 -13.335938 7.453125 -13.515625 C 7.753906 -13.691406 8.0625 -13.816406 8.375 -13.890625 C 8.6875 -13.960938 8.976562 -14 9.25 -14 C 9.5625 -14 9.878906 -13.941406 10.203125 -13.828125 C 10.535156 -13.710938 10.832031 -13.535156 11.09375 -13.296875 C 11.363281 -13.066406 11.578125 -12.765625 11.734375 -12.390625 C 11.890625 -12.023438 11.96875 -11.59375 11.96875 -11.09375 C 11.96875 -10.644531 11.898438 -10.21875 11.765625 -9.8125 C 11.640625 -9.414062 11.453125 -9.0625 11.203125 -8.75 C 10.953125 -8.445312 10.644531 -8.207031 10.28125 -8.03125 C 9.925781 -7.863281 9.53125 -7.78125 9.09375 -7.78125 Z M 9.09375 -7.78125 "/></g></g></g><g fill="#c1ff72" fill-opacity="1"><g transform="translate(67.797934, 796.712332)"><g><path d="M 5.796875 -11.453125 C 5.796875 -11.066406 5.769531 -10.609375 5.71875 -10.078125 C 5.675781 -9.554688 5.625 -9.03125 5.5625 -8.5 C 5.5 -7.976562 5.441406 -7.488281 5.390625 -7.03125 C 5.347656 -6.570312 5.328125 -6.21875 5.328125 -5.96875 C 5.328125 -5.34375 5.476562 -4.875 5.78125 -4.5625 C 6.09375 -4.25 6.472656 -4.09375 6.921875 -4.09375 C 7.703125 -4.09375 8.328125 -4.5 8.796875 -5.3125 C 9.265625 -6.132812 9.554688 -7.222656 9.671875 -8.578125 L 10.078125 -13.25 C 10.085938 -13.4375 10.144531 -13.566406 10.25 -13.640625 C 10.363281 -13.710938 10.488281 -13.75 10.625 -13.75 L 11.53125 -13.75 C 11.875 -13.75 12.195312 -13.71875 12.5 -13.65625 C 12.8125 -13.601562 13.082031 -13.492188 13.3125 -13.328125 C 13.550781 -13.171875 13.738281 -12.957031 13.875 -12.6875 C 14.007812 -12.425781 14.078125 -12.085938 14.078125 -11.671875 C 14.078125 -11.503906 14.0625 -11.191406 14.03125 -10.734375 C 14.007812 -10.273438 13.96875 -9.613281 13.90625 -8.75 C 13.851562 -7.894531 13.773438 -6.8125 13.671875 -5.5 C 13.578125 -4.195312 13.460938 -2.601562 13.328125 -0.71875 C 13.242188 0.375 12.992188 1.28125 12.578125 2 C 12.171875 2.726562 11.660156 3.304688 11.046875 3.734375 C 10.429688 4.160156 9.738281 4.457031 8.96875 4.625 C 8.207031 4.789062 7.425781 4.875 6.625 4.875 C 5.769531 4.875 4.988281 4.796875 4.28125 4.640625 C 3.570312 4.492188 2.957031 4.285156 2.4375 4.015625 C 1.925781 3.753906 1.523438 3.445312 1.234375 3.09375 C 0.941406 2.75 0.796875 2.375 0.796875 1.96875 C 0.796875 1.65625 0.863281 1.378906 1 1.140625 C 1.144531 0.910156 1.332031 0.71875 1.5625 0.5625 C 1.800781 0.414062 2.070312 0.304688 2.375 0.234375 C 2.6875 0.160156 3.007812 0.125 3.34375 0.125 C 3.507812 0.125 3.628906 0.207031 3.703125 0.375 C 3.785156 0.539062 3.90625 0.726562 4.0625 0.9375 C 4.21875 1.144531 4.46875 1.332031 4.8125 1.5 C 5.164062 1.664062 5.695312 1.75 6.40625 1.75 C 7.019531 1.75 7.515625 1.597656 7.890625 1.296875 C 8.273438 0.992188 8.570312 0.609375 8.78125 0.140625 C 8.988281 -0.316406 9.125 -0.820312 9.1875 -1.375 C 9.257812 -1.925781 9.296875 -2.453125 9.296875 -2.953125 C 9.035156 -2.484375 8.738281 -2.101562 8.40625 -1.8125 C 8.082031 -1.519531 7.742188 -1.296875 7.390625 -1.140625 C 7.046875 -0.984375 6.695312 -0.878906 6.34375 -0.828125 C 6 -0.773438 5.664062 -0.75 5.34375 -0.75 C 4.726562 -0.75 4.164062 -0.832031 3.65625 -1 C 3.15625 -1.164062 2.71875 -1.4375 2.34375 -1.8125 C 1.976562 -2.1875 1.695312 -2.671875 1.5 -3.265625 C 1.300781 -3.867188 1.203125 -4.597656 1.203125 -5.453125 C 1.203125 -5.765625 1.21875 -6.179688 1.25 -6.703125 C 1.28125 -7.234375 1.320312 -7.828125 1.375 -8.484375 C 1.425781 -9.140625 1.476562 -9.851562 1.53125 -10.625 C 1.59375 -11.394531 1.65625 -12.175781 1.71875 -12.96875 C 1.757812 -13.488281 1.992188 -13.75 2.421875 -13.75 L 3.21875 -13.75 C 3.757812 -13.75 4.195312 -13.695312 4.53125 -13.59375 C 4.863281 -13.5 5.125 -13.351562 5.3125 -13.15625 C 5.5 -12.96875 5.625 -12.726562 5.6875 -12.4375 C 5.757812 -12.144531 5.796875 -11.816406 5.796875 -11.453125 Z M 5.796875 -11.453125 "/></g></g></g><g fill="#c1ff72" fill-opacity="1"><g transform="translate(83.045515, 796.712332)"><g/></g></g><g fill="#d9d9d9" fill-opacity="1"><g transform="translate(88.425874, 796.712332)"><g><path d="M 12.46875 0 C 11.789062 0 11.285156 -0.0976562 10.953125 -0.296875 C 10.617188 -0.492188 10.375 -0.742188 10.21875 -1.046875 C 9.351562 -2.828125 8.539062 -4.535156 7.78125 -6.171875 C 7.03125 -7.804688 6.257812 -9.457031 5.46875 -11.125 C 5.488281 -9.320312 5.515625 -7.53125 5.546875 -5.75 C 5.578125 -3.96875 5.613281 -2.175781 5.65625 -0.375 C 5.65625 -0.125 5.519531 0 5.25 0 L 3.875 0 C 2.925781 0 2.253906 -0.1875 1.859375 -0.5625 C 1.472656 -0.9375 1.28125 -1.488281 1.28125 -2.21875 C 1.28125 -2.425781 1.289062 -2.765625 1.3125 -3.234375 C 1.332031 -3.710938 1.367188 -4.273438 1.421875 -4.921875 C 1.472656 -5.578125 1.523438 -6.289062 1.578125 -7.0625 C 1.640625 -7.832031 1.707031 -8.617188 1.78125 -9.421875 C 1.875 -10.691406 1.953125 -11.742188 2.015625 -12.578125 C 2.085938 -13.410156 2.144531 -14.113281 2.1875 -14.6875 C 2.226562 -15.257812 2.253906 -15.75 2.265625 -16.15625 C 2.285156 -16.570312 2.304688 -16.976562 2.328125 -17.375 C 2.328125 -17.625 2.457031 -17.75 2.71875 -17.75 L 4.71875 -17.75 C 5.269531 -17.75 5.71875 -17.6875 6.0625 -17.5625 C 6.414062 -17.4375 6.707031 -17.265625 6.9375 -17.046875 C 7.164062 -16.828125 7.34375 -16.582031 7.46875 -16.3125 C 7.601562 -16.039062 7.726562 -15.753906 7.84375 -15.453125 C 8.25 -14.421875 8.601562 -13.53125 8.90625 -12.78125 C 9.21875 -12.03125 9.488281 -11.367188 9.71875 -10.796875 C 9.957031 -10.234375 10.160156 -9.742188 10.328125 -9.328125 C 10.503906 -8.910156 10.664062 -8.523438 10.8125 -8.171875 C 10.96875 -7.828125 11.117188 -7.488281 11.265625 -7.15625 C 11.421875 -6.832031 11.582031 -6.476562 11.75 -6.09375 C 11.75 -7.082031 11.742188 -8.097656 11.734375 -9.140625 C 11.722656 -10.179688 11.710938 -11.195312 11.703125 -12.1875 C 11.703125 -13.175781 11.695312 -14.128906 11.6875 -15.046875 C 11.675781 -15.960938 11.671875 -16.789062 11.671875 -17.53125 C 11.671875 -17.675781 11.8125 -17.75 12.09375 -17.75 L 13.46875 -17.75 C 14.019531 -17.75 14.457031 -17.691406 14.78125 -17.578125 C 15.113281 -17.472656 15.367188 -17.316406 15.546875 -17.109375 C 15.734375 -16.898438 15.851562 -16.644531 15.90625 -16.34375 C 15.96875 -16.050781 16 -15.710938 16 -15.328125 C 16 -14.910156 15.972656 -14.269531 15.921875 -13.40625 C 15.867188 -12.550781 15.8125 -11.585938 15.75 -10.515625 C 15.6875 -9.453125 15.613281 -8.347656 15.53125 -7.203125 C 15.445312 -6.066406 15.363281 -5.015625 15.28125 -4.046875 C 15.207031 -3.078125 15.140625 -2.253906 15.078125 -1.578125 C 15.023438 -0.910156 14.988281 -0.519531 14.96875 -0.40625 C 14.96875 -0.269531 14.921875 -0.164062 14.828125 -0.09375 C 14.742188 -0.03125 14.644531 0 14.53125 0 Z M 12.46875 0 "/></g></g></g><g fill="#d9d9d9" fill-opacity="1"><g transform="translate(105.623151, 796.712332)"><g><path d="M 0.28125 -3.078125 C 0.28125 -4.578125 0.953125 -5.75 2.296875 -6.59375 C 3.648438 -7.445312 5.644531 -7.90625 8.28125 -7.96875 C 8.289062 -8.15625 8.300781 -8.3125 8.3125 -8.4375 C 8.320312 -8.5625 8.328125 -8.71875 8.328125 -8.90625 C 8.328125 -9.4375 8.222656 -9.859375 8.015625 -10.171875 C 7.816406 -10.492188 7.40625 -10.65625 6.78125 -10.65625 C 6.425781 -10.65625 6.140625 -10.601562 5.921875 -10.5 C 5.703125 -10.394531 5.523438 -10.253906 5.390625 -10.078125 C 5.265625 -9.910156 5.160156 -9.703125 5.078125 -9.453125 C 4.992188 -9.203125 4.914062 -8.925781 4.84375 -8.625 C 4.8125 -8.476562 4.738281 -8.382812 4.625 -8.34375 C 4.507812 -8.300781 4.328125 -8.28125 4.078125 -8.28125 C 2.378906 -8.28125 1.53125 -8.921875 1.53125 -10.203125 C 1.53125 -10.710938 1.648438 -11.203125 1.890625 -11.671875 C 2.128906 -12.140625 2.484375 -12.546875 2.953125 -12.890625 C 3.429688 -13.234375 4.03125 -13.503906 4.75 -13.703125 C 5.46875 -13.898438 6.300781 -14 7.25 -14 C 9.101562 -14 10.445312 -13.613281 11.28125 -12.84375 C 12.113281 -12.082031 12.53125 -11 12.53125 -9.59375 C 12.53125 -9.414062 12.507812 -9.085938 12.46875 -8.609375 C 12.425781 -8.140625 12.375 -7.640625 12.3125 -7.109375 C 12.25 -6.585938 12.195312 -6.09375 12.15625 -5.625 C 12.113281 -5.15625 12.09375 -4.832031 12.09375 -4.65625 C 12.09375 -4.238281 12.164062 -3.941406 12.3125 -3.765625 C 12.46875 -3.585938 12.640625 -3.460938 12.828125 -3.390625 C 13.023438 -3.328125 13.195312 -3.28125 13.34375 -3.25 C 13.5 -3.21875 13.578125 -3.132812 13.578125 -3 C 13.578125 -2.632812 13.523438 -2.257812 13.421875 -1.875 C 13.328125 -1.488281 13.164062 -1.132812 12.9375 -0.8125 C 12.707031 -0.5 12.394531 -0.242188 12 -0.046875 C 11.613281 0.148438 11.140625 0.25 10.578125 0.25 C 9.773438 0.25 9.171875 0.0546875 8.765625 -0.328125 C 8.367188 -0.710938 8.101562 -1.242188 7.96875 -1.921875 C 7.570312 -1.335938 7.050781 -0.828125 6.40625 -0.390625 C 5.769531 0.0351562 4.9375 0.25 3.90625 0.25 C 3.40625 0.25 2.929688 0.191406 2.484375 0.078125 C 2.046875 -0.0351562 1.660156 -0.226562 1.328125 -0.5 C 1.003906 -0.769531 0.75 -1.113281 0.5625 -1.53125 C 0.375 -1.957031 0.28125 -2.472656 0.28125 -3.078125 Z M 8.046875 -5.921875 C 7.617188 -5.921875 7.195312 -5.882812 6.78125 -5.8125 C 6.363281 -5.75 5.988281 -5.644531 5.65625 -5.5 C 5.332031 -5.363281 5.070312 -5.175781 4.875 -4.9375 C 4.675781 -4.707031 4.578125 -4.425781 4.578125 -4.09375 C 4.578125 -3.71875 4.695312 -3.453125 4.9375 -3.296875 C 5.175781 -3.148438 5.4375 -3.078125 5.71875 -3.078125 C 5.988281 -3.078125 6.253906 -3.132812 6.515625 -3.25 C 6.785156 -3.363281 7.023438 -3.539062 7.234375 -3.78125 C 7.441406 -4.03125 7.617188 -4.328125 7.765625 -4.671875 C 7.921875 -5.023438 8.015625 -5.441406 8.046875 -5.921875 Z M 8.046875 -5.921875 "/></g></g></g><g fill="#d9d9d9" fill-opacity="1"><g transform="translate(119.695927, 796.712332)"><g><path d="M 5.34375 -4.5 C 5.300781 -3.726562 5.242188 -3 5.171875 -2.3125 C 5.109375 -1.625 5.0625 -1.019531 5.03125 -0.5 C 5.007812 -0.300781 4.960938 -0.164062 4.890625 -0.09375 C 4.828125 -0.03125 4.6875 0 4.46875 0 L 3.578125 0 C 3.054688 0 2.632812 -0.0507812 2.3125 -0.15625 C 1.988281 -0.269531 1.726562 -0.425781 1.53125 -0.625 C 1.34375 -0.820312 1.210938 -1.066406 1.140625 -1.359375 C 1.066406 -1.648438 1.03125 -1.988281 1.03125 -2.375 C 1.03125 -2.625 1.039062 -2.976562 1.0625 -3.4375 C 1.082031 -3.894531 1.125 -4.523438 1.1875 -5.328125 C 1.257812 -6.140625 1.34375 -7.164062 1.4375 -8.40625 C 1.53125 -9.65625 1.644531 -11.195312 1.78125 -13.03125 C 1.789062 -13.394531 1.832031 -13.609375 1.90625 -13.671875 C 1.945312 -13.722656 2.078125 -13.75 2.296875 -13.75 L 3.28125 -13.75 C 3.78125 -13.75 4.1875 -13.691406 4.5 -13.578125 C 4.8125 -13.460938 5.066406 -13.3125 5.265625 -13.125 C 5.472656 -12.9375 5.617188 -12.71875 5.703125 -12.46875 C 5.785156 -12.21875 5.832031 -11.960938 5.84375 -11.703125 C 6.332031 -12.597656 6.882812 -13.203125 7.5 -13.515625 C 8.113281 -13.835938 8.835938 -14 9.671875 -14 C 10.117188 -14 10.550781 -13.957031 10.96875 -13.875 C 11.382812 -13.789062 11.757812 -13.648438 12.09375 -13.453125 C 12.425781 -13.253906 12.707031 -12.988281 12.9375 -12.65625 C 13.175781 -12.332031 13.347656 -11.921875 13.453125 -11.421875 C 13.960938 -12.390625 14.523438 -13.0625 15.140625 -13.4375 C 15.765625 -13.8125 16.539062 -14 17.46875 -14 C 17.988281 -14 18.484375 -13.941406 18.953125 -13.828125 C 19.429688 -13.722656 19.84375 -13.535156 20.1875 -13.265625 C 20.539062 -13.003906 20.820312 -12.644531 21.03125 -12.1875 C 21.238281 -11.726562 21.34375 -11.15625 21.34375 -10.46875 C 21.34375 -9.957031 21.316406 -9.328125 21.265625 -8.578125 C 21.222656 -7.828125 21.164062 -7.015625 21.09375 -6.140625 C 21.03125 -5.265625 20.957031 -4.363281 20.875 -3.4375 C 20.789062 -2.507812 20.722656 -1.625 20.671875 -0.78125 C 20.660156 -0.59375 20.644531 -0.445312 20.625 -0.34375 C 20.601562 -0.25 20.570312 -0.175781 20.53125 -0.125 C 20.488281 -0.0703125 20.425781 -0.0351562 20.34375 -0.015625 C 20.257812 -0.00390625 20.144531 0 20 0 L 19.203125 0 C 18.671875 0 18.238281 -0.046875 17.90625 -0.140625 C 17.570312 -0.242188 17.3125 -0.382812 17.125 -0.5625 C 16.9375 -0.75 16.804688 -0.976562 16.734375 -1.25 C 16.660156 -1.53125 16.625 -1.847656 16.625 -2.203125 C 16.625 -2.421875 16.632812 -2.726562 16.65625 -3.125 C 16.6875 -3.519531 16.722656 -3.953125 16.765625 -4.421875 C 16.804688 -4.890625 16.847656 -5.375 16.890625 -5.875 C 16.929688 -6.375 16.972656 -6.835938 17.015625 -7.265625 C 17.054688 -7.691406 17.085938 -8.0625 17.109375 -8.375 C 17.140625 -8.6875 17.15625 -8.894531 17.15625 -9 C 17.15625 -9.4375 17.066406 -9.820312 16.890625 -10.15625 C 16.710938 -10.488281 16.375 -10.65625 15.875 -10.65625 C 15.4375 -10.65625 15.0625 -10.507812 14.75 -10.21875 C 14.4375 -9.9375 14.171875 -9.546875 13.953125 -9.046875 C 13.734375 -8.546875 13.554688 -7.953125 13.421875 -7.265625 C 13.285156 -6.585938 13.195312 -5.847656 13.15625 -5.046875 C 13.113281 -4.535156 13.066406 -3.945312 13.015625 -3.28125 C 12.972656 -2.613281 12.914062 -1.78125 12.84375 -0.78125 C 12.832031 -0.59375 12.816406 -0.445312 12.796875 -0.34375 C 12.785156 -0.25 12.757812 -0.175781 12.71875 -0.125 C 12.675781 -0.0703125 12.613281 -0.0351562 12.53125 -0.015625 C 12.445312 -0.00390625 12.328125 0 12.171875 0 L 11.375 0 C 10.84375 0 10.410156 -0.046875 10.078125 -0.140625 C 9.742188 -0.242188 9.484375 -0.382812 9.296875 -0.5625 C 9.117188 -0.75 8.988281 -0.976562 8.90625 -1.25 C 8.832031 -1.53125 8.796875 -1.847656 8.796875 -2.203125 C 8.796875 -2.535156 8.820312 -3.019531 8.875 -3.65625 C 8.9375 -4.300781 9 -4.96875 9.0625 -5.65625 C 9.125 -6.351562 9.179688 -7.015625 9.234375 -7.640625 C 9.296875 -8.265625 9.328125 -8.71875 9.328125 -9 C 9.328125 -9.4375 9.238281 -9.820312 9.0625 -10.15625 C 8.882812 -10.488281 8.546875 -10.65625 8.046875 -10.65625 C 7.597656 -10.65625 7.210938 -10.488281 6.890625 -10.15625 C 6.578125 -9.820312 6.316406 -9.375 6.109375 -8.8125 C 5.898438 -8.25 5.734375 -7.59375 5.609375 -6.84375 C 5.484375 -6.09375 5.394531 -5.3125 5.34375 -4.5 Z M 5.34375 -4.5 "/></g></g></g><g fill="#d9d9d9" fill-opacity="1"><g transform="translate(142.242354, 796.712332)"><g><path d="M 5.59375 0.25 C 4.945312 0.25 4.328125 0.132812 3.734375 -0.09375 C 3.140625 -0.332031 2.625 -0.703125 2.1875 -1.203125 C 1.75 -1.703125 1.398438 -2.332031 1.140625 -3.09375 C 0.878906 -3.863281 0.75 -4.789062 0.75 -5.875 C 0.75 -6.351562 0.78125 -6.890625 0.84375 -7.484375 C 0.914062 -8.078125 1.035156 -8.671875 1.203125 -9.265625 C 1.367188 -9.867188 1.597656 -10.453125 1.890625 -11.015625 C 2.191406 -11.585938 2.570312 -12.09375 3.03125 -12.53125 C 3.488281 -12.976562 4.039062 -13.332031 4.6875 -13.59375 C 5.332031 -13.863281 6.085938 -14 6.953125 -14 C 7.785156 -14 8.453125 -13.851562 8.953125 -13.5625 C 9.460938 -13.269531 9.785156 -12.765625 9.921875 -12.046875 C 9.953125 -12.703125 9.984375 -13.269531 10.015625 -13.75 C 10.054688 -14.226562 10.085938 -14.675781 10.109375 -15.09375 C 10.140625 -15.507812 10.171875 -15.925781 10.203125 -16.34375 C 10.234375 -16.757812 10.265625 -17.238281 10.296875 -17.78125 C 10.316406 -18.144531 10.359375 -18.359375 10.421875 -18.421875 C 10.453125 -18.453125 10.492188 -18.472656 10.546875 -18.484375 C 10.597656 -18.492188 10.691406 -18.5 10.828125 -18.5 L 11.796875 -18.5 C 12.296875 -18.5 12.710938 -18.441406 13.046875 -18.328125 C 13.378906 -18.210938 13.644531 -18.050781 13.84375 -17.84375 C 14.050781 -17.644531 14.195312 -17.414062 14.28125 -17.15625 C 14.363281 -16.90625 14.40625 -16.632812 14.40625 -16.34375 C 14.40625 -16.34375 14.382812 -16.132812 14.34375 -15.71875 C 14.3125 -15.300781 14.269531 -14.75 14.21875 -14.0625 C 14.175781 -13.375 14.117188 -12.585938 14.046875 -11.703125 C 13.984375 -10.816406 13.914062 -9.898438 13.84375 -8.953125 C 13.78125 -8.015625 13.710938 -7.082031 13.640625 -6.15625 C 13.578125 -5.238281 13.507812 -4.390625 13.4375 -3.609375 C 13.375 -2.835938 13.320312 -2.171875 13.28125 -1.609375 C 13.238281 -1.054688 13.210938 -0.6875 13.203125 -0.5 C 13.171875 -0.300781 13.128906 -0.164062 13.078125 -0.09375 C 13.023438 -0.03125 12.882812 0 12.65625 0 L 11.75 0 C 11.394531 0 11.0625 -0.0234375 10.75 -0.078125 C 10.445312 -0.140625 10.179688 -0.238281 9.953125 -0.375 C 9.734375 -0.519531 9.5625 -0.710938 9.4375 -0.953125 C 9.3125 -1.203125 9.25 -1.519531 9.25 -1.90625 C 8.945312 -1.269531 8.488281 -0.75 7.875 -0.34375 C 7.269531 0.0507812 6.507812 0.25 5.59375 0.25 Z M 7.78125 -10.671875 C 6.925781 -10.671875 6.296875 -10.300781 5.890625 -9.5625 C 5.484375 -8.820312 5.28125 -7.828125 5.28125 -6.578125 C 5.28125 -6.140625 5.304688 -5.710938 5.359375 -5.296875 C 5.421875 -4.878906 5.523438 -4.503906 5.671875 -4.171875 C 5.828125 -3.835938 6.03125 -3.570312 6.28125 -3.375 C 6.539062 -3.175781 6.875 -3.078125 7.28125 -3.078125 C 7.988281 -3.078125 8.582031 -3.425781 9.0625 -4.125 C 9.550781 -4.820312 9.796875 -5.921875 9.796875 -7.421875 C 9.796875 -7.835938 9.769531 -8.238281 9.71875 -8.625 C 9.675781 -9.019531 9.578125 -9.367188 9.421875 -9.671875 C 9.273438 -9.972656 9.066406 -10.210938 8.796875 -10.390625 C 8.535156 -10.578125 8.195312 -10.671875 7.78125 -10.671875 Z M 7.78125 -10.671875 "/></g></g></g><g fill="#d9d9d9" fill-opacity="1"><g transform="translate(157.439947, 796.712332)"><g><path d="M 0.28125 -3.078125 C 0.28125 -4.578125 0.953125 -5.75 2.296875 -6.59375 C 3.648438 -7.445312 5.644531 -7.90625 8.28125 -7.96875 C 8.289062 -8.15625 8.300781 -8.3125 8.3125 -8.4375 C 8.320312 -8.5625 8.328125 -8.71875 8.328125 -8.90625 C 8.328125 -9.4375 8.222656 -9.859375 8.015625 -10.171875 C 7.816406 -10.492188 7.40625 -10.65625 6.78125 -10.65625 C 6.425781 -10.65625 6.140625 -10.601562 5.921875 -10.5 C 5.703125 -10.394531 5.523438 -10.253906 5.390625 -10.078125 C 5.265625 -9.910156 5.160156 -9.703125 5.078125 -9.453125 C 4.992188 -9.203125 4.914062 -8.925781 4.84375 -8.625 C 4.8125 -8.476562 4.738281 -8.382812 4.625 -8.34375 C 4.507812 -8.300781 4.328125 -8.28125 4.078125 -8.28125 C 2.378906 -8.28125 1.53125 -8.921875 1.53125 -10.203125 C 1.53125 -10.710938 1.648438 -11.203125 1.890625 -11.671875 C 2.128906 -12.140625 2.484375 -12.546875 2.953125 -12.890625 C 3.429688 -13.234375 4.03125 -13.503906 4.75 -13.703125 C 5.46875 -13.898438 6.300781 -14 7.25 -14 C 9.101562 -14 10.445312 -13.613281 11.28125 -12.84375 C 12.113281 -12.082031 12.53125 -11 12.53125 -9.59375 C 12.53125 -9.414062 12.507812 -9.085938 12.46875 -8.609375 C 12.425781 -8.140625 12.375 -7.640625 12.3125 -7.109375 C 12.25 -6.585938 12.195312 -6.09375 12.15625 -5.625 C 12.113281 -5.15625 12.09375 -4.832031 12.09375 -4.65625 C 12.09375 -4.238281 12.164062 -3.941406 12.3125 -3.765625 C 12.46875 -3.585938 12.640625 -3.460938 12.828125 -3.390625 C 13.023438 -3.328125 13.195312 -3.28125 13.34375 -3.25 C 13.5 -3.21875 13.578125 -3.132812 13.578125 -3 C 13.578125 -2.632812 13.523438 -2.257812 13.421875 -1.875 C 13.328125 -1.488281 13.164062 -1.132812 12.9375 -0.8125 C 12.707031 -0.5 12.394531 -0.242188 12 -0.046875 C 11.613281 0.148438 11.140625 0.25 10.578125 0.25 C 9.773438 0.25 9.171875 0.0546875 8.765625 -0.328125 C 8.367188 -0.710938 8.101562 -1.242188 7.96875 -1.921875 C 7.570312 -1.335938 7.050781 -0.828125 6.40625 -0.390625 C 5.769531 0.0351562 4.9375 0.25 3.90625 0.25 C 3.40625 0.25 2.929688 0.191406 2.484375 0.078125 C 2.046875 -0.0351562 1.660156 -0.226562 1.328125 -0.5 C 1.003906 -0.769531 0.75 -1.113281 0.5625 -1.53125 C 0.375 -1.957031 0.28125 -2.472656 0.28125 -3.078125 Z M 8.046875 -5.921875 C 7.617188 -5.921875 7.195312 -5.882812 6.78125 -5.8125 C 6.363281 -5.75 5.988281 -5.644531 5.65625 -5.5 C 5.332031 -5.363281 5.070312 -5.175781 4.875 -4.9375 C 4.675781 -4.707031 4.578125 -4.425781 4.578125 -4.09375 C 4.578125 -3.71875 4.695312 -3.453125 4.9375 -3.296875 C 5.175781 -3.148438 5.4375 -3.078125 5.71875 -3.078125 C 5.988281 -3.078125 6.253906 -3.132812 6.515625 -3.25 C 6.785156 -3.363281 7.023438 -3.539062 7.234375 -3.78125 C 7.441406 -4.03125 7.617188 -4.328125 7.765625 -4.671875 C 7.921875 -5.023438 8.015625 -5.441406 8.046875 -5.921875 Z M 8.046875 -5.921875 "/></g></g></g><g fill="#d9d9d9" fill-opacity="1"><g transform="translate(171.512723, 796.712332)"><g><path d="M 9.09375 -7.78125 C 9 -7.78125 8.890625 -7.78125 8.765625 -7.78125 C 8.640625 -7.789062 8.515625 -7.804688 8.390625 -7.828125 C 8.273438 -7.859375 8.175781 -7.894531 8.09375 -7.9375 C 8.007812 -7.976562 7.96875 -8.03125 7.96875 -8.09375 C 7.96875 -8.3125 7.976562 -8.507812 8 -8.6875 C 8.019531 -8.875 8.03125 -9.070312 8.03125 -9.28125 C 8.03125 -9.644531 7.976562 -9.941406 7.875 -10.171875 C 7.769531 -10.410156 7.570312 -10.53125 7.28125 -10.53125 C 6.8125 -10.53125 6.421875 -10.222656 6.109375 -9.609375 C 5.804688 -9.003906 5.613281 -8.09375 5.53125 -6.875 C 5.488281 -6.34375 5.4375 -5.738281 5.375 -5.0625 C 5.320312 -4.382812 5.269531 -3.734375 5.21875 -3.109375 C 5.175781 -2.484375 5.132812 -1.925781 5.09375 -1.4375 C 5.0625 -0.957031 5.046875 -0.644531 5.046875 -0.5 C 5.046875 -0.332031 4.988281 -0.207031 4.875 -0.125 C 4.757812 -0.0390625 4.632812 0 4.5 0 L 3.59375 0 C 3.082031 0 2.660156 -0.0507812 2.328125 -0.15625 C 2.003906 -0.269531 1.75 -0.425781 1.5625 -0.625 C 1.375 -0.820312 1.238281 -1.066406 1.15625 -1.359375 C 1.082031 -1.648438 1.046875 -1.988281 1.046875 -2.375 C 1.046875 -2.625 1.054688 -2.976562 1.078125 -3.4375 C 1.109375 -3.894531 1.15625 -4.523438 1.21875 -5.328125 C 1.289062 -6.140625 1.367188 -7.164062 1.453125 -8.40625 C 1.546875 -9.65625 1.660156 -11.195312 1.796875 -13.03125 C 1.828125 -13.507812 2.003906 -13.75 2.328125 -13.75 L 3.296875 -13.75 C 3.765625 -13.75 4.15625 -13.695312 4.46875 -13.59375 C 4.789062 -13.5 5.050781 -13.363281 5.25 -13.1875 C 5.445312 -13.007812 5.59375 -12.800781 5.6875 -12.5625 C 5.78125 -12.332031 5.84375 -12.09375 5.875 -11.84375 C 6.070312 -12.226562 6.304688 -12.554688 6.578125 -12.828125 C 6.859375 -13.109375 7.148438 -13.335938 7.453125 -13.515625 C 7.753906 -13.691406 8.0625 -13.816406 8.375 -13.890625 C 8.6875 -13.960938 8.976562 -14 9.25 -14 C 9.5625 -14 9.878906 -13.941406 10.203125 -13.828125 C 10.535156 -13.710938 10.832031 -13.535156 11.09375 -13.296875 C 11.363281 -13.066406 11.578125 -12.765625 11.734375 -12.390625 C 11.890625 -12.023438 11.96875 -11.59375 11.96875 -11.09375 C 11.96875 -10.644531 11.898438 -10.21875 11.765625 -9.8125 C 11.640625 -9.414062 11.453125 -9.0625 11.203125 -8.75 C 10.953125 -8.445312 10.644531 -8.207031 10.28125 -8.03125 C 9.925781 -7.863281 9.53125 -7.78125 9.09375 -7.78125 Z M 9.09375 -7.78125 "/></g></g></g><g fill="#d9d9d9" fill-opacity="1"><g transform="translate(183.485828, 796.712332)"><g><path d="M 3.59375 0 C 3.082031 0 2.660156 -0.0507812 2.328125 -0.15625 C 2.003906 -0.269531 1.75 -0.425781 1.5625 -0.625 C 1.375 -0.820312 1.238281 -1.066406 1.15625 -1.359375 C 1.082031 -1.648438 1.046875 -1.988281 1.046875 -2.375 C 1.046875 -2.625 1.054688 -2.976562 1.078125 -3.4375 C 1.109375 -3.894531 1.15625 -4.523438 1.21875 -5.328125 C 1.289062 -6.140625 1.367188 -7.164062 1.453125 -8.40625 C 1.546875 -9.65625 1.660156 -11.195312 1.796875 -13.03125 C 1.816406 -13.394531 1.859375 -13.609375 1.921875 -13.671875 C 1.972656 -13.722656 2.109375 -13.75 2.328125 -13.75 L 3.296875 -13.75 C 3.816406 -13.75 4.238281 -13.695312 4.5625 -13.59375 C 4.882812 -13.5 5.140625 -13.347656 5.328125 -13.140625 C 5.523438 -12.941406 5.660156 -12.703125 5.734375 -12.421875 C 5.804688 -12.140625 5.84375 -11.820312 5.84375 -11.46875 C 5.84375 -11.21875 5.828125 -10.84375 5.796875 -10.34375 C 5.765625 -9.84375 5.71875 -9.164062 5.65625 -8.3125 C 5.601562 -7.457031 5.523438 -6.390625 5.421875 -5.109375 C 5.328125 -3.835938 5.203125 -2.300781 5.046875 -0.5 C 5.035156 -0.300781 4.992188 -0.164062 4.921875 -0.09375 C 4.859375 -0.03125 4.71875 0 4.5 0 Z M 1.828125 -16.703125 C 1.828125 -17.367188 2.066406 -17.890625 2.546875 -18.265625 C 3.035156 -18.648438 3.6875 -18.84375 4.5 -18.84375 C 5.21875 -18.84375 5.738281 -18.695312 6.0625 -18.40625 C 6.382812 -18.113281 6.546875 -17.726562 6.546875 -17.25 C 6.546875 -16.632812 6.316406 -16.117188 5.859375 -15.703125 C 5.398438 -15.296875 4.726562 -15.09375 3.84375 -15.09375 C 2.5 -15.09375 1.828125 -15.628906 1.828125 -16.703125 Z M 1.828125 -16.703125 "/></g></g></g></svg>